%
M48
M72
T01C0.03150
T02C0.03200
T03C0.03937
T04C0.26000
%
T01
X196800Y62122
X215698Y73933
T02
X106800Y63933
X146800Y63933
X146800Y103933
X146800Y128933
X151800Y143933
X151800Y153933
X126800Y148933
X106800Y128933
X106800Y103933
X60800Y103933
X52800Y103933
X31800Y124033
X41800Y133933
X31800Y143833
X56800Y148933
X86800Y168933
X96800Y168933
X126800Y188933
X91800Y218933
X91800Y228933
X56800Y188933
X181800Y183933
X181800Y173933
X181800Y163933
X181800Y153933
X181800Y143933
X181800Y133933
X211800Y133933
X211800Y143933
X211800Y153933
X211800Y163933
X211800Y173933
X211800Y183933
X211800Y193933
X201800Y213933
X191800Y213933
X181800Y193933
X241800Y153933
X241800Y143933
X246800Y128933
X266800Y148933
X286800Y128933
X286800Y103933
X246800Y103933
X201800Y108933
X191800Y108933
X246800Y63933
X286800Y63933
X332800Y103933
X340800Y103933
X361800Y124033
X351800Y133933
X361800Y143833
X336800Y148933
X306800Y168933
X296800Y168933
X266800Y188933
X301800Y218933
X301800Y228933
X336800Y188933
T03
X196800Y85744
T04
X366800Y48933
X366800Y298933
X26800Y298933
X26800Y48933
M30
