G75*
%MOIN*%
%OFA0B0*%
%FSLAX25Y25*%
%IPPOS*%
%LPD*%
%AMOC8*
5,1,8,0,0,1.08239X$1,22.5*
%
%ADD10C,0.00000*%
%ADD11C,0.03800*%
%ADD12C,0.01100*%
%ADD13C,0.05000*%
%ADD14C,0.03200*%
%ADD15C,0.00600*%
%ADD16C,0.01000*%
%ADD17C,0.00500*%
%ADD18R,0.02000X0.08000*%
%ADD19R,0.07500X0.02000*%
%ADD20C,0.00394*%
%ADD21C,0.00400*%
%ADD22R,0.02400X0.03400*%
%ADD23C,0.01200*%
%ADD24C,0.00800*%
D10*
X0026800Y0023933D02*
X0366800Y0023933D01*
X0353800Y0048933D02*
X0353804Y0049252D01*
X0353816Y0049571D01*
X0353835Y0049889D01*
X0353863Y0050207D01*
X0353898Y0050524D01*
X0353941Y0050840D01*
X0353991Y0051156D01*
X0354050Y0051469D01*
X0354116Y0051781D01*
X0354190Y0052092D01*
X0354271Y0052400D01*
X0354360Y0052707D01*
X0354456Y0053011D01*
X0354560Y0053313D01*
X0354671Y0053612D01*
X0354790Y0053908D01*
X0354915Y0054201D01*
X0355048Y0054491D01*
X0355188Y0054778D01*
X0355335Y0055061D01*
X0355489Y0055341D01*
X0355650Y0055616D01*
X0355817Y0055888D01*
X0355991Y0056155D01*
X0356171Y0056419D01*
X0356358Y0056677D01*
X0356551Y0056931D01*
X0356751Y0057180D01*
X0356956Y0057424D01*
X0357168Y0057663D01*
X0357385Y0057897D01*
X0357608Y0058125D01*
X0357836Y0058348D01*
X0358070Y0058565D01*
X0358309Y0058777D01*
X0358553Y0058982D01*
X0358802Y0059182D01*
X0359056Y0059375D01*
X0359314Y0059562D01*
X0359578Y0059742D01*
X0359845Y0059916D01*
X0360117Y0060083D01*
X0360392Y0060244D01*
X0360672Y0060398D01*
X0360955Y0060545D01*
X0361242Y0060685D01*
X0361532Y0060818D01*
X0361825Y0060943D01*
X0362121Y0061062D01*
X0362420Y0061173D01*
X0362722Y0061277D01*
X0363026Y0061373D01*
X0363333Y0061462D01*
X0363641Y0061543D01*
X0363952Y0061617D01*
X0364264Y0061683D01*
X0364577Y0061742D01*
X0364893Y0061792D01*
X0365209Y0061835D01*
X0365526Y0061870D01*
X0365844Y0061898D01*
X0366162Y0061917D01*
X0366481Y0061929D01*
X0366800Y0061933D01*
X0367119Y0061929D01*
X0367438Y0061917D01*
X0367756Y0061898D01*
X0368074Y0061870D01*
X0368391Y0061835D01*
X0368707Y0061792D01*
X0369023Y0061742D01*
X0369336Y0061683D01*
X0369648Y0061617D01*
X0369959Y0061543D01*
X0370267Y0061462D01*
X0370574Y0061373D01*
X0370878Y0061277D01*
X0371180Y0061173D01*
X0371479Y0061062D01*
X0371775Y0060943D01*
X0372068Y0060818D01*
X0372358Y0060685D01*
X0372645Y0060545D01*
X0372928Y0060398D01*
X0373208Y0060244D01*
X0373483Y0060083D01*
X0373755Y0059916D01*
X0374022Y0059742D01*
X0374286Y0059562D01*
X0374544Y0059375D01*
X0374798Y0059182D01*
X0375047Y0058982D01*
X0375291Y0058777D01*
X0375530Y0058565D01*
X0375764Y0058348D01*
X0375992Y0058125D01*
X0376215Y0057897D01*
X0376432Y0057663D01*
X0376644Y0057424D01*
X0376849Y0057180D01*
X0377049Y0056931D01*
X0377242Y0056677D01*
X0377429Y0056419D01*
X0377609Y0056155D01*
X0377783Y0055888D01*
X0377950Y0055616D01*
X0378111Y0055341D01*
X0378265Y0055061D01*
X0378412Y0054778D01*
X0378552Y0054491D01*
X0378685Y0054201D01*
X0378810Y0053908D01*
X0378929Y0053612D01*
X0379040Y0053313D01*
X0379144Y0053011D01*
X0379240Y0052707D01*
X0379329Y0052400D01*
X0379410Y0052092D01*
X0379484Y0051781D01*
X0379550Y0051469D01*
X0379609Y0051156D01*
X0379659Y0050840D01*
X0379702Y0050524D01*
X0379737Y0050207D01*
X0379765Y0049889D01*
X0379784Y0049571D01*
X0379796Y0049252D01*
X0379800Y0048933D01*
X0379796Y0048614D01*
X0379784Y0048295D01*
X0379765Y0047977D01*
X0379737Y0047659D01*
X0379702Y0047342D01*
X0379659Y0047026D01*
X0379609Y0046710D01*
X0379550Y0046397D01*
X0379484Y0046085D01*
X0379410Y0045774D01*
X0379329Y0045466D01*
X0379240Y0045159D01*
X0379144Y0044855D01*
X0379040Y0044553D01*
X0378929Y0044254D01*
X0378810Y0043958D01*
X0378685Y0043665D01*
X0378552Y0043375D01*
X0378412Y0043088D01*
X0378265Y0042805D01*
X0378111Y0042525D01*
X0377950Y0042250D01*
X0377783Y0041978D01*
X0377609Y0041711D01*
X0377429Y0041447D01*
X0377242Y0041189D01*
X0377049Y0040935D01*
X0376849Y0040686D01*
X0376644Y0040442D01*
X0376432Y0040203D01*
X0376215Y0039969D01*
X0375992Y0039741D01*
X0375764Y0039518D01*
X0375530Y0039301D01*
X0375291Y0039089D01*
X0375047Y0038884D01*
X0374798Y0038684D01*
X0374544Y0038491D01*
X0374286Y0038304D01*
X0374022Y0038124D01*
X0373755Y0037950D01*
X0373483Y0037783D01*
X0373208Y0037622D01*
X0372928Y0037468D01*
X0372645Y0037321D01*
X0372358Y0037181D01*
X0372068Y0037048D01*
X0371775Y0036923D01*
X0371479Y0036804D01*
X0371180Y0036693D01*
X0370878Y0036589D01*
X0370574Y0036493D01*
X0370267Y0036404D01*
X0369959Y0036323D01*
X0369648Y0036249D01*
X0369336Y0036183D01*
X0369023Y0036124D01*
X0368707Y0036074D01*
X0368391Y0036031D01*
X0368074Y0035996D01*
X0367756Y0035968D01*
X0367438Y0035949D01*
X0367119Y0035937D01*
X0366800Y0035933D01*
X0366481Y0035937D01*
X0366162Y0035949D01*
X0365844Y0035968D01*
X0365526Y0035996D01*
X0365209Y0036031D01*
X0364893Y0036074D01*
X0364577Y0036124D01*
X0364264Y0036183D01*
X0363952Y0036249D01*
X0363641Y0036323D01*
X0363333Y0036404D01*
X0363026Y0036493D01*
X0362722Y0036589D01*
X0362420Y0036693D01*
X0362121Y0036804D01*
X0361825Y0036923D01*
X0361532Y0037048D01*
X0361242Y0037181D01*
X0360955Y0037321D01*
X0360672Y0037468D01*
X0360392Y0037622D01*
X0360117Y0037783D01*
X0359845Y0037950D01*
X0359578Y0038124D01*
X0359314Y0038304D01*
X0359056Y0038491D01*
X0358802Y0038684D01*
X0358553Y0038884D01*
X0358309Y0039089D01*
X0358070Y0039301D01*
X0357836Y0039518D01*
X0357608Y0039741D01*
X0357385Y0039969D01*
X0357168Y0040203D01*
X0356956Y0040442D01*
X0356751Y0040686D01*
X0356551Y0040935D01*
X0356358Y0041189D01*
X0356171Y0041447D01*
X0355991Y0041711D01*
X0355817Y0041978D01*
X0355650Y0042250D01*
X0355489Y0042525D01*
X0355335Y0042805D01*
X0355188Y0043088D01*
X0355048Y0043375D01*
X0354915Y0043665D01*
X0354790Y0043958D01*
X0354671Y0044254D01*
X0354560Y0044553D01*
X0354456Y0044855D01*
X0354360Y0045159D01*
X0354271Y0045466D01*
X0354190Y0045774D01*
X0354116Y0046085D01*
X0354050Y0046397D01*
X0353991Y0046710D01*
X0353941Y0047026D01*
X0353898Y0047342D01*
X0353863Y0047659D01*
X0353835Y0047977D01*
X0353816Y0048295D01*
X0353804Y0048614D01*
X0353800Y0048933D01*
X0366800Y0023933D02*
X0367404Y0023940D01*
X0368008Y0023962D01*
X0368611Y0023999D01*
X0369213Y0024050D01*
X0369813Y0024115D01*
X0370412Y0024195D01*
X0371009Y0024290D01*
X0371603Y0024399D01*
X0372195Y0024522D01*
X0372783Y0024659D01*
X0373368Y0024811D01*
X0373949Y0024977D01*
X0374525Y0025157D01*
X0375098Y0025350D01*
X0375665Y0025558D01*
X0376227Y0025779D01*
X0376784Y0026013D01*
X0377335Y0026261D01*
X0377880Y0026522D01*
X0378418Y0026797D01*
X0378950Y0027084D01*
X0379474Y0027384D01*
X0379991Y0027696D01*
X0380500Y0028021D01*
X0381002Y0028358D01*
X0381495Y0028708D01*
X0381979Y0029069D01*
X0382455Y0029441D01*
X0382921Y0029825D01*
X0383378Y0030220D01*
X0383825Y0030626D01*
X0384263Y0031043D01*
X0384690Y0031470D01*
X0385107Y0031908D01*
X0385513Y0032355D01*
X0385908Y0032812D01*
X0386292Y0033278D01*
X0386664Y0033754D01*
X0387025Y0034238D01*
X0387375Y0034731D01*
X0387712Y0035233D01*
X0388037Y0035742D01*
X0388349Y0036259D01*
X0388649Y0036783D01*
X0388936Y0037315D01*
X0389211Y0037853D01*
X0389472Y0038398D01*
X0389720Y0038949D01*
X0389954Y0039506D01*
X0390175Y0040068D01*
X0390383Y0040635D01*
X0390576Y0041208D01*
X0390756Y0041784D01*
X0390922Y0042365D01*
X0391074Y0042950D01*
X0391211Y0043538D01*
X0391334Y0044130D01*
X0391443Y0044724D01*
X0391538Y0045321D01*
X0391618Y0045920D01*
X0391683Y0046520D01*
X0391734Y0047122D01*
X0391771Y0047725D01*
X0391793Y0048329D01*
X0391800Y0048933D01*
X0391800Y0298933D01*
X0353800Y0298933D02*
X0353804Y0299252D01*
X0353816Y0299571D01*
X0353835Y0299889D01*
X0353863Y0300207D01*
X0353898Y0300524D01*
X0353941Y0300840D01*
X0353991Y0301156D01*
X0354050Y0301469D01*
X0354116Y0301781D01*
X0354190Y0302092D01*
X0354271Y0302400D01*
X0354360Y0302707D01*
X0354456Y0303011D01*
X0354560Y0303313D01*
X0354671Y0303612D01*
X0354790Y0303908D01*
X0354915Y0304201D01*
X0355048Y0304491D01*
X0355188Y0304778D01*
X0355335Y0305061D01*
X0355489Y0305341D01*
X0355650Y0305616D01*
X0355817Y0305888D01*
X0355991Y0306155D01*
X0356171Y0306419D01*
X0356358Y0306677D01*
X0356551Y0306931D01*
X0356751Y0307180D01*
X0356956Y0307424D01*
X0357168Y0307663D01*
X0357385Y0307897D01*
X0357608Y0308125D01*
X0357836Y0308348D01*
X0358070Y0308565D01*
X0358309Y0308777D01*
X0358553Y0308982D01*
X0358802Y0309182D01*
X0359056Y0309375D01*
X0359314Y0309562D01*
X0359578Y0309742D01*
X0359845Y0309916D01*
X0360117Y0310083D01*
X0360392Y0310244D01*
X0360672Y0310398D01*
X0360955Y0310545D01*
X0361242Y0310685D01*
X0361532Y0310818D01*
X0361825Y0310943D01*
X0362121Y0311062D01*
X0362420Y0311173D01*
X0362722Y0311277D01*
X0363026Y0311373D01*
X0363333Y0311462D01*
X0363641Y0311543D01*
X0363952Y0311617D01*
X0364264Y0311683D01*
X0364577Y0311742D01*
X0364893Y0311792D01*
X0365209Y0311835D01*
X0365526Y0311870D01*
X0365844Y0311898D01*
X0366162Y0311917D01*
X0366481Y0311929D01*
X0366800Y0311933D01*
X0367119Y0311929D01*
X0367438Y0311917D01*
X0367756Y0311898D01*
X0368074Y0311870D01*
X0368391Y0311835D01*
X0368707Y0311792D01*
X0369023Y0311742D01*
X0369336Y0311683D01*
X0369648Y0311617D01*
X0369959Y0311543D01*
X0370267Y0311462D01*
X0370574Y0311373D01*
X0370878Y0311277D01*
X0371180Y0311173D01*
X0371479Y0311062D01*
X0371775Y0310943D01*
X0372068Y0310818D01*
X0372358Y0310685D01*
X0372645Y0310545D01*
X0372928Y0310398D01*
X0373208Y0310244D01*
X0373483Y0310083D01*
X0373755Y0309916D01*
X0374022Y0309742D01*
X0374286Y0309562D01*
X0374544Y0309375D01*
X0374798Y0309182D01*
X0375047Y0308982D01*
X0375291Y0308777D01*
X0375530Y0308565D01*
X0375764Y0308348D01*
X0375992Y0308125D01*
X0376215Y0307897D01*
X0376432Y0307663D01*
X0376644Y0307424D01*
X0376849Y0307180D01*
X0377049Y0306931D01*
X0377242Y0306677D01*
X0377429Y0306419D01*
X0377609Y0306155D01*
X0377783Y0305888D01*
X0377950Y0305616D01*
X0378111Y0305341D01*
X0378265Y0305061D01*
X0378412Y0304778D01*
X0378552Y0304491D01*
X0378685Y0304201D01*
X0378810Y0303908D01*
X0378929Y0303612D01*
X0379040Y0303313D01*
X0379144Y0303011D01*
X0379240Y0302707D01*
X0379329Y0302400D01*
X0379410Y0302092D01*
X0379484Y0301781D01*
X0379550Y0301469D01*
X0379609Y0301156D01*
X0379659Y0300840D01*
X0379702Y0300524D01*
X0379737Y0300207D01*
X0379765Y0299889D01*
X0379784Y0299571D01*
X0379796Y0299252D01*
X0379800Y0298933D01*
X0379796Y0298614D01*
X0379784Y0298295D01*
X0379765Y0297977D01*
X0379737Y0297659D01*
X0379702Y0297342D01*
X0379659Y0297026D01*
X0379609Y0296710D01*
X0379550Y0296397D01*
X0379484Y0296085D01*
X0379410Y0295774D01*
X0379329Y0295466D01*
X0379240Y0295159D01*
X0379144Y0294855D01*
X0379040Y0294553D01*
X0378929Y0294254D01*
X0378810Y0293958D01*
X0378685Y0293665D01*
X0378552Y0293375D01*
X0378412Y0293088D01*
X0378265Y0292805D01*
X0378111Y0292525D01*
X0377950Y0292250D01*
X0377783Y0291978D01*
X0377609Y0291711D01*
X0377429Y0291447D01*
X0377242Y0291189D01*
X0377049Y0290935D01*
X0376849Y0290686D01*
X0376644Y0290442D01*
X0376432Y0290203D01*
X0376215Y0289969D01*
X0375992Y0289741D01*
X0375764Y0289518D01*
X0375530Y0289301D01*
X0375291Y0289089D01*
X0375047Y0288884D01*
X0374798Y0288684D01*
X0374544Y0288491D01*
X0374286Y0288304D01*
X0374022Y0288124D01*
X0373755Y0287950D01*
X0373483Y0287783D01*
X0373208Y0287622D01*
X0372928Y0287468D01*
X0372645Y0287321D01*
X0372358Y0287181D01*
X0372068Y0287048D01*
X0371775Y0286923D01*
X0371479Y0286804D01*
X0371180Y0286693D01*
X0370878Y0286589D01*
X0370574Y0286493D01*
X0370267Y0286404D01*
X0369959Y0286323D01*
X0369648Y0286249D01*
X0369336Y0286183D01*
X0369023Y0286124D01*
X0368707Y0286074D01*
X0368391Y0286031D01*
X0368074Y0285996D01*
X0367756Y0285968D01*
X0367438Y0285949D01*
X0367119Y0285937D01*
X0366800Y0285933D01*
X0366481Y0285937D01*
X0366162Y0285949D01*
X0365844Y0285968D01*
X0365526Y0285996D01*
X0365209Y0286031D01*
X0364893Y0286074D01*
X0364577Y0286124D01*
X0364264Y0286183D01*
X0363952Y0286249D01*
X0363641Y0286323D01*
X0363333Y0286404D01*
X0363026Y0286493D01*
X0362722Y0286589D01*
X0362420Y0286693D01*
X0362121Y0286804D01*
X0361825Y0286923D01*
X0361532Y0287048D01*
X0361242Y0287181D01*
X0360955Y0287321D01*
X0360672Y0287468D01*
X0360392Y0287622D01*
X0360117Y0287783D01*
X0359845Y0287950D01*
X0359578Y0288124D01*
X0359314Y0288304D01*
X0359056Y0288491D01*
X0358802Y0288684D01*
X0358553Y0288884D01*
X0358309Y0289089D01*
X0358070Y0289301D01*
X0357836Y0289518D01*
X0357608Y0289741D01*
X0357385Y0289969D01*
X0357168Y0290203D01*
X0356956Y0290442D01*
X0356751Y0290686D01*
X0356551Y0290935D01*
X0356358Y0291189D01*
X0356171Y0291447D01*
X0355991Y0291711D01*
X0355817Y0291978D01*
X0355650Y0292250D01*
X0355489Y0292525D01*
X0355335Y0292805D01*
X0355188Y0293088D01*
X0355048Y0293375D01*
X0354915Y0293665D01*
X0354790Y0293958D01*
X0354671Y0294254D01*
X0354560Y0294553D01*
X0354456Y0294855D01*
X0354360Y0295159D01*
X0354271Y0295466D01*
X0354190Y0295774D01*
X0354116Y0296085D01*
X0354050Y0296397D01*
X0353991Y0296710D01*
X0353941Y0297026D01*
X0353898Y0297342D01*
X0353863Y0297659D01*
X0353835Y0297977D01*
X0353816Y0298295D01*
X0353804Y0298614D01*
X0353800Y0298933D01*
X0366800Y0323933D02*
X0367404Y0323926D01*
X0368008Y0323904D01*
X0368611Y0323867D01*
X0369213Y0323816D01*
X0369813Y0323751D01*
X0370412Y0323671D01*
X0371009Y0323576D01*
X0371603Y0323467D01*
X0372195Y0323344D01*
X0372783Y0323207D01*
X0373368Y0323055D01*
X0373949Y0322889D01*
X0374525Y0322709D01*
X0375098Y0322516D01*
X0375665Y0322308D01*
X0376227Y0322087D01*
X0376784Y0321853D01*
X0377335Y0321605D01*
X0377880Y0321344D01*
X0378418Y0321069D01*
X0378950Y0320782D01*
X0379474Y0320482D01*
X0379991Y0320170D01*
X0380500Y0319845D01*
X0381002Y0319508D01*
X0381495Y0319158D01*
X0381979Y0318797D01*
X0382455Y0318425D01*
X0382921Y0318041D01*
X0383378Y0317646D01*
X0383825Y0317240D01*
X0384263Y0316823D01*
X0384690Y0316396D01*
X0385107Y0315958D01*
X0385513Y0315511D01*
X0385908Y0315054D01*
X0386292Y0314588D01*
X0386664Y0314112D01*
X0387025Y0313628D01*
X0387375Y0313135D01*
X0387712Y0312633D01*
X0388037Y0312124D01*
X0388349Y0311607D01*
X0388649Y0311083D01*
X0388936Y0310551D01*
X0389211Y0310013D01*
X0389472Y0309468D01*
X0389720Y0308917D01*
X0389954Y0308360D01*
X0390175Y0307798D01*
X0390383Y0307231D01*
X0390576Y0306658D01*
X0390756Y0306082D01*
X0390922Y0305501D01*
X0391074Y0304916D01*
X0391211Y0304328D01*
X0391334Y0303736D01*
X0391443Y0303142D01*
X0391538Y0302545D01*
X0391618Y0301946D01*
X0391683Y0301346D01*
X0391734Y0300744D01*
X0391771Y0300141D01*
X0391793Y0299537D01*
X0391800Y0298933D01*
X0366800Y0323933D02*
X0026800Y0323933D01*
X0013800Y0298933D02*
X0013804Y0299252D01*
X0013816Y0299571D01*
X0013835Y0299889D01*
X0013863Y0300207D01*
X0013898Y0300524D01*
X0013941Y0300840D01*
X0013991Y0301156D01*
X0014050Y0301469D01*
X0014116Y0301781D01*
X0014190Y0302092D01*
X0014271Y0302400D01*
X0014360Y0302707D01*
X0014456Y0303011D01*
X0014560Y0303313D01*
X0014671Y0303612D01*
X0014790Y0303908D01*
X0014915Y0304201D01*
X0015048Y0304491D01*
X0015188Y0304778D01*
X0015335Y0305061D01*
X0015489Y0305341D01*
X0015650Y0305616D01*
X0015817Y0305888D01*
X0015991Y0306155D01*
X0016171Y0306419D01*
X0016358Y0306677D01*
X0016551Y0306931D01*
X0016751Y0307180D01*
X0016956Y0307424D01*
X0017168Y0307663D01*
X0017385Y0307897D01*
X0017608Y0308125D01*
X0017836Y0308348D01*
X0018070Y0308565D01*
X0018309Y0308777D01*
X0018553Y0308982D01*
X0018802Y0309182D01*
X0019056Y0309375D01*
X0019314Y0309562D01*
X0019578Y0309742D01*
X0019845Y0309916D01*
X0020117Y0310083D01*
X0020392Y0310244D01*
X0020672Y0310398D01*
X0020955Y0310545D01*
X0021242Y0310685D01*
X0021532Y0310818D01*
X0021825Y0310943D01*
X0022121Y0311062D01*
X0022420Y0311173D01*
X0022722Y0311277D01*
X0023026Y0311373D01*
X0023333Y0311462D01*
X0023641Y0311543D01*
X0023952Y0311617D01*
X0024264Y0311683D01*
X0024577Y0311742D01*
X0024893Y0311792D01*
X0025209Y0311835D01*
X0025526Y0311870D01*
X0025844Y0311898D01*
X0026162Y0311917D01*
X0026481Y0311929D01*
X0026800Y0311933D01*
X0027119Y0311929D01*
X0027438Y0311917D01*
X0027756Y0311898D01*
X0028074Y0311870D01*
X0028391Y0311835D01*
X0028707Y0311792D01*
X0029023Y0311742D01*
X0029336Y0311683D01*
X0029648Y0311617D01*
X0029959Y0311543D01*
X0030267Y0311462D01*
X0030574Y0311373D01*
X0030878Y0311277D01*
X0031180Y0311173D01*
X0031479Y0311062D01*
X0031775Y0310943D01*
X0032068Y0310818D01*
X0032358Y0310685D01*
X0032645Y0310545D01*
X0032928Y0310398D01*
X0033208Y0310244D01*
X0033483Y0310083D01*
X0033755Y0309916D01*
X0034022Y0309742D01*
X0034286Y0309562D01*
X0034544Y0309375D01*
X0034798Y0309182D01*
X0035047Y0308982D01*
X0035291Y0308777D01*
X0035530Y0308565D01*
X0035764Y0308348D01*
X0035992Y0308125D01*
X0036215Y0307897D01*
X0036432Y0307663D01*
X0036644Y0307424D01*
X0036849Y0307180D01*
X0037049Y0306931D01*
X0037242Y0306677D01*
X0037429Y0306419D01*
X0037609Y0306155D01*
X0037783Y0305888D01*
X0037950Y0305616D01*
X0038111Y0305341D01*
X0038265Y0305061D01*
X0038412Y0304778D01*
X0038552Y0304491D01*
X0038685Y0304201D01*
X0038810Y0303908D01*
X0038929Y0303612D01*
X0039040Y0303313D01*
X0039144Y0303011D01*
X0039240Y0302707D01*
X0039329Y0302400D01*
X0039410Y0302092D01*
X0039484Y0301781D01*
X0039550Y0301469D01*
X0039609Y0301156D01*
X0039659Y0300840D01*
X0039702Y0300524D01*
X0039737Y0300207D01*
X0039765Y0299889D01*
X0039784Y0299571D01*
X0039796Y0299252D01*
X0039800Y0298933D01*
X0039796Y0298614D01*
X0039784Y0298295D01*
X0039765Y0297977D01*
X0039737Y0297659D01*
X0039702Y0297342D01*
X0039659Y0297026D01*
X0039609Y0296710D01*
X0039550Y0296397D01*
X0039484Y0296085D01*
X0039410Y0295774D01*
X0039329Y0295466D01*
X0039240Y0295159D01*
X0039144Y0294855D01*
X0039040Y0294553D01*
X0038929Y0294254D01*
X0038810Y0293958D01*
X0038685Y0293665D01*
X0038552Y0293375D01*
X0038412Y0293088D01*
X0038265Y0292805D01*
X0038111Y0292525D01*
X0037950Y0292250D01*
X0037783Y0291978D01*
X0037609Y0291711D01*
X0037429Y0291447D01*
X0037242Y0291189D01*
X0037049Y0290935D01*
X0036849Y0290686D01*
X0036644Y0290442D01*
X0036432Y0290203D01*
X0036215Y0289969D01*
X0035992Y0289741D01*
X0035764Y0289518D01*
X0035530Y0289301D01*
X0035291Y0289089D01*
X0035047Y0288884D01*
X0034798Y0288684D01*
X0034544Y0288491D01*
X0034286Y0288304D01*
X0034022Y0288124D01*
X0033755Y0287950D01*
X0033483Y0287783D01*
X0033208Y0287622D01*
X0032928Y0287468D01*
X0032645Y0287321D01*
X0032358Y0287181D01*
X0032068Y0287048D01*
X0031775Y0286923D01*
X0031479Y0286804D01*
X0031180Y0286693D01*
X0030878Y0286589D01*
X0030574Y0286493D01*
X0030267Y0286404D01*
X0029959Y0286323D01*
X0029648Y0286249D01*
X0029336Y0286183D01*
X0029023Y0286124D01*
X0028707Y0286074D01*
X0028391Y0286031D01*
X0028074Y0285996D01*
X0027756Y0285968D01*
X0027438Y0285949D01*
X0027119Y0285937D01*
X0026800Y0285933D01*
X0026481Y0285937D01*
X0026162Y0285949D01*
X0025844Y0285968D01*
X0025526Y0285996D01*
X0025209Y0286031D01*
X0024893Y0286074D01*
X0024577Y0286124D01*
X0024264Y0286183D01*
X0023952Y0286249D01*
X0023641Y0286323D01*
X0023333Y0286404D01*
X0023026Y0286493D01*
X0022722Y0286589D01*
X0022420Y0286693D01*
X0022121Y0286804D01*
X0021825Y0286923D01*
X0021532Y0287048D01*
X0021242Y0287181D01*
X0020955Y0287321D01*
X0020672Y0287468D01*
X0020392Y0287622D01*
X0020117Y0287783D01*
X0019845Y0287950D01*
X0019578Y0288124D01*
X0019314Y0288304D01*
X0019056Y0288491D01*
X0018802Y0288684D01*
X0018553Y0288884D01*
X0018309Y0289089D01*
X0018070Y0289301D01*
X0017836Y0289518D01*
X0017608Y0289741D01*
X0017385Y0289969D01*
X0017168Y0290203D01*
X0016956Y0290442D01*
X0016751Y0290686D01*
X0016551Y0290935D01*
X0016358Y0291189D01*
X0016171Y0291447D01*
X0015991Y0291711D01*
X0015817Y0291978D01*
X0015650Y0292250D01*
X0015489Y0292525D01*
X0015335Y0292805D01*
X0015188Y0293088D01*
X0015048Y0293375D01*
X0014915Y0293665D01*
X0014790Y0293958D01*
X0014671Y0294254D01*
X0014560Y0294553D01*
X0014456Y0294855D01*
X0014360Y0295159D01*
X0014271Y0295466D01*
X0014190Y0295774D01*
X0014116Y0296085D01*
X0014050Y0296397D01*
X0013991Y0296710D01*
X0013941Y0297026D01*
X0013898Y0297342D01*
X0013863Y0297659D01*
X0013835Y0297977D01*
X0013816Y0298295D01*
X0013804Y0298614D01*
X0013800Y0298933D01*
X0001800Y0298933D02*
X0001800Y0048933D01*
X0013800Y0048933D02*
X0013804Y0049252D01*
X0013816Y0049571D01*
X0013835Y0049889D01*
X0013863Y0050207D01*
X0013898Y0050524D01*
X0013941Y0050840D01*
X0013991Y0051156D01*
X0014050Y0051469D01*
X0014116Y0051781D01*
X0014190Y0052092D01*
X0014271Y0052400D01*
X0014360Y0052707D01*
X0014456Y0053011D01*
X0014560Y0053313D01*
X0014671Y0053612D01*
X0014790Y0053908D01*
X0014915Y0054201D01*
X0015048Y0054491D01*
X0015188Y0054778D01*
X0015335Y0055061D01*
X0015489Y0055341D01*
X0015650Y0055616D01*
X0015817Y0055888D01*
X0015991Y0056155D01*
X0016171Y0056419D01*
X0016358Y0056677D01*
X0016551Y0056931D01*
X0016751Y0057180D01*
X0016956Y0057424D01*
X0017168Y0057663D01*
X0017385Y0057897D01*
X0017608Y0058125D01*
X0017836Y0058348D01*
X0018070Y0058565D01*
X0018309Y0058777D01*
X0018553Y0058982D01*
X0018802Y0059182D01*
X0019056Y0059375D01*
X0019314Y0059562D01*
X0019578Y0059742D01*
X0019845Y0059916D01*
X0020117Y0060083D01*
X0020392Y0060244D01*
X0020672Y0060398D01*
X0020955Y0060545D01*
X0021242Y0060685D01*
X0021532Y0060818D01*
X0021825Y0060943D01*
X0022121Y0061062D01*
X0022420Y0061173D01*
X0022722Y0061277D01*
X0023026Y0061373D01*
X0023333Y0061462D01*
X0023641Y0061543D01*
X0023952Y0061617D01*
X0024264Y0061683D01*
X0024577Y0061742D01*
X0024893Y0061792D01*
X0025209Y0061835D01*
X0025526Y0061870D01*
X0025844Y0061898D01*
X0026162Y0061917D01*
X0026481Y0061929D01*
X0026800Y0061933D01*
X0027119Y0061929D01*
X0027438Y0061917D01*
X0027756Y0061898D01*
X0028074Y0061870D01*
X0028391Y0061835D01*
X0028707Y0061792D01*
X0029023Y0061742D01*
X0029336Y0061683D01*
X0029648Y0061617D01*
X0029959Y0061543D01*
X0030267Y0061462D01*
X0030574Y0061373D01*
X0030878Y0061277D01*
X0031180Y0061173D01*
X0031479Y0061062D01*
X0031775Y0060943D01*
X0032068Y0060818D01*
X0032358Y0060685D01*
X0032645Y0060545D01*
X0032928Y0060398D01*
X0033208Y0060244D01*
X0033483Y0060083D01*
X0033755Y0059916D01*
X0034022Y0059742D01*
X0034286Y0059562D01*
X0034544Y0059375D01*
X0034798Y0059182D01*
X0035047Y0058982D01*
X0035291Y0058777D01*
X0035530Y0058565D01*
X0035764Y0058348D01*
X0035992Y0058125D01*
X0036215Y0057897D01*
X0036432Y0057663D01*
X0036644Y0057424D01*
X0036849Y0057180D01*
X0037049Y0056931D01*
X0037242Y0056677D01*
X0037429Y0056419D01*
X0037609Y0056155D01*
X0037783Y0055888D01*
X0037950Y0055616D01*
X0038111Y0055341D01*
X0038265Y0055061D01*
X0038412Y0054778D01*
X0038552Y0054491D01*
X0038685Y0054201D01*
X0038810Y0053908D01*
X0038929Y0053612D01*
X0039040Y0053313D01*
X0039144Y0053011D01*
X0039240Y0052707D01*
X0039329Y0052400D01*
X0039410Y0052092D01*
X0039484Y0051781D01*
X0039550Y0051469D01*
X0039609Y0051156D01*
X0039659Y0050840D01*
X0039702Y0050524D01*
X0039737Y0050207D01*
X0039765Y0049889D01*
X0039784Y0049571D01*
X0039796Y0049252D01*
X0039800Y0048933D01*
X0039796Y0048614D01*
X0039784Y0048295D01*
X0039765Y0047977D01*
X0039737Y0047659D01*
X0039702Y0047342D01*
X0039659Y0047026D01*
X0039609Y0046710D01*
X0039550Y0046397D01*
X0039484Y0046085D01*
X0039410Y0045774D01*
X0039329Y0045466D01*
X0039240Y0045159D01*
X0039144Y0044855D01*
X0039040Y0044553D01*
X0038929Y0044254D01*
X0038810Y0043958D01*
X0038685Y0043665D01*
X0038552Y0043375D01*
X0038412Y0043088D01*
X0038265Y0042805D01*
X0038111Y0042525D01*
X0037950Y0042250D01*
X0037783Y0041978D01*
X0037609Y0041711D01*
X0037429Y0041447D01*
X0037242Y0041189D01*
X0037049Y0040935D01*
X0036849Y0040686D01*
X0036644Y0040442D01*
X0036432Y0040203D01*
X0036215Y0039969D01*
X0035992Y0039741D01*
X0035764Y0039518D01*
X0035530Y0039301D01*
X0035291Y0039089D01*
X0035047Y0038884D01*
X0034798Y0038684D01*
X0034544Y0038491D01*
X0034286Y0038304D01*
X0034022Y0038124D01*
X0033755Y0037950D01*
X0033483Y0037783D01*
X0033208Y0037622D01*
X0032928Y0037468D01*
X0032645Y0037321D01*
X0032358Y0037181D01*
X0032068Y0037048D01*
X0031775Y0036923D01*
X0031479Y0036804D01*
X0031180Y0036693D01*
X0030878Y0036589D01*
X0030574Y0036493D01*
X0030267Y0036404D01*
X0029959Y0036323D01*
X0029648Y0036249D01*
X0029336Y0036183D01*
X0029023Y0036124D01*
X0028707Y0036074D01*
X0028391Y0036031D01*
X0028074Y0035996D01*
X0027756Y0035968D01*
X0027438Y0035949D01*
X0027119Y0035937D01*
X0026800Y0035933D01*
X0026481Y0035937D01*
X0026162Y0035949D01*
X0025844Y0035968D01*
X0025526Y0035996D01*
X0025209Y0036031D01*
X0024893Y0036074D01*
X0024577Y0036124D01*
X0024264Y0036183D01*
X0023952Y0036249D01*
X0023641Y0036323D01*
X0023333Y0036404D01*
X0023026Y0036493D01*
X0022722Y0036589D01*
X0022420Y0036693D01*
X0022121Y0036804D01*
X0021825Y0036923D01*
X0021532Y0037048D01*
X0021242Y0037181D01*
X0020955Y0037321D01*
X0020672Y0037468D01*
X0020392Y0037622D01*
X0020117Y0037783D01*
X0019845Y0037950D01*
X0019578Y0038124D01*
X0019314Y0038304D01*
X0019056Y0038491D01*
X0018802Y0038684D01*
X0018553Y0038884D01*
X0018309Y0039089D01*
X0018070Y0039301D01*
X0017836Y0039518D01*
X0017608Y0039741D01*
X0017385Y0039969D01*
X0017168Y0040203D01*
X0016956Y0040442D01*
X0016751Y0040686D01*
X0016551Y0040935D01*
X0016358Y0041189D01*
X0016171Y0041447D01*
X0015991Y0041711D01*
X0015817Y0041978D01*
X0015650Y0042250D01*
X0015489Y0042525D01*
X0015335Y0042805D01*
X0015188Y0043088D01*
X0015048Y0043375D01*
X0014915Y0043665D01*
X0014790Y0043958D01*
X0014671Y0044254D01*
X0014560Y0044553D01*
X0014456Y0044855D01*
X0014360Y0045159D01*
X0014271Y0045466D01*
X0014190Y0045774D01*
X0014116Y0046085D01*
X0014050Y0046397D01*
X0013991Y0046710D01*
X0013941Y0047026D01*
X0013898Y0047342D01*
X0013863Y0047659D01*
X0013835Y0047977D01*
X0013816Y0048295D01*
X0013804Y0048614D01*
X0013800Y0048933D01*
X0001800Y0048933D02*
X0001807Y0048329D01*
X0001829Y0047725D01*
X0001866Y0047122D01*
X0001917Y0046520D01*
X0001982Y0045920D01*
X0002062Y0045321D01*
X0002157Y0044724D01*
X0002266Y0044130D01*
X0002389Y0043538D01*
X0002526Y0042950D01*
X0002678Y0042365D01*
X0002844Y0041784D01*
X0003024Y0041208D01*
X0003217Y0040635D01*
X0003425Y0040068D01*
X0003646Y0039506D01*
X0003880Y0038949D01*
X0004128Y0038398D01*
X0004389Y0037853D01*
X0004664Y0037315D01*
X0004951Y0036783D01*
X0005251Y0036259D01*
X0005563Y0035742D01*
X0005888Y0035233D01*
X0006225Y0034731D01*
X0006575Y0034238D01*
X0006936Y0033754D01*
X0007308Y0033278D01*
X0007692Y0032812D01*
X0008087Y0032355D01*
X0008493Y0031908D01*
X0008910Y0031470D01*
X0009337Y0031043D01*
X0009775Y0030626D01*
X0010222Y0030220D01*
X0010679Y0029825D01*
X0011145Y0029441D01*
X0011621Y0029069D01*
X0012105Y0028708D01*
X0012598Y0028358D01*
X0013100Y0028021D01*
X0013609Y0027696D01*
X0014126Y0027384D01*
X0014650Y0027084D01*
X0015182Y0026797D01*
X0015720Y0026522D01*
X0016265Y0026261D01*
X0016816Y0026013D01*
X0017373Y0025779D01*
X0017935Y0025558D01*
X0018502Y0025350D01*
X0019075Y0025157D01*
X0019651Y0024977D01*
X0020232Y0024811D01*
X0020817Y0024659D01*
X0021405Y0024522D01*
X0021997Y0024399D01*
X0022591Y0024290D01*
X0023188Y0024195D01*
X0023787Y0024115D01*
X0024387Y0024050D01*
X0024989Y0023999D01*
X0025592Y0023962D01*
X0026196Y0023940D01*
X0026800Y0023933D01*
X0001800Y0298933D02*
X0001807Y0299537D01*
X0001829Y0300141D01*
X0001866Y0300744D01*
X0001917Y0301346D01*
X0001982Y0301946D01*
X0002062Y0302545D01*
X0002157Y0303142D01*
X0002266Y0303736D01*
X0002389Y0304328D01*
X0002526Y0304916D01*
X0002678Y0305501D01*
X0002844Y0306082D01*
X0003024Y0306658D01*
X0003217Y0307231D01*
X0003425Y0307798D01*
X0003646Y0308360D01*
X0003880Y0308917D01*
X0004128Y0309468D01*
X0004389Y0310013D01*
X0004664Y0310551D01*
X0004951Y0311083D01*
X0005251Y0311607D01*
X0005563Y0312124D01*
X0005888Y0312633D01*
X0006225Y0313135D01*
X0006575Y0313628D01*
X0006936Y0314112D01*
X0007308Y0314588D01*
X0007692Y0315054D01*
X0008087Y0315511D01*
X0008493Y0315958D01*
X0008910Y0316396D01*
X0009337Y0316823D01*
X0009775Y0317240D01*
X0010222Y0317646D01*
X0010679Y0318041D01*
X0011145Y0318425D01*
X0011621Y0318797D01*
X0012105Y0319158D01*
X0012598Y0319508D01*
X0013100Y0319845D01*
X0013609Y0320170D01*
X0014126Y0320482D01*
X0014650Y0320782D01*
X0015182Y0321069D01*
X0015720Y0321344D01*
X0016265Y0321605D01*
X0016816Y0321853D01*
X0017373Y0322087D01*
X0017935Y0322308D01*
X0018502Y0322516D01*
X0019075Y0322709D01*
X0019651Y0322889D01*
X0020232Y0323055D01*
X0020817Y0323207D01*
X0021405Y0323344D01*
X0021997Y0323467D01*
X0022591Y0323576D01*
X0023188Y0323671D01*
X0023787Y0323751D01*
X0024387Y0323816D01*
X0024989Y0323867D01*
X0025592Y0323904D01*
X0026196Y0323926D01*
X0026800Y0323933D01*
D11*
X0044975Y0289752D02*
X0055784Y0289752D01*
X0059387Y0286148D01*
X0059387Y0282545D01*
X0055784Y0278942D01*
X0044975Y0278942D01*
X0044975Y0268133D02*
X0055784Y0268133D01*
X0059387Y0271736D01*
X0059387Y0275339D01*
X0055784Y0278942D01*
X0068363Y0282545D02*
X0071966Y0282545D01*
X0071966Y0268133D01*
X0068363Y0268133D02*
X0075569Y0268133D01*
X0083955Y0268133D02*
X0083955Y0282545D01*
X0083955Y0275339D02*
X0091161Y0282545D01*
X0094764Y0282545D01*
X0103445Y0282545D02*
X0110651Y0282545D01*
X0107048Y0286148D02*
X0107048Y0271736D01*
X0110651Y0268133D01*
X0119037Y0268133D02*
X0119037Y0289752D01*
X0122640Y0282545D02*
X0129846Y0282545D01*
X0133449Y0278942D01*
X0133449Y0268133D01*
X0119037Y0278942D02*
X0122640Y0282545D01*
X0071966Y0289752D02*
X0071966Y0293355D01*
X0044975Y0289752D02*
X0044975Y0268133D01*
X0249128Y0268133D02*
X0259937Y0268133D01*
X0263540Y0271736D01*
X0263540Y0286148D01*
X0259937Y0289752D01*
X0249128Y0289752D01*
X0249128Y0268133D01*
X0272516Y0271736D02*
X0272516Y0278942D01*
X0276119Y0282545D01*
X0283325Y0282545D01*
X0286928Y0278942D01*
X0286928Y0275339D01*
X0272516Y0275339D01*
X0272516Y0271736D02*
X0276119Y0268133D01*
X0283325Y0268133D01*
X0295904Y0271736D02*
X0299507Y0275339D01*
X0310316Y0275339D01*
X0310316Y0278942D02*
X0310316Y0268133D01*
X0299507Y0268133D01*
X0295904Y0271736D01*
X0299507Y0282545D02*
X0306713Y0282545D01*
X0310316Y0278942D01*
X0319292Y0282545D02*
X0326498Y0282545D01*
X0322895Y0286148D02*
X0322895Y0271736D01*
X0326498Y0268133D01*
X0334884Y0268133D02*
X0334884Y0289752D01*
X0338487Y0282545D02*
X0345693Y0282545D01*
X0349296Y0278942D01*
X0349296Y0268133D01*
X0334884Y0278942D02*
X0338487Y0282545D01*
D12*
X0346034Y0256888D02*
X0346034Y0250983D01*
X0343081Y0250983D01*
X0342097Y0251967D01*
X0342097Y0253936D01*
X0343081Y0254920D01*
X0346034Y0254920D01*
X0339588Y0253936D02*
X0339588Y0250983D01*
X0339588Y0253936D02*
X0338604Y0254920D01*
X0335652Y0254920D01*
X0335652Y0250983D01*
X0333143Y0251967D02*
X0333143Y0253936D01*
X0332159Y0254920D01*
X0330190Y0254920D01*
X0329206Y0253936D01*
X0329206Y0251967D01*
X0330190Y0250983D01*
X0332159Y0250983D01*
X0333143Y0251967D01*
X0326697Y0250983D02*
X0323745Y0250983D01*
X0322761Y0251967D01*
X0322761Y0253936D01*
X0323745Y0254920D01*
X0326697Y0254920D01*
X0320252Y0253936D02*
X0320252Y0252951D01*
X0316315Y0252951D01*
X0316315Y0251967D02*
X0316315Y0253936D01*
X0317299Y0254920D01*
X0319268Y0254920D01*
X0320252Y0253936D01*
X0319268Y0250983D02*
X0317299Y0250983D01*
X0316315Y0251967D01*
X0313806Y0251967D02*
X0312822Y0252951D01*
X0310854Y0252951D01*
X0309870Y0253936D01*
X0310854Y0254920D01*
X0313806Y0254920D01*
X0313806Y0251967D02*
X0312822Y0250983D01*
X0309870Y0250983D01*
X0301005Y0254920D02*
X0300021Y0254920D01*
X0298053Y0252951D01*
X0298053Y0250983D02*
X0298053Y0254920D01*
X0295544Y0253936D02*
X0295544Y0252951D01*
X0291607Y0252951D01*
X0291607Y0251967D02*
X0291607Y0253936D01*
X0292592Y0254920D01*
X0294560Y0254920D01*
X0295544Y0253936D01*
X0294560Y0250983D02*
X0292592Y0250983D01*
X0291607Y0251967D01*
X0289099Y0251967D02*
X0288114Y0250983D01*
X0285162Y0250983D01*
X0285162Y0249015D02*
X0285162Y0254920D01*
X0288114Y0254920D01*
X0289099Y0253936D01*
X0289099Y0251967D01*
X0276208Y0251967D02*
X0275223Y0250983D01*
X0273255Y0250983D01*
X0272271Y0251967D01*
X0272271Y0252951D01*
X0273255Y0253936D01*
X0275223Y0253936D01*
X0276208Y0252951D01*
X0276208Y0251967D01*
X0275223Y0253936D02*
X0276208Y0254920D01*
X0276208Y0255904D01*
X0275223Y0256888D01*
X0273255Y0256888D01*
X0272271Y0255904D01*
X0272271Y0254920D01*
X0273255Y0253936D01*
X0269762Y0255904D02*
X0265825Y0251967D01*
X0265825Y0250983D01*
X0263587Y0250983D02*
X0262603Y0250983D01*
X0262603Y0251967D01*
X0263587Y0251967D01*
X0263587Y0250983D01*
X0260094Y0250983D02*
X0256157Y0250983D01*
X0258126Y0250983D02*
X0258126Y0256888D01*
X0256157Y0254920D01*
X0265825Y0256888D02*
X0269762Y0256888D01*
X0269762Y0255904D01*
X0132811Y0256888D02*
X0132811Y0250983D01*
X0129859Y0250983D01*
X0128874Y0251967D01*
X0128874Y0253936D01*
X0129859Y0254920D01*
X0132811Y0254920D01*
X0126366Y0253936D02*
X0126366Y0250983D01*
X0126366Y0253936D02*
X0125381Y0254920D01*
X0122429Y0254920D01*
X0122429Y0250983D01*
X0119920Y0251967D02*
X0119920Y0253936D01*
X0118936Y0254920D01*
X0116968Y0254920D01*
X0115983Y0253936D01*
X0115983Y0251967D01*
X0116968Y0250983D01*
X0118936Y0250983D01*
X0119920Y0251967D01*
X0113475Y0250983D02*
X0110522Y0250983D01*
X0109538Y0251967D01*
X0109538Y0253936D01*
X0110522Y0254920D01*
X0113475Y0254920D01*
X0107029Y0253936D02*
X0107029Y0252951D01*
X0103092Y0252951D01*
X0103092Y0251967D02*
X0103092Y0253936D01*
X0104077Y0254920D01*
X0106045Y0254920D01*
X0107029Y0253936D01*
X0106045Y0250983D02*
X0104077Y0250983D01*
X0103092Y0251967D01*
X0100584Y0251967D02*
X0099599Y0252951D01*
X0097631Y0252951D01*
X0096647Y0253936D01*
X0097631Y0254920D01*
X0100584Y0254920D01*
X0100584Y0251967D02*
X0099599Y0250983D01*
X0096647Y0250983D01*
X0087783Y0254920D02*
X0086799Y0254920D01*
X0084830Y0252951D01*
X0084830Y0250983D02*
X0084830Y0254920D01*
X0082321Y0253936D02*
X0082321Y0252951D01*
X0078385Y0252951D01*
X0078385Y0251967D02*
X0078385Y0253936D01*
X0079369Y0254920D01*
X0081337Y0254920D01*
X0082321Y0253936D01*
X0081337Y0250983D02*
X0079369Y0250983D01*
X0078385Y0251967D01*
X0075876Y0251967D02*
X0074892Y0250983D01*
X0071939Y0250983D01*
X0071939Y0249015D02*
X0071939Y0254920D01*
X0074892Y0254920D01*
X0075876Y0253936D01*
X0075876Y0251967D01*
X0062985Y0251967D02*
X0062001Y0250983D01*
X0060032Y0250983D01*
X0059048Y0251967D01*
X0056810Y0251967D02*
X0056810Y0250983D01*
X0055825Y0250983D01*
X0055825Y0251967D01*
X0056810Y0251967D01*
X0053317Y0253936D02*
X0049380Y0253936D01*
X0052332Y0256888D01*
X0052332Y0250983D01*
X0059048Y0255904D02*
X0060032Y0256888D01*
X0062001Y0256888D01*
X0062985Y0255904D01*
X0062985Y0254920D01*
X0062001Y0253936D01*
X0062985Y0252951D01*
X0062985Y0251967D01*
X0062001Y0253936D02*
X0061017Y0253936D01*
X0227313Y0083538D02*
X0231250Y0083538D01*
X0228297Y0083538D02*
X0228297Y0079602D01*
X0227313Y0079602D02*
X0225345Y0081570D01*
X0227313Y0083538D01*
X0227313Y0079602D02*
X0231250Y0079602D01*
X0231250Y0077093D02*
X0228297Y0077093D01*
X0227313Y0076109D01*
X0228297Y0075124D01*
X0231250Y0075124D01*
X0231250Y0073156D02*
X0227313Y0073156D01*
X0227313Y0074140D01*
X0228297Y0075124D01*
X0226329Y0070647D02*
X0230266Y0066711D01*
X0231250Y0067695D01*
X0231250Y0069663D01*
X0230266Y0070647D01*
X0226329Y0070647D01*
X0225345Y0069663D01*
X0225345Y0067695D01*
X0226329Y0066711D01*
X0230266Y0066711D01*
X0230266Y0064202D02*
X0226329Y0064202D01*
X0230266Y0060265D01*
X0231250Y0061249D01*
X0231250Y0063218D01*
X0230266Y0064202D01*
X0226329Y0064202D02*
X0225345Y0063218D01*
X0225345Y0061249D01*
X0226329Y0060265D01*
X0230266Y0060265D01*
X0231250Y0057756D02*
X0231250Y0053820D01*
X0227313Y0057756D01*
X0226329Y0057756D01*
X0225345Y0056772D01*
X0225345Y0054804D01*
X0226329Y0053820D01*
X0225345Y0044865D02*
X0229282Y0044865D01*
X0231250Y0042897D01*
X0229282Y0040929D01*
X0225345Y0040929D01*
X0225345Y0038420D02*
X0225345Y0034483D01*
X0228297Y0034483D01*
X0227313Y0036451D01*
X0227313Y0037436D01*
X0228297Y0038420D01*
X0230266Y0038420D01*
X0231250Y0037436D01*
X0231250Y0035467D01*
X0230266Y0034483D01*
X0310122Y0035983D02*
X0310122Y0041888D01*
X0313075Y0041888D01*
X0314059Y0040904D01*
X0314059Y0038936D01*
X0313075Y0037951D01*
X0310122Y0037951D01*
X0312091Y0037951D02*
X0314059Y0035983D01*
X0316568Y0036967D02*
X0316568Y0038936D01*
X0317552Y0039920D01*
X0319520Y0039920D01*
X0320505Y0038936D01*
X0320505Y0037951D01*
X0316568Y0037951D01*
X0316568Y0036967D02*
X0317552Y0035983D01*
X0319520Y0035983D01*
X0323013Y0039920D02*
X0324982Y0035983D01*
X0326950Y0039920D01*
X0335904Y0039920D02*
X0337873Y0041888D01*
X0337873Y0035983D01*
X0339841Y0035983D02*
X0335904Y0035983D01*
X0105702Y0035983D02*
X0102750Y0035983D01*
X0101765Y0036967D01*
X0102750Y0037951D01*
X0105702Y0037951D01*
X0105702Y0038936D02*
X0105702Y0035983D01*
X0105702Y0038936D02*
X0104718Y0039920D01*
X0102750Y0039920D01*
X0099437Y0039920D02*
X0097468Y0039920D01*
X0098453Y0040904D02*
X0098453Y0036967D01*
X0099437Y0035983D01*
X0094960Y0035983D02*
X0092007Y0035983D01*
X0091023Y0036967D01*
X0092007Y0037951D01*
X0094960Y0037951D01*
X0094960Y0038936D02*
X0094960Y0035983D01*
X0094960Y0038936D02*
X0093976Y0039920D01*
X0092007Y0039920D01*
X0088514Y0040904D02*
X0088514Y0036967D01*
X0087530Y0035983D01*
X0084577Y0035983D01*
X0084577Y0041888D01*
X0087530Y0041888D01*
X0088514Y0040904D01*
X0075623Y0041888D02*
X0073655Y0040904D01*
X0071686Y0038936D01*
X0074639Y0038936D01*
X0075623Y0037951D01*
X0075623Y0036967D01*
X0074639Y0035983D01*
X0072671Y0035983D01*
X0071686Y0036967D01*
X0071686Y0038936D01*
X0069178Y0035983D02*
X0065241Y0035983D01*
X0067209Y0035983D02*
X0067209Y0041888D01*
X0065241Y0039920D01*
X0062732Y0040904D02*
X0058795Y0036967D01*
X0059780Y0035983D01*
X0061748Y0035983D01*
X0062732Y0036967D01*
X0062732Y0040904D01*
X0061748Y0041888D01*
X0059780Y0041888D01*
X0058795Y0040904D01*
X0058795Y0036967D01*
X0056287Y0035983D02*
X0052350Y0035983D01*
X0056287Y0039920D01*
X0056287Y0040904D01*
X0055303Y0041888D01*
X0053334Y0041888D01*
X0052350Y0040904D01*
D13*
X0166800Y0268933D02*
X0166809Y0269669D01*
X0166836Y0270405D01*
X0166881Y0271140D01*
X0166944Y0271874D01*
X0167026Y0272605D01*
X0167125Y0273335D01*
X0167242Y0274062D01*
X0167376Y0274786D01*
X0167529Y0275506D01*
X0167699Y0276222D01*
X0167887Y0276934D01*
X0168092Y0277642D01*
X0168314Y0278343D01*
X0168554Y0279040D01*
X0168810Y0279730D01*
X0169084Y0280414D01*
X0169374Y0281090D01*
X0169680Y0281760D01*
X0170003Y0282421D01*
X0170342Y0283075D01*
X0170697Y0283720D01*
X0171068Y0284356D01*
X0171454Y0284983D01*
X0171856Y0285600D01*
X0172272Y0286207D01*
X0172704Y0286804D01*
X0173150Y0287390D01*
X0173610Y0287965D01*
X0174084Y0288528D01*
X0174571Y0289080D01*
X0175073Y0289619D01*
X0175587Y0290146D01*
X0176114Y0290660D01*
X0176653Y0291162D01*
X0177205Y0291649D01*
X0177768Y0292123D01*
X0178343Y0292583D01*
X0178929Y0293029D01*
X0179526Y0293461D01*
X0180133Y0293877D01*
X0180750Y0294279D01*
X0181377Y0294665D01*
X0182013Y0295036D01*
X0182658Y0295391D01*
X0183312Y0295730D01*
X0183973Y0296053D01*
X0184643Y0296359D01*
X0185319Y0296649D01*
X0186003Y0296923D01*
X0186693Y0297179D01*
X0187390Y0297419D01*
X0188091Y0297641D01*
X0188799Y0297846D01*
X0189511Y0298034D01*
X0190227Y0298204D01*
X0190947Y0298357D01*
X0191671Y0298491D01*
X0192398Y0298608D01*
X0193128Y0298707D01*
X0193859Y0298789D01*
X0194593Y0298852D01*
X0195328Y0298897D01*
X0196064Y0298924D01*
X0196800Y0298933D01*
X0197536Y0298924D01*
X0198272Y0298897D01*
X0199007Y0298852D01*
X0199741Y0298789D01*
X0200472Y0298707D01*
X0201202Y0298608D01*
X0201929Y0298491D01*
X0202653Y0298357D01*
X0203373Y0298204D01*
X0204089Y0298034D01*
X0204801Y0297846D01*
X0205509Y0297641D01*
X0206210Y0297419D01*
X0206907Y0297179D01*
X0207597Y0296923D01*
X0208281Y0296649D01*
X0208957Y0296359D01*
X0209627Y0296053D01*
X0210288Y0295730D01*
X0210942Y0295391D01*
X0211587Y0295036D01*
X0212223Y0294665D01*
X0212850Y0294279D01*
X0213467Y0293877D01*
X0214074Y0293461D01*
X0214671Y0293029D01*
X0215257Y0292583D01*
X0215832Y0292123D01*
X0216395Y0291649D01*
X0216947Y0291162D01*
X0217486Y0290660D01*
X0218013Y0290146D01*
X0218527Y0289619D01*
X0219029Y0289080D01*
X0219516Y0288528D01*
X0219990Y0287965D01*
X0220450Y0287390D01*
X0220896Y0286804D01*
X0221328Y0286207D01*
X0221744Y0285600D01*
X0222146Y0284983D01*
X0222532Y0284356D01*
X0222903Y0283720D01*
X0223258Y0283075D01*
X0223597Y0282421D01*
X0223920Y0281760D01*
X0224226Y0281090D01*
X0224516Y0280414D01*
X0224790Y0279730D01*
X0225046Y0279040D01*
X0225286Y0278343D01*
X0225508Y0277642D01*
X0225713Y0276934D01*
X0225901Y0276222D01*
X0226071Y0275506D01*
X0226224Y0274786D01*
X0226358Y0274062D01*
X0226475Y0273335D01*
X0226574Y0272605D01*
X0226656Y0271874D01*
X0226719Y0271140D01*
X0226764Y0270405D01*
X0226791Y0269669D01*
X0226800Y0268933D01*
X0226791Y0268197D01*
X0226764Y0267461D01*
X0226719Y0266726D01*
X0226656Y0265992D01*
X0226574Y0265261D01*
X0226475Y0264531D01*
X0226358Y0263804D01*
X0226224Y0263080D01*
X0226071Y0262360D01*
X0225901Y0261644D01*
X0225713Y0260932D01*
X0225508Y0260224D01*
X0225286Y0259523D01*
X0225046Y0258826D01*
X0224790Y0258136D01*
X0224516Y0257452D01*
X0224226Y0256776D01*
X0223920Y0256106D01*
X0223597Y0255445D01*
X0223258Y0254791D01*
X0222903Y0254146D01*
X0222532Y0253510D01*
X0222146Y0252883D01*
X0221744Y0252266D01*
X0221328Y0251659D01*
X0220896Y0251062D01*
X0220450Y0250476D01*
X0219990Y0249901D01*
X0219516Y0249338D01*
X0219029Y0248786D01*
X0218527Y0248247D01*
X0218013Y0247720D01*
X0217486Y0247206D01*
X0216947Y0246704D01*
X0216395Y0246217D01*
X0215832Y0245743D01*
X0215257Y0245283D01*
X0214671Y0244837D01*
X0214074Y0244405D01*
X0213467Y0243989D01*
X0212850Y0243587D01*
X0212223Y0243201D01*
X0211587Y0242830D01*
X0210942Y0242475D01*
X0210288Y0242136D01*
X0209627Y0241813D01*
X0208957Y0241507D01*
X0208281Y0241217D01*
X0207597Y0240943D01*
X0206907Y0240687D01*
X0206210Y0240447D01*
X0205509Y0240225D01*
X0204801Y0240020D01*
X0204089Y0239832D01*
X0203373Y0239662D01*
X0202653Y0239509D01*
X0201929Y0239375D01*
X0201202Y0239258D01*
X0200472Y0239159D01*
X0199741Y0239077D01*
X0199007Y0239014D01*
X0198272Y0238969D01*
X0197536Y0238942D01*
X0196800Y0238933D01*
X0196064Y0238942D01*
X0195328Y0238969D01*
X0194593Y0239014D01*
X0193859Y0239077D01*
X0193128Y0239159D01*
X0192398Y0239258D01*
X0191671Y0239375D01*
X0190947Y0239509D01*
X0190227Y0239662D01*
X0189511Y0239832D01*
X0188799Y0240020D01*
X0188091Y0240225D01*
X0187390Y0240447D01*
X0186693Y0240687D01*
X0186003Y0240943D01*
X0185319Y0241217D01*
X0184643Y0241507D01*
X0183973Y0241813D01*
X0183312Y0242136D01*
X0182658Y0242475D01*
X0182013Y0242830D01*
X0181377Y0243201D01*
X0180750Y0243587D01*
X0180133Y0243989D01*
X0179526Y0244405D01*
X0178929Y0244837D01*
X0178343Y0245283D01*
X0177768Y0245743D01*
X0177205Y0246217D01*
X0176653Y0246704D01*
X0176114Y0247206D01*
X0175587Y0247720D01*
X0175073Y0248247D01*
X0174571Y0248786D01*
X0174084Y0249338D01*
X0173610Y0249901D01*
X0173150Y0250476D01*
X0172704Y0251062D01*
X0172272Y0251659D01*
X0171856Y0252266D01*
X0171454Y0252883D01*
X0171068Y0253510D01*
X0170697Y0254146D01*
X0170342Y0254791D01*
X0170003Y0255445D01*
X0169680Y0256106D01*
X0169374Y0256776D01*
X0169084Y0257452D01*
X0168810Y0258136D01*
X0168554Y0258826D01*
X0168314Y0259523D01*
X0168092Y0260224D01*
X0167887Y0260932D01*
X0167699Y0261644D01*
X0167529Y0262360D01*
X0167376Y0263080D01*
X0167242Y0263804D01*
X0167125Y0264531D01*
X0167026Y0265261D01*
X0166944Y0265992D01*
X0166881Y0266726D01*
X0166836Y0267461D01*
X0166809Y0268197D01*
X0166800Y0268933D01*
D14*
X0171800Y0268933D01*
X0196800Y0268933D02*
X0196800Y0288933D01*
X0196800Y0293933D02*
X0196800Y0298933D01*
X0196800Y0268933D02*
X0206800Y0258933D01*
X0221800Y0268933D02*
X0226800Y0268933D01*
X0196800Y0243933D02*
X0196800Y0238933D01*
D15*
X0188300Y0218933D02*
X0205300Y0218933D01*
X0205360Y0218931D01*
X0205421Y0218926D01*
X0205480Y0218917D01*
X0205539Y0218904D01*
X0205598Y0218888D01*
X0205655Y0218868D01*
X0205710Y0218845D01*
X0205765Y0218818D01*
X0205817Y0218789D01*
X0205868Y0218756D01*
X0205917Y0218720D01*
X0205963Y0218682D01*
X0206007Y0218640D01*
X0206049Y0218596D01*
X0206087Y0218550D01*
X0206123Y0218501D01*
X0206156Y0218450D01*
X0206185Y0218398D01*
X0206212Y0218343D01*
X0206235Y0218288D01*
X0206255Y0218231D01*
X0206271Y0218172D01*
X0206284Y0218113D01*
X0206293Y0218054D01*
X0206298Y0217993D01*
X0206300Y0217933D01*
X0206300Y0209933D01*
X0206298Y0209873D01*
X0206293Y0209812D01*
X0206284Y0209753D01*
X0206271Y0209694D01*
X0206255Y0209635D01*
X0206235Y0209578D01*
X0206212Y0209523D01*
X0206185Y0209468D01*
X0206156Y0209416D01*
X0206123Y0209365D01*
X0206087Y0209316D01*
X0206049Y0209270D01*
X0206007Y0209226D01*
X0205963Y0209184D01*
X0205917Y0209146D01*
X0205868Y0209110D01*
X0205817Y0209077D01*
X0205765Y0209048D01*
X0205710Y0209021D01*
X0205655Y0208998D01*
X0205598Y0208978D01*
X0205539Y0208962D01*
X0205480Y0208949D01*
X0205421Y0208940D01*
X0205360Y0208935D01*
X0205300Y0208933D01*
X0188300Y0208933D01*
X0188240Y0208935D01*
X0188179Y0208940D01*
X0188120Y0208949D01*
X0188061Y0208962D01*
X0188002Y0208978D01*
X0187945Y0208998D01*
X0187890Y0209021D01*
X0187835Y0209048D01*
X0187783Y0209077D01*
X0187732Y0209110D01*
X0187683Y0209146D01*
X0187637Y0209184D01*
X0187593Y0209226D01*
X0187551Y0209270D01*
X0187513Y0209316D01*
X0187477Y0209365D01*
X0187444Y0209416D01*
X0187415Y0209468D01*
X0187388Y0209523D01*
X0187365Y0209578D01*
X0187345Y0209635D01*
X0187329Y0209694D01*
X0187316Y0209753D01*
X0187307Y0209812D01*
X0187302Y0209873D01*
X0187300Y0209933D01*
X0187300Y0217933D01*
X0187302Y0217993D01*
X0187307Y0218054D01*
X0187316Y0218113D01*
X0187329Y0218172D01*
X0187345Y0218231D01*
X0187365Y0218288D01*
X0187388Y0218343D01*
X0187415Y0218398D01*
X0187444Y0218450D01*
X0187477Y0218501D01*
X0187513Y0218550D01*
X0187551Y0218596D01*
X0187593Y0218640D01*
X0187637Y0218682D01*
X0187683Y0218720D01*
X0187732Y0218756D01*
X0187783Y0218789D01*
X0187835Y0218818D01*
X0187890Y0218845D01*
X0187945Y0218868D01*
X0188002Y0218888D01*
X0188061Y0218904D01*
X0188120Y0218917D01*
X0188179Y0218926D01*
X0188240Y0218931D01*
X0188300Y0218933D01*
X0195300Y0213933D02*
X0195800Y0213933D01*
X0197800Y0213933D02*
X0198300Y0213933D01*
X0200800Y0198933D02*
X0200798Y0198807D01*
X0200792Y0198682D01*
X0200782Y0198557D01*
X0200768Y0198432D01*
X0200751Y0198307D01*
X0200729Y0198183D01*
X0200704Y0198060D01*
X0200674Y0197938D01*
X0200641Y0197817D01*
X0200604Y0197697D01*
X0200564Y0197578D01*
X0200519Y0197461D01*
X0200471Y0197344D01*
X0200419Y0197230D01*
X0200364Y0197117D01*
X0200305Y0197006D01*
X0200243Y0196897D01*
X0200177Y0196790D01*
X0200108Y0196685D01*
X0200036Y0196582D01*
X0199961Y0196481D01*
X0199882Y0196383D01*
X0199800Y0196288D01*
X0199716Y0196195D01*
X0199628Y0196105D01*
X0199538Y0196017D01*
X0199445Y0195933D01*
X0199350Y0195851D01*
X0199252Y0195772D01*
X0199151Y0195697D01*
X0199048Y0195625D01*
X0198943Y0195556D01*
X0198836Y0195490D01*
X0198727Y0195428D01*
X0198616Y0195369D01*
X0198503Y0195314D01*
X0198389Y0195262D01*
X0198272Y0195214D01*
X0198155Y0195169D01*
X0198036Y0195129D01*
X0197916Y0195092D01*
X0197795Y0195059D01*
X0197673Y0195029D01*
X0197550Y0195004D01*
X0197426Y0194982D01*
X0197301Y0194965D01*
X0197176Y0194951D01*
X0197051Y0194941D01*
X0196926Y0194935D01*
X0196800Y0194933D01*
X0196674Y0194935D01*
X0196549Y0194941D01*
X0196424Y0194951D01*
X0196299Y0194965D01*
X0196174Y0194982D01*
X0196050Y0195004D01*
X0195927Y0195029D01*
X0195805Y0195059D01*
X0195684Y0195092D01*
X0195564Y0195129D01*
X0195445Y0195169D01*
X0195328Y0195214D01*
X0195211Y0195262D01*
X0195097Y0195314D01*
X0194984Y0195369D01*
X0194873Y0195428D01*
X0194764Y0195490D01*
X0194657Y0195556D01*
X0194552Y0195625D01*
X0194449Y0195697D01*
X0194348Y0195772D01*
X0194250Y0195851D01*
X0194155Y0195933D01*
X0194062Y0196017D01*
X0193972Y0196105D01*
X0193884Y0196195D01*
X0193800Y0196288D01*
X0193718Y0196383D01*
X0193639Y0196481D01*
X0193564Y0196582D01*
X0193492Y0196685D01*
X0193423Y0196790D01*
X0193357Y0196897D01*
X0193295Y0197006D01*
X0193236Y0197117D01*
X0193181Y0197230D01*
X0193129Y0197344D01*
X0193081Y0197461D01*
X0193036Y0197578D01*
X0192996Y0197697D01*
X0192959Y0197817D01*
X0192926Y0197938D01*
X0192896Y0198060D01*
X0192871Y0198183D01*
X0192849Y0198307D01*
X0192832Y0198432D01*
X0192818Y0198557D01*
X0192808Y0198682D01*
X0192802Y0198807D01*
X0192800Y0198933D01*
X0185300Y0198933D01*
X0185300Y0128933D01*
X0208300Y0128933D01*
X0208300Y0198933D01*
X0200800Y0198933D01*
X0239300Y0157433D02*
X0244300Y0157433D01*
X0244387Y0157431D01*
X0244474Y0157425D01*
X0244561Y0157416D01*
X0244647Y0157403D01*
X0244733Y0157386D01*
X0244818Y0157365D01*
X0244901Y0157340D01*
X0244984Y0157312D01*
X0245065Y0157281D01*
X0245145Y0157246D01*
X0245223Y0157207D01*
X0245300Y0157165D01*
X0245375Y0157120D01*
X0245447Y0157071D01*
X0245518Y0157020D01*
X0245586Y0156965D01*
X0245651Y0156908D01*
X0245714Y0156847D01*
X0245775Y0156784D01*
X0245832Y0156719D01*
X0245887Y0156651D01*
X0245938Y0156580D01*
X0245987Y0156508D01*
X0246032Y0156433D01*
X0246074Y0156356D01*
X0246113Y0156278D01*
X0246148Y0156198D01*
X0246179Y0156117D01*
X0246207Y0156034D01*
X0246232Y0155951D01*
X0246253Y0155866D01*
X0246270Y0155780D01*
X0246283Y0155694D01*
X0246292Y0155607D01*
X0246298Y0155520D01*
X0246300Y0155433D01*
X0246300Y0142433D01*
X0246298Y0142346D01*
X0246292Y0142259D01*
X0246283Y0142172D01*
X0246270Y0142086D01*
X0246253Y0142000D01*
X0246232Y0141915D01*
X0246207Y0141832D01*
X0246179Y0141749D01*
X0246148Y0141668D01*
X0246113Y0141588D01*
X0246074Y0141510D01*
X0246032Y0141433D01*
X0245987Y0141358D01*
X0245938Y0141286D01*
X0245887Y0141215D01*
X0245832Y0141147D01*
X0245775Y0141082D01*
X0245714Y0141019D01*
X0245651Y0140958D01*
X0245586Y0140901D01*
X0245518Y0140846D01*
X0245447Y0140795D01*
X0245375Y0140746D01*
X0245300Y0140701D01*
X0245223Y0140659D01*
X0245145Y0140620D01*
X0245065Y0140585D01*
X0244984Y0140554D01*
X0244901Y0140526D01*
X0244818Y0140501D01*
X0244733Y0140480D01*
X0244647Y0140463D01*
X0244561Y0140450D01*
X0244474Y0140441D01*
X0244387Y0140435D01*
X0244300Y0140433D01*
X0239300Y0140433D01*
X0239213Y0140435D01*
X0239126Y0140441D01*
X0239039Y0140450D01*
X0238953Y0140463D01*
X0238867Y0140480D01*
X0238782Y0140501D01*
X0238699Y0140526D01*
X0238616Y0140554D01*
X0238535Y0140585D01*
X0238455Y0140620D01*
X0238377Y0140659D01*
X0238300Y0140701D01*
X0238225Y0140746D01*
X0238153Y0140795D01*
X0238082Y0140846D01*
X0238014Y0140901D01*
X0237949Y0140958D01*
X0237886Y0141019D01*
X0237825Y0141082D01*
X0237768Y0141147D01*
X0237713Y0141215D01*
X0237662Y0141286D01*
X0237613Y0141358D01*
X0237568Y0141433D01*
X0237526Y0141510D01*
X0237487Y0141588D01*
X0237452Y0141668D01*
X0237421Y0141749D01*
X0237393Y0141832D01*
X0237368Y0141915D01*
X0237347Y0142000D01*
X0237330Y0142086D01*
X0237317Y0142172D01*
X0237308Y0142259D01*
X0237302Y0142346D01*
X0237300Y0142433D01*
X0237300Y0155433D01*
X0237302Y0155520D01*
X0237308Y0155607D01*
X0237317Y0155694D01*
X0237330Y0155780D01*
X0237347Y0155866D01*
X0237368Y0155951D01*
X0237393Y0156034D01*
X0237421Y0156117D01*
X0237452Y0156198D01*
X0237487Y0156278D01*
X0237526Y0156356D01*
X0237568Y0156433D01*
X0237613Y0156508D01*
X0237662Y0156580D01*
X0237713Y0156651D01*
X0237768Y0156719D01*
X0237825Y0156784D01*
X0237886Y0156847D01*
X0237949Y0156908D01*
X0238014Y0156965D01*
X0238082Y0157020D01*
X0238153Y0157071D01*
X0238225Y0157120D01*
X0238300Y0157165D01*
X0238377Y0157207D01*
X0238455Y0157246D01*
X0238535Y0157281D01*
X0238616Y0157312D01*
X0238699Y0157340D01*
X0238782Y0157365D01*
X0238867Y0157386D01*
X0238953Y0157403D01*
X0239039Y0157416D01*
X0239126Y0157425D01*
X0239213Y0157431D01*
X0239300Y0157433D01*
X0262300Y0157433D02*
X0262300Y0158933D01*
X0262800Y0159433D01*
X0262800Y0178433D01*
X0262300Y0178933D01*
X0262300Y0180433D01*
X0262302Y0180493D01*
X0262307Y0180554D01*
X0262316Y0180613D01*
X0262329Y0180672D01*
X0262345Y0180731D01*
X0262365Y0180788D01*
X0262388Y0180843D01*
X0262415Y0180898D01*
X0262444Y0180950D01*
X0262477Y0181001D01*
X0262513Y0181050D01*
X0262551Y0181096D01*
X0262593Y0181140D01*
X0262637Y0181182D01*
X0262683Y0181220D01*
X0262732Y0181256D01*
X0262783Y0181289D01*
X0262835Y0181318D01*
X0262890Y0181345D01*
X0262945Y0181368D01*
X0263002Y0181388D01*
X0263061Y0181404D01*
X0263120Y0181417D01*
X0263179Y0181426D01*
X0263240Y0181431D01*
X0263300Y0181433D01*
X0270300Y0181433D01*
X0270360Y0181431D01*
X0270421Y0181426D01*
X0270480Y0181417D01*
X0270539Y0181404D01*
X0270598Y0181388D01*
X0270655Y0181368D01*
X0270710Y0181345D01*
X0270765Y0181318D01*
X0270817Y0181289D01*
X0270868Y0181256D01*
X0270917Y0181220D01*
X0270963Y0181182D01*
X0271007Y0181140D01*
X0271049Y0181096D01*
X0271087Y0181050D01*
X0271123Y0181001D01*
X0271156Y0180950D01*
X0271185Y0180898D01*
X0271212Y0180843D01*
X0271235Y0180788D01*
X0271255Y0180731D01*
X0271271Y0180672D01*
X0271284Y0180613D01*
X0271293Y0180554D01*
X0271298Y0180493D01*
X0271300Y0180433D01*
X0271300Y0178933D01*
X0270800Y0178433D01*
X0270800Y0159433D01*
X0271300Y0158933D01*
X0271300Y0157433D01*
X0271298Y0157373D01*
X0271293Y0157312D01*
X0271284Y0157253D01*
X0271271Y0157194D01*
X0271255Y0157135D01*
X0271235Y0157078D01*
X0271212Y0157023D01*
X0271185Y0156968D01*
X0271156Y0156916D01*
X0271123Y0156865D01*
X0271087Y0156816D01*
X0271049Y0156770D01*
X0271007Y0156726D01*
X0270963Y0156684D01*
X0270917Y0156646D01*
X0270868Y0156610D01*
X0270817Y0156577D01*
X0270765Y0156548D01*
X0270710Y0156521D01*
X0270655Y0156498D01*
X0270598Y0156478D01*
X0270539Y0156462D01*
X0270480Y0156449D01*
X0270421Y0156440D01*
X0270360Y0156435D01*
X0270300Y0156433D01*
X0263300Y0156433D01*
X0263240Y0156435D01*
X0263179Y0156440D01*
X0263120Y0156449D01*
X0263061Y0156462D01*
X0263002Y0156478D01*
X0262945Y0156498D01*
X0262890Y0156521D01*
X0262835Y0156548D01*
X0262783Y0156577D01*
X0262732Y0156610D01*
X0262683Y0156646D01*
X0262637Y0156684D01*
X0262593Y0156726D01*
X0262551Y0156770D01*
X0262513Y0156816D01*
X0262477Y0156865D01*
X0262444Y0156916D01*
X0262415Y0156968D01*
X0262388Y0157023D01*
X0262365Y0157078D01*
X0262345Y0157135D01*
X0262329Y0157194D01*
X0262316Y0157253D01*
X0262307Y0157312D01*
X0262302Y0157373D01*
X0262300Y0157433D01*
X0258800Y0132933D02*
X0274800Y0132933D01*
X0274860Y0132931D01*
X0274921Y0132926D01*
X0274980Y0132917D01*
X0275039Y0132904D01*
X0275098Y0132888D01*
X0275155Y0132868D01*
X0275210Y0132845D01*
X0275265Y0132818D01*
X0275317Y0132789D01*
X0275368Y0132756D01*
X0275417Y0132720D01*
X0275463Y0132682D01*
X0275507Y0132640D01*
X0275549Y0132596D01*
X0275587Y0132550D01*
X0275623Y0132501D01*
X0275656Y0132450D01*
X0275685Y0132398D01*
X0275712Y0132343D01*
X0275735Y0132288D01*
X0275755Y0132231D01*
X0275771Y0132172D01*
X0275784Y0132113D01*
X0275793Y0132054D01*
X0275798Y0131993D01*
X0275800Y0131933D01*
X0275800Y0125933D01*
X0275798Y0125873D01*
X0275793Y0125812D01*
X0275784Y0125753D01*
X0275771Y0125694D01*
X0275755Y0125635D01*
X0275735Y0125578D01*
X0275712Y0125523D01*
X0275685Y0125468D01*
X0275656Y0125416D01*
X0275623Y0125365D01*
X0275587Y0125316D01*
X0275549Y0125270D01*
X0275507Y0125226D01*
X0275463Y0125184D01*
X0275417Y0125146D01*
X0275368Y0125110D01*
X0275317Y0125077D01*
X0275265Y0125048D01*
X0275210Y0125021D01*
X0275155Y0124998D01*
X0275098Y0124978D01*
X0275039Y0124962D01*
X0274980Y0124949D01*
X0274921Y0124940D01*
X0274860Y0124935D01*
X0274800Y0124933D01*
X0258800Y0124933D01*
X0258740Y0124935D01*
X0258679Y0124940D01*
X0258620Y0124949D01*
X0258561Y0124962D01*
X0258502Y0124978D01*
X0258445Y0124998D01*
X0258390Y0125021D01*
X0258335Y0125048D01*
X0258283Y0125077D01*
X0258232Y0125110D01*
X0258183Y0125146D01*
X0258137Y0125184D01*
X0258093Y0125226D01*
X0258051Y0125270D01*
X0258013Y0125316D01*
X0257977Y0125365D01*
X0257944Y0125416D01*
X0257915Y0125468D01*
X0257888Y0125523D01*
X0257865Y0125578D01*
X0257845Y0125635D01*
X0257829Y0125694D01*
X0257816Y0125753D01*
X0257807Y0125812D01*
X0257802Y0125873D01*
X0257800Y0125933D01*
X0257800Y0131933D01*
X0257802Y0131993D01*
X0257807Y0132054D01*
X0257816Y0132113D01*
X0257829Y0132172D01*
X0257845Y0132231D01*
X0257865Y0132288D01*
X0257888Y0132343D01*
X0257915Y0132398D01*
X0257944Y0132450D01*
X0257977Y0132501D01*
X0258013Y0132550D01*
X0258051Y0132596D01*
X0258093Y0132640D01*
X0258137Y0132682D01*
X0258183Y0132720D01*
X0258232Y0132756D01*
X0258283Y0132789D01*
X0258335Y0132818D01*
X0258390Y0132845D01*
X0258445Y0132868D01*
X0258502Y0132888D01*
X0258561Y0132904D01*
X0258620Y0132917D01*
X0258679Y0132926D01*
X0258740Y0132931D01*
X0258800Y0132933D01*
X0262800Y0131433D02*
X0266800Y0128933D01*
X0266800Y0131433D01*
X0266800Y0128933D02*
X0266800Y0126433D01*
X0266800Y0128933D02*
X0262800Y0126433D01*
X0262800Y0131433D01*
X0260800Y0128933D02*
X0266800Y0128933D01*
X0269300Y0128933D01*
X0283300Y0096433D02*
X0290300Y0096433D01*
X0290360Y0096431D01*
X0290421Y0096426D01*
X0290480Y0096417D01*
X0290539Y0096404D01*
X0290598Y0096388D01*
X0290655Y0096368D01*
X0290710Y0096345D01*
X0290765Y0096318D01*
X0290817Y0096289D01*
X0290868Y0096256D01*
X0290917Y0096220D01*
X0290963Y0096182D01*
X0291007Y0096140D01*
X0291049Y0096096D01*
X0291087Y0096050D01*
X0291123Y0096001D01*
X0291156Y0095950D01*
X0291185Y0095898D01*
X0291212Y0095843D01*
X0291235Y0095788D01*
X0291255Y0095731D01*
X0291271Y0095672D01*
X0291284Y0095613D01*
X0291293Y0095554D01*
X0291298Y0095493D01*
X0291300Y0095433D01*
X0291300Y0093933D01*
X0290800Y0093433D01*
X0290800Y0074433D01*
X0291300Y0073933D01*
X0291300Y0072433D01*
X0291298Y0072373D01*
X0291293Y0072312D01*
X0291284Y0072253D01*
X0291271Y0072194D01*
X0291255Y0072135D01*
X0291235Y0072078D01*
X0291212Y0072023D01*
X0291185Y0071968D01*
X0291156Y0071916D01*
X0291123Y0071865D01*
X0291087Y0071816D01*
X0291049Y0071770D01*
X0291007Y0071726D01*
X0290963Y0071684D01*
X0290917Y0071646D01*
X0290868Y0071610D01*
X0290817Y0071577D01*
X0290765Y0071548D01*
X0290710Y0071521D01*
X0290655Y0071498D01*
X0290598Y0071478D01*
X0290539Y0071462D01*
X0290480Y0071449D01*
X0290421Y0071440D01*
X0290360Y0071435D01*
X0290300Y0071433D01*
X0283300Y0071433D01*
X0283240Y0071435D01*
X0283179Y0071440D01*
X0283120Y0071449D01*
X0283061Y0071462D01*
X0283002Y0071478D01*
X0282945Y0071498D01*
X0282890Y0071521D01*
X0282835Y0071548D01*
X0282783Y0071577D01*
X0282732Y0071610D01*
X0282683Y0071646D01*
X0282637Y0071684D01*
X0282593Y0071726D01*
X0282551Y0071770D01*
X0282513Y0071816D01*
X0282477Y0071865D01*
X0282444Y0071916D01*
X0282415Y0071968D01*
X0282388Y0072023D01*
X0282365Y0072078D01*
X0282345Y0072135D01*
X0282329Y0072194D01*
X0282316Y0072253D01*
X0282307Y0072312D01*
X0282302Y0072373D01*
X0282300Y0072433D01*
X0282300Y0073933D01*
X0282800Y0074433D01*
X0282800Y0093433D01*
X0282300Y0093933D01*
X0282300Y0095433D01*
X0282302Y0095493D01*
X0282307Y0095554D01*
X0282316Y0095613D01*
X0282329Y0095672D01*
X0282345Y0095731D01*
X0282365Y0095788D01*
X0282388Y0095843D01*
X0282415Y0095898D01*
X0282444Y0095950D01*
X0282477Y0096001D01*
X0282513Y0096050D01*
X0282551Y0096096D01*
X0282593Y0096140D01*
X0282637Y0096182D01*
X0282683Y0096220D01*
X0282732Y0096256D01*
X0282783Y0096289D01*
X0282835Y0096318D01*
X0282890Y0096345D01*
X0282945Y0096368D01*
X0283002Y0096388D01*
X0283061Y0096404D01*
X0283120Y0096417D01*
X0283179Y0096426D01*
X0283240Y0096431D01*
X0283300Y0096433D01*
X0251300Y0095433D02*
X0251300Y0093933D01*
X0250800Y0093433D01*
X0250800Y0074433D01*
X0251300Y0073933D01*
X0251300Y0072433D01*
X0251298Y0072373D01*
X0251293Y0072312D01*
X0251284Y0072253D01*
X0251271Y0072194D01*
X0251255Y0072135D01*
X0251235Y0072078D01*
X0251212Y0072023D01*
X0251185Y0071968D01*
X0251156Y0071916D01*
X0251123Y0071865D01*
X0251087Y0071816D01*
X0251049Y0071770D01*
X0251007Y0071726D01*
X0250963Y0071684D01*
X0250917Y0071646D01*
X0250868Y0071610D01*
X0250817Y0071577D01*
X0250765Y0071548D01*
X0250710Y0071521D01*
X0250655Y0071498D01*
X0250598Y0071478D01*
X0250539Y0071462D01*
X0250480Y0071449D01*
X0250421Y0071440D01*
X0250360Y0071435D01*
X0250300Y0071433D01*
X0243300Y0071433D01*
X0243240Y0071435D01*
X0243179Y0071440D01*
X0243120Y0071449D01*
X0243061Y0071462D01*
X0243002Y0071478D01*
X0242945Y0071498D01*
X0242890Y0071521D01*
X0242835Y0071548D01*
X0242783Y0071577D01*
X0242732Y0071610D01*
X0242683Y0071646D01*
X0242637Y0071684D01*
X0242593Y0071726D01*
X0242551Y0071770D01*
X0242513Y0071816D01*
X0242477Y0071865D01*
X0242444Y0071916D01*
X0242415Y0071968D01*
X0242388Y0072023D01*
X0242365Y0072078D01*
X0242345Y0072135D01*
X0242329Y0072194D01*
X0242316Y0072253D01*
X0242307Y0072312D01*
X0242302Y0072373D01*
X0242300Y0072433D01*
X0242300Y0073933D01*
X0242800Y0074433D01*
X0242800Y0093433D01*
X0242300Y0093933D01*
X0242300Y0095433D01*
X0242302Y0095493D01*
X0242307Y0095554D01*
X0242316Y0095613D01*
X0242329Y0095672D01*
X0242345Y0095731D01*
X0242365Y0095788D01*
X0242388Y0095843D01*
X0242415Y0095898D01*
X0242444Y0095950D01*
X0242477Y0096001D01*
X0242513Y0096050D01*
X0242551Y0096096D01*
X0242593Y0096140D01*
X0242637Y0096182D01*
X0242683Y0096220D01*
X0242732Y0096256D01*
X0242783Y0096289D01*
X0242835Y0096318D01*
X0242890Y0096345D01*
X0242945Y0096368D01*
X0243002Y0096388D01*
X0243061Y0096404D01*
X0243120Y0096417D01*
X0243179Y0096426D01*
X0243240Y0096431D01*
X0243300Y0096433D01*
X0250300Y0096433D01*
X0250360Y0096431D01*
X0250421Y0096426D01*
X0250480Y0096417D01*
X0250539Y0096404D01*
X0250598Y0096388D01*
X0250655Y0096368D01*
X0250710Y0096345D01*
X0250765Y0096318D01*
X0250817Y0096289D01*
X0250868Y0096256D01*
X0250917Y0096220D01*
X0250963Y0096182D01*
X0251007Y0096140D01*
X0251049Y0096096D01*
X0251087Y0096050D01*
X0251123Y0096001D01*
X0251156Y0095950D01*
X0251185Y0095898D01*
X0251212Y0095843D01*
X0251235Y0095788D01*
X0251255Y0095731D01*
X0251271Y0095672D01*
X0251284Y0095613D01*
X0251293Y0095554D01*
X0251298Y0095493D01*
X0251300Y0095433D01*
X0206300Y0104933D02*
X0206300Y0112933D01*
X0206298Y0112993D01*
X0206293Y0113054D01*
X0206284Y0113113D01*
X0206271Y0113172D01*
X0206255Y0113231D01*
X0206235Y0113288D01*
X0206212Y0113343D01*
X0206185Y0113398D01*
X0206156Y0113450D01*
X0206123Y0113501D01*
X0206087Y0113550D01*
X0206049Y0113596D01*
X0206007Y0113640D01*
X0205963Y0113682D01*
X0205917Y0113720D01*
X0205868Y0113756D01*
X0205817Y0113789D01*
X0205765Y0113818D01*
X0205710Y0113845D01*
X0205655Y0113868D01*
X0205598Y0113888D01*
X0205539Y0113904D01*
X0205480Y0113917D01*
X0205421Y0113926D01*
X0205360Y0113931D01*
X0205300Y0113933D01*
X0188300Y0113933D01*
X0188240Y0113931D01*
X0188179Y0113926D01*
X0188120Y0113917D01*
X0188061Y0113904D01*
X0188002Y0113888D01*
X0187945Y0113868D01*
X0187890Y0113845D01*
X0187835Y0113818D01*
X0187783Y0113789D01*
X0187732Y0113756D01*
X0187683Y0113720D01*
X0187637Y0113682D01*
X0187593Y0113640D01*
X0187551Y0113596D01*
X0187513Y0113550D01*
X0187477Y0113501D01*
X0187444Y0113450D01*
X0187415Y0113398D01*
X0187388Y0113343D01*
X0187365Y0113288D01*
X0187345Y0113231D01*
X0187329Y0113172D01*
X0187316Y0113113D01*
X0187307Y0113054D01*
X0187302Y0112993D01*
X0187300Y0112933D01*
X0187300Y0104933D01*
X0187302Y0104873D01*
X0187307Y0104812D01*
X0187316Y0104753D01*
X0187329Y0104694D01*
X0187345Y0104635D01*
X0187365Y0104578D01*
X0187388Y0104523D01*
X0187415Y0104468D01*
X0187444Y0104416D01*
X0187477Y0104365D01*
X0187513Y0104316D01*
X0187551Y0104270D01*
X0187593Y0104226D01*
X0187637Y0104184D01*
X0187683Y0104146D01*
X0187732Y0104110D01*
X0187783Y0104077D01*
X0187835Y0104048D01*
X0187890Y0104021D01*
X0187945Y0103998D01*
X0188002Y0103978D01*
X0188061Y0103962D01*
X0188120Y0103949D01*
X0188179Y0103940D01*
X0188240Y0103935D01*
X0188300Y0103933D01*
X0205300Y0103933D01*
X0205360Y0103935D01*
X0205421Y0103940D01*
X0205480Y0103949D01*
X0205539Y0103962D01*
X0205598Y0103978D01*
X0205655Y0103998D01*
X0205710Y0104021D01*
X0205765Y0104048D01*
X0205817Y0104077D01*
X0205868Y0104110D01*
X0205917Y0104146D01*
X0205963Y0104184D01*
X0206007Y0104226D01*
X0206049Y0104270D01*
X0206087Y0104316D01*
X0206123Y0104365D01*
X0206156Y0104416D01*
X0206185Y0104468D01*
X0206212Y0104523D01*
X0206235Y0104578D01*
X0206255Y0104635D01*
X0206271Y0104694D01*
X0206284Y0104753D01*
X0206293Y0104812D01*
X0206298Y0104873D01*
X0206300Y0104933D01*
X0198300Y0108933D02*
X0197800Y0108933D01*
X0195800Y0108933D02*
X0195300Y0108933D01*
X0151300Y0095433D02*
X0151300Y0093933D01*
X0150800Y0093433D01*
X0150800Y0074433D01*
X0151300Y0073933D01*
X0151300Y0072433D01*
X0151298Y0072373D01*
X0151293Y0072312D01*
X0151284Y0072253D01*
X0151271Y0072194D01*
X0151255Y0072135D01*
X0151235Y0072078D01*
X0151212Y0072023D01*
X0151185Y0071968D01*
X0151156Y0071916D01*
X0151123Y0071865D01*
X0151087Y0071816D01*
X0151049Y0071770D01*
X0151007Y0071726D01*
X0150963Y0071684D01*
X0150917Y0071646D01*
X0150868Y0071610D01*
X0150817Y0071577D01*
X0150765Y0071548D01*
X0150710Y0071521D01*
X0150655Y0071498D01*
X0150598Y0071478D01*
X0150539Y0071462D01*
X0150480Y0071449D01*
X0150421Y0071440D01*
X0150360Y0071435D01*
X0150300Y0071433D01*
X0143300Y0071433D01*
X0143240Y0071435D01*
X0143179Y0071440D01*
X0143120Y0071449D01*
X0143061Y0071462D01*
X0143002Y0071478D01*
X0142945Y0071498D01*
X0142890Y0071521D01*
X0142835Y0071548D01*
X0142783Y0071577D01*
X0142732Y0071610D01*
X0142683Y0071646D01*
X0142637Y0071684D01*
X0142593Y0071726D01*
X0142551Y0071770D01*
X0142513Y0071816D01*
X0142477Y0071865D01*
X0142444Y0071916D01*
X0142415Y0071968D01*
X0142388Y0072023D01*
X0142365Y0072078D01*
X0142345Y0072135D01*
X0142329Y0072194D01*
X0142316Y0072253D01*
X0142307Y0072312D01*
X0142302Y0072373D01*
X0142300Y0072433D01*
X0142300Y0073933D01*
X0142800Y0074433D01*
X0142800Y0093433D01*
X0142300Y0093933D01*
X0142300Y0095433D01*
X0142302Y0095493D01*
X0142307Y0095554D01*
X0142316Y0095613D01*
X0142329Y0095672D01*
X0142345Y0095731D01*
X0142365Y0095788D01*
X0142388Y0095843D01*
X0142415Y0095898D01*
X0142444Y0095950D01*
X0142477Y0096001D01*
X0142513Y0096050D01*
X0142551Y0096096D01*
X0142593Y0096140D01*
X0142637Y0096182D01*
X0142683Y0096220D01*
X0142732Y0096256D01*
X0142783Y0096289D01*
X0142835Y0096318D01*
X0142890Y0096345D01*
X0142945Y0096368D01*
X0143002Y0096388D01*
X0143061Y0096404D01*
X0143120Y0096417D01*
X0143179Y0096426D01*
X0143240Y0096431D01*
X0143300Y0096433D01*
X0150300Y0096433D01*
X0150360Y0096431D01*
X0150421Y0096426D01*
X0150480Y0096417D01*
X0150539Y0096404D01*
X0150598Y0096388D01*
X0150655Y0096368D01*
X0150710Y0096345D01*
X0150765Y0096318D01*
X0150817Y0096289D01*
X0150868Y0096256D01*
X0150917Y0096220D01*
X0150963Y0096182D01*
X0151007Y0096140D01*
X0151049Y0096096D01*
X0151087Y0096050D01*
X0151123Y0096001D01*
X0151156Y0095950D01*
X0151185Y0095898D01*
X0151212Y0095843D01*
X0151235Y0095788D01*
X0151255Y0095731D01*
X0151271Y0095672D01*
X0151284Y0095613D01*
X0151293Y0095554D01*
X0151298Y0095493D01*
X0151300Y0095433D01*
X0134800Y0124933D02*
X0118800Y0124933D01*
X0118740Y0124935D01*
X0118679Y0124940D01*
X0118620Y0124949D01*
X0118561Y0124962D01*
X0118502Y0124978D01*
X0118445Y0124998D01*
X0118390Y0125021D01*
X0118335Y0125048D01*
X0118283Y0125077D01*
X0118232Y0125110D01*
X0118183Y0125146D01*
X0118137Y0125184D01*
X0118093Y0125226D01*
X0118051Y0125270D01*
X0118013Y0125316D01*
X0117977Y0125365D01*
X0117944Y0125416D01*
X0117915Y0125468D01*
X0117888Y0125523D01*
X0117865Y0125578D01*
X0117845Y0125635D01*
X0117829Y0125694D01*
X0117816Y0125753D01*
X0117807Y0125812D01*
X0117802Y0125873D01*
X0117800Y0125933D01*
X0117800Y0131933D01*
X0117802Y0131993D01*
X0117807Y0132054D01*
X0117816Y0132113D01*
X0117829Y0132172D01*
X0117845Y0132231D01*
X0117865Y0132288D01*
X0117888Y0132343D01*
X0117915Y0132398D01*
X0117944Y0132450D01*
X0117977Y0132501D01*
X0118013Y0132550D01*
X0118051Y0132596D01*
X0118093Y0132640D01*
X0118137Y0132682D01*
X0118183Y0132720D01*
X0118232Y0132756D01*
X0118283Y0132789D01*
X0118335Y0132818D01*
X0118390Y0132845D01*
X0118445Y0132868D01*
X0118502Y0132888D01*
X0118561Y0132904D01*
X0118620Y0132917D01*
X0118679Y0132926D01*
X0118740Y0132931D01*
X0118800Y0132933D01*
X0134800Y0132933D01*
X0134860Y0132931D01*
X0134921Y0132926D01*
X0134980Y0132917D01*
X0135039Y0132904D01*
X0135098Y0132888D01*
X0135155Y0132868D01*
X0135210Y0132845D01*
X0135265Y0132818D01*
X0135317Y0132789D01*
X0135368Y0132756D01*
X0135417Y0132720D01*
X0135463Y0132682D01*
X0135507Y0132640D01*
X0135549Y0132596D01*
X0135587Y0132550D01*
X0135623Y0132501D01*
X0135656Y0132450D01*
X0135685Y0132398D01*
X0135712Y0132343D01*
X0135735Y0132288D01*
X0135755Y0132231D01*
X0135771Y0132172D01*
X0135784Y0132113D01*
X0135793Y0132054D01*
X0135798Y0131993D01*
X0135800Y0131933D01*
X0135800Y0125933D01*
X0135798Y0125873D01*
X0135793Y0125812D01*
X0135784Y0125753D01*
X0135771Y0125694D01*
X0135755Y0125635D01*
X0135735Y0125578D01*
X0135712Y0125523D01*
X0135685Y0125468D01*
X0135656Y0125416D01*
X0135623Y0125365D01*
X0135587Y0125316D01*
X0135549Y0125270D01*
X0135507Y0125226D01*
X0135463Y0125184D01*
X0135417Y0125146D01*
X0135368Y0125110D01*
X0135317Y0125077D01*
X0135265Y0125048D01*
X0135210Y0125021D01*
X0135155Y0124998D01*
X0135098Y0124978D01*
X0135039Y0124962D01*
X0134980Y0124949D01*
X0134921Y0124940D01*
X0134860Y0124935D01*
X0134800Y0124933D01*
X0130800Y0126433D02*
X0126800Y0128933D01*
X0126800Y0126433D01*
X0126800Y0128933D02*
X0124300Y0128933D01*
X0126800Y0128933D02*
X0126800Y0131433D01*
X0126800Y0128933D02*
X0130800Y0131433D01*
X0130800Y0126433D01*
X0132800Y0128933D02*
X0126800Y0128933D01*
X0147300Y0142433D02*
X0147300Y0155433D01*
X0147302Y0155520D01*
X0147308Y0155607D01*
X0147317Y0155694D01*
X0147330Y0155780D01*
X0147347Y0155866D01*
X0147368Y0155951D01*
X0147393Y0156034D01*
X0147421Y0156117D01*
X0147452Y0156198D01*
X0147487Y0156278D01*
X0147526Y0156356D01*
X0147568Y0156433D01*
X0147613Y0156508D01*
X0147662Y0156580D01*
X0147713Y0156651D01*
X0147768Y0156719D01*
X0147825Y0156784D01*
X0147886Y0156847D01*
X0147949Y0156908D01*
X0148014Y0156965D01*
X0148082Y0157020D01*
X0148153Y0157071D01*
X0148225Y0157120D01*
X0148300Y0157165D01*
X0148377Y0157207D01*
X0148455Y0157246D01*
X0148535Y0157281D01*
X0148616Y0157312D01*
X0148699Y0157340D01*
X0148782Y0157365D01*
X0148867Y0157386D01*
X0148953Y0157403D01*
X0149039Y0157416D01*
X0149126Y0157425D01*
X0149213Y0157431D01*
X0149300Y0157433D01*
X0154300Y0157433D01*
X0154387Y0157431D01*
X0154474Y0157425D01*
X0154561Y0157416D01*
X0154647Y0157403D01*
X0154733Y0157386D01*
X0154818Y0157365D01*
X0154901Y0157340D01*
X0154984Y0157312D01*
X0155065Y0157281D01*
X0155145Y0157246D01*
X0155223Y0157207D01*
X0155300Y0157165D01*
X0155375Y0157120D01*
X0155447Y0157071D01*
X0155518Y0157020D01*
X0155586Y0156965D01*
X0155651Y0156908D01*
X0155714Y0156847D01*
X0155775Y0156784D01*
X0155832Y0156719D01*
X0155887Y0156651D01*
X0155938Y0156580D01*
X0155987Y0156508D01*
X0156032Y0156433D01*
X0156074Y0156356D01*
X0156113Y0156278D01*
X0156148Y0156198D01*
X0156179Y0156117D01*
X0156207Y0156034D01*
X0156232Y0155951D01*
X0156253Y0155866D01*
X0156270Y0155780D01*
X0156283Y0155694D01*
X0156292Y0155607D01*
X0156298Y0155520D01*
X0156300Y0155433D01*
X0156300Y0142433D01*
X0156298Y0142346D01*
X0156292Y0142259D01*
X0156283Y0142172D01*
X0156270Y0142086D01*
X0156253Y0142000D01*
X0156232Y0141915D01*
X0156207Y0141832D01*
X0156179Y0141749D01*
X0156148Y0141668D01*
X0156113Y0141588D01*
X0156074Y0141510D01*
X0156032Y0141433D01*
X0155987Y0141358D01*
X0155938Y0141286D01*
X0155887Y0141215D01*
X0155832Y0141147D01*
X0155775Y0141082D01*
X0155714Y0141019D01*
X0155651Y0140958D01*
X0155586Y0140901D01*
X0155518Y0140846D01*
X0155447Y0140795D01*
X0155375Y0140746D01*
X0155300Y0140701D01*
X0155223Y0140659D01*
X0155145Y0140620D01*
X0155065Y0140585D01*
X0154984Y0140554D01*
X0154901Y0140526D01*
X0154818Y0140501D01*
X0154733Y0140480D01*
X0154647Y0140463D01*
X0154561Y0140450D01*
X0154474Y0140441D01*
X0154387Y0140435D01*
X0154300Y0140433D01*
X0149300Y0140433D01*
X0149213Y0140435D01*
X0149126Y0140441D01*
X0149039Y0140450D01*
X0148953Y0140463D01*
X0148867Y0140480D01*
X0148782Y0140501D01*
X0148699Y0140526D01*
X0148616Y0140554D01*
X0148535Y0140585D01*
X0148455Y0140620D01*
X0148377Y0140659D01*
X0148300Y0140701D01*
X0148225Y0140746D01*
X0148153Y0140795D01*
X0148082Y0140846D01*
X0148014Y0140901D01*
X0147949Y0140958D01*
X0147886Y0141019D01*
X0147825Y0141082D01*
X0147768Y0141147D01*
X0147713Y0141215D01*
X0147662Y0141286D01*
X0147613Y0141358D01*
X0147568Y0141433D01*
X0147526Y0141510D01*
X0147487Y0141588D01*
X0147452Y0141668D01*
X0147421Y0141749D01*
X0147393Y0141832D01*
X0147368Y0141915D01*
X0147347Y0142000D01*
X0147330Y0142086D01*
X0147317Y0142172D01*
X0147308Y0142259D01*
X0147302Y0142346D01*
X0147300Y0142433D01*
X0131300Y0157433D02*
X0131300Y0158933D01*
X0130800Y0159433D01*
X0130800Y0178433D01*
X0131300Y0178933D01*
X0131300Y0180433D01*
X0131298Y0180493D01*
X0131293Y0180554D01*
X0131284Y0180613D01*
X0131271Y0180672D01*
X0131255Y0180731D01*
X0131235Y0180788D01*
X0131212Y0180843D01*
X0131185Y0180898D01*
X0131156Y0180950D01*
X0131123Y0181001D01*
X0131087Y0181050D01*
X0131049Y0181096D01*
X0131007Y0181140D01*
X0130963Y0181182D01*
X0130917Y0181220D01*
X0130868Y0181256D01*
X0130817Y0181289D01*
X0130765Y0181318D01*
X0130710Y0181345D01*
X0130655Y0181368D01*
X0130598Y0181388D01*
X0130539Y0181404D01*
X0130480Y0181417D01*
X0130421Y0181426D01*
X0130360Y0181431D01*
X0130300Y0181433D01*
X0123300Y0181433D01*
X0123240Y0181431D01*
X0123179Y0181426D01*
X0123120Y0181417D01*
X0123061Y0181404D01*
X0123002Y0181388D01*
X0122945Y0181368D01*
X0122890Y0181345D01*
X0122835Y0181318D01*
X0122783Y0181289D01*
X0122732Y0181256D01*
X0122683Y0181220D01*
X0122637Y0181182D01*
X0122593Y0181140D01*
X0122551Y0181096D01*
X0122513Y0181050D01*
X0122477Y0181001D01*
X0122444Y0180950D01*
X0122415Y0180898D01*
X0122388Y0180843D01*
X0122365Y0180788D01*
X0122345Y0180731D01*
X0122329Y0180672D01*
X0122316Y0180613D01*
X0122307Y0180554D01*
X0122302Y0180493D01*
X0122300Y0180433D01*
X0122300Y0178933D01*
X0122800Y0178433D01*
X0122800Y0159433D01*
X0122300Y0158933D01*
X0122300Y0157433D01*
X0122302Y0157373D01*
X0122307Y0157312D01*
X0122316Y0157253D01*
X0122329Y0157194D01*
X0122345Y0157135D01*
X0122365Y0157078D01*
X0122388Y0157023D01*
X0122415Y0156968D01*
X0122444Y0156916D01*
X0122477Y0156865D01*
X0122513Y0156816D01*
X0122551Y0156770D01*
X0122593Y0156726D01*
X0122637Y0156684D01*
X0122683Y0156646D01*
X0122732Y0156610D01*
X0122783Y0156577D01*
X0122835Y0156548D01*
X0122890Y0156521D01*
X0122945Y0156498D01*
X0123002Y0156478D01*
X0123061Y0156462D01*
X0123120Y0156449D01*
X0123179Y0156440D01*
X0123240Y0156435D01*
X0123300Y0156433D01*
X0130300Y0156433D01*
X0130360Y0156435D01*
X0130421Y0156440D01*
X0130480Y0156449D01*
X0130539Y0156462D01*
X0130598Y0156478D01*
X0130655Y0156498D01*
X0130710Y0156521D01*
X0130765Y0156548D01*
X0130817Y0156577D01*
X0130868Y0156610D01*
X0130917Y0156646D01*
X0130963Y0156684D01*
X0131007Y0156726D01*
X0131049Y0156770D01*
X0131087Y0156816D01*
X0131123Y0156865D01*
X0131156Y0156916D01*
X0131185Y0156968D01*
X0131212Y0157023D01*
X0131235Y0157078D01*
X0131255Y0157135D01*
X0131271Y0157194D01*
X0131284Y0157253D01*
X0131293Y0157312D01*
X0131298Y0157373D01*
X0131300Y0157433D01*
X0080800Y0168933D02*
X0080803Y0169203D01*
X0080813Y0169473D01*
X0080830Y0169742D01*
X0080853Y0170011D01*
X0080883Y0170280D01*
X0080919Y0170547D01*
X0080962Y0170814D01*
X0081011Y0171079D01*
X0081067Y0171343D01*
X0081130Y0171606D01*
X0081198Y0171867D01*
X0081274Y0172126D01*
X0081355Y0172383D01*
X0081443Y0172639D01*
X0081537Y0172892D01*
X0081637Y0173143D01*
X0081744Y0173391D01*
X0081856Y0173636D01*
X0081975Y0173879D01*
X0082099Y0174118D01*
X0082229Y0174355D01*
X0082365Y0174588D01*
X0082507Y0174818D01*
X0082654Y0175044D01*
X0082807Y0175267D01*
X0082965Y0175486D01*
X0083128Y0175701D01*
X0083297Y0175911D01*
X0083471Y0176118D01*
X0083650Y0176320D01*
X0083833Y0176518D01*
X0084022Y0176711D01*
X0084215Y0176900D01*
X0084413Y0177083D01*
X0084615Y0177262D01*
X0084822Y0177436D01*
X0085032Y0177605D01*
X0085247Y0177768D01*
X0085466Y0177926D01*
X0085689Y0178079D01*
X0085915Y0178226D01*
X0086145Y0178368D01*
X0086378Y0178504D01*
X0086615Y0178634D01*
X0086854Y0178758D01*
X0087097Y0178877D01*
X0087342Y0178989D01*
X0087590Y0179096D01*
X0087841Y0179196D01*
X0088094Y0179290D01*
X0088350Y0179378D01*
X0088607Y0179459D01*
X0088866Y0179535D01*
X0089127Y0179603D01*
X0089390Y0179666D01*
X0089654Y0179722D01*
X0089919Y0179771D01*
X0090186Y0179814D01*
X0090453Y0179850D01*
X0090722Y0179880D01*
X0090991Y0179903D01*
X0091260Y0179920D01*
X0091530Y0179930D01*
X0091800Y0179933D01*
X0092070Y0179930D01*
X0092340Y0179920D01*
X0092609Y0179903D01*
X0092878Y0179880D01*
X0093147Y0179850D01*
X0093414Y0179814D01*
X0093681Y0179771D01*
X0093946Y0179722D01*
X0094210Y0179666D01*
X0094473Y0179603D01*
X0094734Y0179535D01*
X0094993Y0179459D01*
X0095250Y0179378D01*
X0095506Y0179290D01*
X0095759Y0179196D01*
X0096010Y0179096D01*
X0096258Y0178989D01*
X0096503Y0178877D01*
X0096746Y0178758D01*
X0096985Y0178634D01*
X0097222Y0178504D01*
X0097455Y0178368D01*
X0097685Y0178226D01*
X0097911Y0178079D01*
X0098134Y0177926D01*
X0098353Y0177768D01*
X0098568Y0177605D01*
X0098778Y0177436D01*
X0098985Y0177262D01*
X0099187Y0177083D01*
X0099385Y0176900D01*
X0099578Y0176711D01*
X0099767Y0176518D01*
X0099950Y0176320D01*
X0100129Y0176118D01*
X0100303Y0175911D01*
X0100472Y0175701D01*
X0100635Y0175486D01*
X0100793Y0175267D01*
X0100946Y0175044D01*
X0101093Y0174818D01*
X0101235Y0174588D01*
X0101371Y0174355D01*
X0101501Y0174118D01*
X0101625Y0173879D01*
X0101744Y0173636D01*
X0101856Y0173391D01*
X0101963Y0173143D01*
X0102063Y0172892D01*
X0102157Y0172639D01*
X0102245Y0172383D01*
X0102326Y0172126D01*
X0102402Y0171867D01*
X0102470Y0171606D01*
X0102533Y0171343D01*
X0102589Y0171079D01*
X0102638Y0170814D01*
X0102681Y0170547D01*
X0102717Y0170280D01*
X0102747Y0170011D01*
X0102770Y0169742D01*
X0102787Y0169473D01*
X0102797Y0169203D01*
X0102800Y0168933D01*
X0102797Y0168663D01*
X0102787Y0168393D01*
X0102770Y0168124D01*
X0102747Y0167855D01*
X0102717Y0167586D01*
X0102681Y0167319D01*
X0102638Y0167052D01*
X0102589Y0166787D01*
X0102533Y0166523D01*
X0102470Y0166260D01*
X0102402Y0165999D01*
X0102326Y0165740D01*
X0102245Y0165483D01*
X0102157Y0165227D01*
X0102063Y0164974D01*
X0101963Y0164723D01*
X0101856Y0164475D01*
X0101744Y0164230D01*
X0101625Y0163987D01*
X0101501Y0163748D01*
X0101371Y0163511D01*
X0101235Y0163278D01*
X0101093Y0163048D01*
X0100946Y0162822D01*
X0100793Y0162599D01*
X0100635Y0162380D01*
X0100472Y0162165D01*
X0100303Y0161955D01*
X0100129Y0161748D01*
X0099950Y0161546D01*
X0099767Y0161348D01*
X0099578Y0161155D01*
X0099385Y0160966D01*
X0099187Y0160783D01*
X0098985Y0160604D01*
X0098778Y0160430D01*
X0098568Y0160261D01*
X0098353Y0160098D01*
X0098134Y0159940D01*
X0097911Y0159787D01*
X0097685Y0159640D01*
X0097455Y0159498D01*
X0097222Y0159362D01*
X0096985Y0159232D01*
X0096746Y0159108D01*
X0096503Y0158989D01*
X0096258Y0158877D01*
X0096010Y0158770D01*
X0095759Y0158670D01*
X0095506Y0158576D01*
X0095250Y0158488D01*
X0094993Y0158407D01*
X0094734Y0158331D01*
X0094473Y0158263D01*
X0094210Y0158200D01*
X0093946Y0158144D01*
X0093681Y0158095D01*
X0093414Y0158052D01*
X0093147Y0158016D01*
X0092878Y0157986D01*
X0092609Y0157963D01*
X0092340Y0157946D01*
X0092070Y0157936D01*
X0091800Y0157933D01*
X0091530Y0157936D01*
X0091260Y0157946D01*
X0090991Y0157963D01*
X0090722Y0157986D01*
X0090453Y0158016D01*
X0090186Y0158052D01*
X0089919Y0158095D01*
X0089654Y0158144D01*
X0089390Y0158200D01*
X0089127Y0158263D01*
X0088866Y0158331D01*
X0088607Y0158407D01*
X0088350Y0158488D01*
X0088094Y0158576D01*
X0087841Y0158670D01*
X0087590Y0158770D01*
X0087342Y0158877D01*
X0087097Y0158989D01*
X0086854Y0159108D01*
X0086615Y0159232D01*
X0086378Y0159362D01*
X0086145Y0159498D01*
X0085915Y0159640D01*
X0085689Y0159787D01*
X0085466Y0159940D01*
X0085247Y0160098D01*
X0085032Y0160261D01*
X0084822Y0160430D01*
X0084615Y0160604D01*
X0084413Y0160783D01*
X0084215Y0160966D01*
X0084022Y0161155D01*
X0083833Y0161348D01*
X0083650Y0161546D01*
X0083471Y0161748D01*
X0083297Y0161955D01*
X0083128Y0162165D01*
X0082965Y0162380D01*
X0082807Y0162599D01*
X0082654Y0162822D01*
X0082507Y0163048D01*
X0082365Y0163278D01*
X0082229Y0163511D01*
X0082099Y0163748D01*
X0081975Y0163987D01*
X0081856Y0164230D01*
X0081744Y0164475D01*
X0081637Y0164723D01*
X0081537Y0164974D01*
X0081443Y0165227D01*
X0081355Y0165483D01*
X0081274Y0165740D01*
X0081198Y0165999D01*
X0081130Y0166260D01*
X0081067Y0166523D01*
X0081011Y0166787D01*
X0080962Y0167052D01*
X0080919Y0167319D01*
X0080883Y0167586D01*
X0080853Y0167855D01*
X0080830Y0168124D01*
X0080813Y0168393D01*
X0080803Y0168663D01*
X0080800Y0168933D01*
X0085300Y0172433D02*
X0085300Y0173933D01*
X0085300Y0175433D01*
X0085300Y0173933D02*
X0086800Y0173933D01*
X0085300Y0173933D02*
X0083800Y0173933D01*
X0061300Y0178933D02*
X0061300Y0180433D01*
X0061298Y0180493D01*
X0061293Y0180554D01*
X0061284Y0180613D01*
X0061271Y0180672D01*
X0061255Y0180731D01*
X0061235Y0180788D01*
X0061212Y0180843D01*
X0061185Y0180898D01*
X0061156Y0180950D01*
X0061123Y0181001D01*
X0061087Y0181050D01*
X0061049Y0181096D01*
X0061007Y0181140D01*
X0060963Y0181182D01*
X0060917Y0181220D01*
X0060868Y0181256D01*
X0060817Y0181289D01*
X0060765Y0181318D01*
X0060710Y0181345D01*
X0060655Y0181368D01*
X0060598Y0181388D01*
X0060539Y0181404D01*
X0060480Y0181417D01*
X0060421Y0181426D01*
X0060360Y0181431D01*
X0060300Y0181433D01*
X0053300Y0181433D01*
X0053240Y0181431D01*
X0053179Y0181426D01*
X0053120Y0181417D01*
X0053061Y0181404D01*
X0053002Y0181388D01*
X0052945Y0181368D01*
X0052890Y0181345D01*
X0052835Y0181318D01*
X0052783Y0181289D01*
X0052732Y0181256D01*
X0052683Y0181220D01*
X0052637Y0181182D01*
X0052593Y0181140D01*
X0052551Y0181096D01*
X0052513Y0181050D01*
X0052477Y0181001D01*
X0052444Y0180950D01*
X0052415Y0180898D01*
X0052388Y0180843D01*
X0052365Y0180788D01*
X0052345Y0180731D01*
X0052329Y0180672D01*
X0052316Y0180613D01*
X0052307Y0180554D01*
X0052302Y0180493D01*
X0052300Y0180433D01*
X0052300Y0178933D01*
X0052800Y0178433D01*
X0052800Y0159433D01*
X0052300Y0158933D01*
X0052300Y0157433D01*
X0052302Y0157373D01*
X0052307Y0157312D01*
X0052316Y0157253D01*
X0052329Y0157194D01*
X0052345Y0157135D01*
X0052365Y0157078D01*
X0052388Y0157023D01*
X0052415Y0156968D01*
X0052444Y0156916D01*
X0052477Y0156865D01*
X0052513Y0156816D01*
X0052551Y0156770D01*
X0052593Y0156726D01*
X0052637Y0156684D01*
X0052683Y0156646D01*
X0052732Y0156610D01*
X0052783Y0156577D01*
X0052835Y0156548D01*
X0052890Y0156521D01*
X0052945Y0156498D01*
X0053002Y0156478D01*
X0053061Y0156462D01*
X0053120Y0156449D01*
X0053179Y0156440D01*
X0053240Y0156435D01*
X0053300Y0156433D01*
X0060300Y0156433D01*
X0060360Y0156435D01*
X0060421Y0156440D01*
X0060480Y0156449D01*
X0060539Y0156462D01*
X0060598Y0156478D01*
X0060655Y0156498D01*
X0060710Y0156521D01*
X0060765Y0156548D01*
X0060817Y0156577D01*
X0060868Y0156610D01*
X0060917Y0156646D01*
X0060963Y0156684D01*
X0061007Y0156726D01*
X0061049Y0156770D01*
X0061087Y0156816D01*
X0061123Y0156865D01*
X0061156Y0156916D01*
X0061185Y0156968D01*
X0061212Y0157023D01*
X0061235Y0157078D01*
X0061255Y0157135D01*
X0061271Y0157194D01*
X0061284Y0157253D01*
X0061293Y0157312D01*
X0061298Y0157373D01*
X0061300Y0157433D01*
X0061300Y0158933D01*
X0060800Y0159433D01*
X0060800Y0178433D01*
X0061300Y0178933D01*
X0044800Y0147933D02*
X0018800Y0147933D01*
X0017800Y0146933D01*
X0017800Y0120933D01*
X0018800Y0119933D01*
X0044800Y0119933D01*
X0045800Y0120933D01*
X0045800Y0146933D01*
X0044800Y0147933D01*
X0039800Y0141933D02*
X0038800Y0140933D01*
X0033300Y0139933D02*
X0030300Y0139933D01*
X0030300Y0136933D01*
X0028800Y0135433D01*
X0027800Y0135433D01*
X0027800Y0136433D01*
X0025300Y0133933D01*
X0027800Y0131433D01*
X0027800Y0132433D01*
X0028800Y0132433D01*
X0030300Y0130933D01*
X0030300Y0127933D01*
X0033300Y0127933D01*
X0033300Y0130933D01*
X0034800Y0132433D01*
X0037800Y0132433D01*
X0037800Y0135433D01*
X0034800Y0135433D01*
X0033300Y0136933D01*
X0033300Y0139933D01*
X0025300Y0140933D02*
X0024300Y0141933D01*
X0022100Y0133933D02*
X0020600Y0133933D01*
X0025300Y0126433D02*
X0024300Y0125433D01*
X0038800Y0126933D02*
X0039800Y0125933D01*
X0046800Y0103933D02*
X0046803Y0104178D01*
X0046812Y0104424D01*
X0046827Y0104669D01*
X0046848Y0104913D01*
X0046875Y0105157D01*
X0046908Y0105400D01*
X0046947Y0105643D01*
X0046992Y0105884D01*
X0047043Y0106124D01*
X0047100Y0106363D01*
X0047162Y0106600D01*
X0047231Y0106836D01*
X0047305Y0107070D01*
X0047385Y0107302D01*
X0047470Y0107532D01*
X0047561Y0107760D01*
X0047658Y0107985D01*
X0047760Y0108209D01*
X0047868Y0108429D01*
X0047981Y0108647D01*
X0048099Y0108862D01*
X0048223Y0109074D01*
X0048351Y0109283D01*
X0048485Y0109489D01*
X0048624Y0109691D01*
X0048768Y0109890D01*
X0048917Y0110085D01*
X0049070Y0110277D01*
X0049228Y0110465D01*
X0049390Y0110649D01*
X0049558Y0110828D01*
X0049729Y0111004D01*
X0049905Y0111175D01*
X0050084Y0111343D01*
X0050268Y0111505D01*
X0050456Y0111663D01*
X0050648Y0111816D01*
X0050843Y0111965D01*
X0051042Y0112109D01*
X0051244Y0112248D01*
X0051450Y0112382D01*
X0051659Y0112510D01*
X0051871Y0112634D01*
X0052086Y0112752D01*
X0052304Y0112865D01*
X0052524Y0112973D01*
X0052748Y0113075D01*
X0052973Y0113172D01*
X0053201Y0113263D01*
X0053431Y0113348D01*
X0053663Y0113428D01*
X0053897Y0113502D01*
X0054133Y0113571D01*
X0054370Y0113633D01*
X0054609Y0113690D01*
X0054849Y0113741D01*
X0055090Y0113786D01*
X0055333Y0113825D01*
X0055576Y0113858D01*
X0055820Y0113885D01*
X0056064Y0113906D01*
X0056309Y0113921D01*
X0056555Y0113930D01*
X0056800Y0113933D01*
X0057045Y0113930D01*
X0057291Y0113921D01*
X0057536Y0113906D01*
X0057780Y0113885D01*
X0058024Y0113858D01*
X0058267Y0113825D01*
X0058510Y0113786D01*
X0058751Y0113741D01*
X0058991Y0113690D01*
X0059230Y0113633D01*
X0059467Y0113571D01*
X0059703Y0113502D01*
X0059937Y0113428D01*
X0060169Y0113348D01*
X0060399Y0113263D01*
X0060627Y0113172D01*
X0060852Y0113075D01*
X0061076Y0112973D01*
X0061296Y0112865D01*
X0061514Y0112752D01*
X0061729Y0112634D01*
X0061941Y0112510D01*
X0062150Y0112382D01*
X0062356Y0112248D01*
X0062558Y0112109D01*
X0062757Y0111965D01*
X0062952Y0111816D01*
X0063144Y0111663D01*
X0063332Y0111505D01*
X0063516Y0111343D01*
X0063695Y0111175D01*
X0063871Y0111004D01*
X0064042Y0110828D01*
X0064210Y0110649D01*
X0064372Y0110465D01*
X0064530Y0110277D01*
X0064683Y0110085D01*
X0064832Y0109890D01*
X0064976Y0109691D01*
X0065115Y0109489D01*
X0065249Y0109283D01*
X0065377Y0109074D01*
X0065501Y0108862D01*
X0065619Y0108647D01*
X0065732Y0108429D01*
X0065840Y0108209D01*
X0065942Y0107985D01*
X0066039Y0107760D01*
X0066130Y0107532D01*
X0066215Y0107302D01*
X0066295Y0107070D01*
X0066369Y0106836D01*
X0066438Y0106600D01*
X0066500Y0106363D01*
X0066557Y0106124D01*
X0066608Y0105884D01*
X0066653Y0105643D01*
X0066692Y0105400D01*
X0066725Y0105157D01*
X0066752Y0104913D01*
X0066773Y0104669D01*
X0066788Y0104424D01*
X0066797Y0104178D01*
X0066800Y0103933D01*
X0066797Y0103688D01*
X0066788Y0103442D01*
X0066773Y0103197D01*
X0066752Y0102953D01*
X0066725Y0102709D01*
X0066692Y0102466D01*
X0066653Y0102223D01*
X0066608Y0101982D01*
X0066557Y0101742D01*
X0066500Y0101503D01*
X0066438Y0101266D01*
X0066369Y0101030D01*
X0066295Y0100796D01*
X0066215Y0100564D01*
X0066130Y0100334D01*
X0066039Y0100106D01*
X0065942Y0099881D01*
X0065840Y0099657D01*
X0065732Y0099437D01*
X0065619Y0099219D01*
X0065501Y0099004D01*
X0065377Y0098792D01*
X0065249Y0098583D01*
X0065115Y0098377D01*
X0064976Y0098175D01*
X0064832Y0097976D01*
X0064683Y0097781D01*
X0064530Y0097589D01*
X0064372Y0097401D01*
X0064210Y0097217D01*
X0064042Y0097038D01*
X0063871Y0096862D01*
X0063695Y0096691D01*
X0063516Y0096523D01*
X0063332Y0096361D01*
X0063144Y0096203D01*
X0062952Y0096050D01*
X0062757Y0095901D01*
X0062558Y0095757D01*
X0062356Y0095618D01*
X0062150Y0095484D01*
X0061941Y0095356D01*
X0061729Y0095232D01*
X0061514Y0095114D01*
X0061296Y0095001D01*
X0061076Y0094893D01*
X0060852Y0094791D01*
X0060627Y0094694D01*
X0060399Y0094603D01*
X0060169Y0094518D01*
X0059937Y0094438D01*
X0059703Y0094364D01*
X0059467Y0094295D01*
X0059230Y0094233D01*
X0058991Y0094176D01*
X0058751Y0094125D01*
X0058510Y0094080D01*
X0058267Y0094041D01*
X0058024Y0094008D01*
X0057780Y0093981D01*
X0057536Y0093960D01*
X0057291Y0093945D01*
X0057045Y0093936D01*
X0056800Y0093933D01*
X0056555Y0093936D01*
X0056309Y0093945D01*
X0056064Y0093960D01*
X0055820Y0093981D01*
X0055576Y0094008D01*
X0055333Y0094041D01*
X0055090Y0094080D01*
X0054849Y0094125D01*
X0054609Y0094176D01*
X0054370Y0094233D01*
X0054133Y0094295D01*
X0053897Y0094364D01*
X0053663Y0094438D01*
X0053431Y0094518D01*
X0053201Y0094603D01*
X0052973Y0094694D01*
X0052748Y0094791D01*
X0052524Y0094893D01*
X0052304Y0095001D01*
X0052086Y0095114D01*
X0051871Y0095232D01*
X0051659Y0095356D01*
X0051450Y0095484D01*
X0051244Y0095618D01*
X0051042Y0095757D01*
X0050843Y0095901D01*
X0050648Y0096050D01*
X0050456Y0096203D01*
X0050268Y0096361D01*
X0050084Y0096523D01*
X0049905Y0096691D01*
X0049729Y0096862D01*
X0049558Y0097038D01*
X0049390Y0097217D01*
X0049228Y0097401D01*
X0049070Y0097589D01*
X0048917Y0097781D01*
X0048768Y0097976D01*
X0048624Y0098175D01*
X0048485Y0098377D01*
X0048351Y0098583D01*
X0048223Y0098792D01*
X0048099Y0099004D01*
X0047981Y0099219D01*
X0047868Y0099437D01*
X0047760Y0099657D01*
X0047658Y0099881D01*
X0047561Y0100106D01*
X0047470Y0100334D01*
X0047385Y0100564D01*
X0047305Y0100796D01*
X0047231Y0101030D01*
X0047162Y0101266D01*
X0047100Y0101503D01*
X0047043Y0101742D01*
X0046992Y0101982D01*
X0046947Y0102223D01*
X0046908Y0102466D01*
X0046875Y0102709D01*
X0046848Y0102953D01*
X0046827Y0103197D01*
X0046812Y0103442D01*
X0046803Y0103688D01*
X0046800Y0103933D01*
X0059800Y0096933D02*
X0061800Y0096933D01*
X0060800Y0097933D02*
X0060800Y0095933D01*
X0102300Y0095433D02*
X0102300Y0093933D01*
X0102800Y0093433D01*
X0102800Y0074433D01*
X0102300Y0073933D01*
X0102300Y0072433D01*
X0102302Y0072373D01*
X0102307Y0072312D01*
X0102316Y0072253D01*
X0102329Y0072194D01*
X0102345Y0072135D01*
X0102365Y0072078D01*
X0102388Y0072023D01*
X0102415Y0071968D01*
X0102444Y0071916D01*
X0102477Y0071865D01*
X0102513Y0071816D01*
X0102551Y0071770D01*
X0102593Y0071726D01*
X0102637Y0071684D01*
X0102683Y0071646D01*
X0102732Y0071610D01*
X0102783Y0071577D01*
X0102835Y0071548D01*
X0102890Y0071521D01*
X0102945Y0071498D01*
X0103002Y0071478D01*
X0103061Y0071462D01*
X0103120Y0071449D01*
X0103179Y0071440D01*
X0103240Y0071435D01*
X0103300Y0071433D01*
X0110300Y0071433D01*
X0110360Y0071435D01*
X0110421Y0071440D01*
X0110480Y0071449D01*
X0110539Y0071462D01*
X0110598Y0071478D01*
X0110655Y0071498D01*
X0110710Y0071521D01*
X0110765Y0071548D01*
X0110817Y0071577D01*
X0110868Y0071610D01*
X0110917Y0071646D01*
X0110963Y0071684D01*
X0111007Y0071726D01*
X0111049Y0071770D01*
X0111087Y0071816D01*
X0111123Y0071865D01*
X0111156Y0071916D01*
X0111185Y0071968D01*
X0111212Y0072023D01*
X0111235Y0072078D01*
X0111255Y0072135D01*
X0111271Y0072194D01*
X0111284Y0072253D01*
X0111293Y0072312D01*
X0111298Y0072373D01*
X0111300Y0072433D01*
X0111300Y0073933D01*
X0110800Y0074433D01*
X0110800Y0093433D01*
X0111300Y0093933D01*
X0111300Y0095433D01*
X0111298Y0095493D01*
X0111293Y0095554D01*
X0111284Y0095613D01*
X0111271Y0095672D01*
X0111255Y0095731D01*
X0111235Y0095788D01*
X0111212Y0095843D01*
X0111185Y0095898D01*
X0111156Y0095950D01*
X0111123Y0096001D01*
X0111087Y0096050D01*
X0111049Y0096096D01*
X0111007Y0096140D01*
X0110963Y0096182D01*
X0110917Y0096220D01*
X0110868Y0096256D01*
X0110817Y0096289D01*
X0110765Y0096318D01*
X0110710Y0096345D01*
X0110655Y0096368D01*
X0110598Y0096388D01*
X0110539Y0096404D01*
X0110480Y0096417D01*
X0110421Y0096426D01*
X0110360Y0096431D01*
X0110300Y0096433D01*
X0103300Y0096433D01*
X0103240Y0096431D01*
X0103179Y0096426D01*
X0103120Y0096417D01*
X0103061Y0096404D01*
X0103002Y0096388D01*
X0102945Y0096368D01*
X0102890Y0096345D01*
X0102835Y0096318D01*
X0102783Y0096289D01*
X0102732Y0096256D01*
X0102683Y0096220D01*
X0102637Y0096182D01*
X0102593Y0096140D01*
X0102551Y0096096D01*
X0102513Y0096050D01*
X0102477Y0096001D01*
X0102444Y0095950D01*
X0102415Y0095898D01*
X0102388Y0095843D01*
X0102365Y0095788D01*
X0102345Y0095731D01*
X0102329Y0095672D01*
X0102316Y0095613D01*
X0102307Y0095554D01*
X0102302Y0095493D01*
X0102300Y0095433D01*
X0081800Y0223933D02*
X0081803Y0224178D01*
X0081812Y0224424D01*
X0081827Y0224669D01*
X0081848Y0224913D01*
X0081875Y0225157D01*
X0081908Y0225400D01*
X0081947Y0225643D01*
X0081992Y0225884D01*
X0082043Y0226124D01*
X0082100Y0226363D01*
X0082162Y0226600D01*
X0082231Y0226836D01*
X0082305Y0227070D01*
X0082385Y0227302D01*
X0082470Y0227532D01*
X0082561Y0227760D01*
X0082658Y0227985D01*
X0082760Y0228209D01*
X0082868Y0228429D01*
X0082981Y0228647D01*
X0083099Y0228862D01*
X0083223Y0229074D01*
X0083351Y0229283D01*
X0083485Y0229489D01*
X0083624Y0229691D01*
X0083768Y0229890D01*
X0083917Y0230085D01*
X0084070Y0230277D01*
X0084228Y0230465D01*
X0084390Y0230649D01*
X0084558Y0230828D01*
X0084729Y0231004D01*
X0084905Y0231175D01*
X0085084Y0231343D01*
X0085268Y0231505D01*
X0085456Y0231663D01*
X0085648Y0231816D01*
X0085843Y0231965D01*
X0086042Y0232109D01*
X0086244Y0232248D01*
X0086450Y0232382D01*
X0086659Y0232510D01*
X0086871Y0232634D01*
X0087086Y0232752D01*
X0087304Y0232865D01*
X0087524Y0232973D01*
X0087748Y0233075D01*
X0087973Y0233172D01*
X0088201Y0233263D01*
X0088431Y0233348D01*
X0088663Y0233428D01*
X0088897Y0233502D01*
X0089133Y0233571D01*
X0089370Y0233633D01*
X0089609Y0233690D01*
X0089849Y0233741D01*
X0090090Y0233786D01*
X0090333Y0233825D01*
X0090576Y0233858D01*
X0090820Y0233885D01*
X0091064Y0233906D01*
X0091309Y0233921D01*
X0091555Y0233930D01*
X0091800Y0233933D01*
X0092045Y0233930D01*
X0092291Y0233921D01*
X0092536Y0233906D01*
X0092780Y0233885D01*
X0093024Y0233858D01*
X0093267Y0233825D01*
X0093510Y0233786D01*
X0093751Y0233741D01*
X0093991Y0233690D01*
X0094230Y0233633D01*
X0094467Y0233571D01*
X0094703Y0233502D01*
X0094937Y0233428D01*
X0095169Y0233348D01*
X0095399Y0233263D01*
X0095627Y0233172D01*
X0095852Y0233075D01*
X0096076Y0232973D01*
X0096296Y0232865D01*
X0096514Y0232752D01*
X0096729Y0232634D01*
X0096941Y0232510D01*
X0097150Y0232382D01*
X0097356Y0232248D01*
X0097558Y0232109D01*
X0097757Y0231965D01*
X0097952Y0231816D01*
X0098144Y0231663D01*
X0098332Y0231505D01*
X0098516Y0231343D01*
X0098695Y0231175D01*
X0098871Y0231004D01*
X0099042Y0230828D01*
X0099210Y0230649D01*
X0099372Y0230465D01*
X0099530Y0230277D01*
X0099683Y0230085D01*
X0099832Y0229890D01*
X0099976Y0229691D01*
X0100115Y0229489D01*
X0100249Y0229283D01*
X0100377Y0229074D01*
X0100501Y0228862D01*
X0100619Y0228647D01*
X0100732Y0228429D01*
X0100840Y0228209D01*
X0100942Y0227985D01*
X0101039Y0227760D01*
X0101130Y0227532D01*
X0101215Y0227302D01*
X0101295Y0227070D01*
X0101369Y0226836D01*
X0101438Y0226600D01*
X0101500Y0226363D01*
X0101557Y0226124D01*
X0101608Y0225884D01*
X0101653Y0225643D01*
X0101692Y0225400D01*
X0101725Y0225157D01*
X0101752Y0224913D01*
X0101773Y0224669D01*
X0101788Y0224424D01*
X0101797Y0224178D01*
X0101800Y0223933D01*
X0101797Y0223688D01*
X0101788Y0223442D01*
X0101773Y0223197D01*
X0101752Y0222953D01*
X0101725Y0222709D01*
X0101692Y0222466D01*
X0101653Y0222223D01*
X0101608Y0221982D01*
X0101557Y0221742D01*
X0101500Y0221503D01*
X0101438Y0221266D01*
X0101369Y0221030D01*
X0101295Y0220796D01*
X0101215Y0220564D01*
X0101130Y0220334D01*
X0101039Y0220106D01*
X0100942Y0219881D01*
X0100840Y0219657D01*
X0100732Y0219437D01*
X0100619Y0219219D01*
X0100501Y0219004D01*
X0100377Y0218792D01*
X0100249Y0218583D01*
X0100115Y0218377D01*
X0099976Y0218175D01*
X0099832Y0217976D01*
X0099683Y0217781D01*
X0099530Y0217589D01*
X0099372Y0217401D01*
X0099210Y0217217D01*
X0099042Y0217038D01*
X0098871Y0216862D01*
X0098695Y0216691D01*
X0098516Y0216523D01*
X0098332Y0216361D01*
X0098144Y0216203D01*
X0097952Y0216050D01*
X0097757Y0215901D01*
X0097558Y0215757D01*
X0097356Y0215618D01*
X0097150Y0215484D01*
X0096941Y0215356D01*
X0096729Y0215232D01*
X0096514Y0215114D01*
X0096296Y0215001D01*
X0096076Y0214893D01*
X0095852Y0214791D01*
X0095627Y0214694D01*
X0095399Y0214603D01*
X0095169Y0214518D01*
X0094937Y0214438D01*
X0094703Y0214364D01*
X0094467Y0214295D01*
X0094230Y0214233D01*
X0093991Y0214176D01*
X0093751Y0214125D01*
X0093510Y0214080D01*
X0093267Y0214041D01*
X0093024Y0214008D01*
X0092780Y0213981D01*
X0092536Y0213960D01*
X0092291Y0213945D01*
X0092045Y0213936D01*
X0091800Y0213933D01*
X0091555Y0213936D01*
X0091309Y0213945D01*
X0091064Y0213960D01*
X0090820Y0213981D01*
X0090576Y0214008D01*
X0090333Y0214041D01*
X0090090Y0214080D01*
X0089849Y0214125D01*
X0089609Y0214176D01*
X0089370Y0214233D01*
X0089133Y0214295D01*
X0088897Y0214364D01*
X0088663Y0214438D01*
X0088431Y0214518D01*
X0088201Y0214603D01*
X0087973Y0214694D01*
X0087748Y0214791D01*
X0087524Y0214893D01*
X0087304Y0215001D01*
X0087086Y0215114D01*
X0086871Y0215232D01*
X0086659Y0215356D01*
X0086450Y0215484D01*
X0086244Y0215618D01*
X0086042Y0215757D01*
X0085843Y0215901D01*
X0085648Y0216050D01*
X0085456Y0216203D01*
X0085268Y0216361D01*
X0085084Y0216523D01*
X0084905Y0216691D01*
X0084729Y0216862D01*
X0084558Y0217038D01*
X0084390Y0217217D01*
X0084228Y0217401D01*
X0084070Y0217589D01*
X0083917Y0217781D01*
X0083768Y0217976D01*
X0083624Y0218175D01*
X0083485Y0218377D01*
X0083351Y0218583D01*
X0083223Y0218792D01*
X0083099Y0219004D01*
X0082981Y0219219D01*
X0082868Y0219437D01*
X0082760Y0219657D01*
X0082658Y0219881D01*
X0082561Y0220106D01*
X0082470Y0220334D01*
X0082385Y0220564D01*
X0082305Y0220796D01*
X0082231Y0221030D01*
X0082162Y0221266D01*
X0082100Y0221503D01*
X0082043Y0221742D01*
X0081992Y0221982D01*
X0081947Y0222223D01*
X0081908Y0222466D01*
X0081875Y0222709D01*
X0081848Y0222953D01*
X0081827Y0223197D01*
X0081812Y0223442D01*
X0081803Y0223688D01*
X0081800Y0223933D01*
X0291800Y0223933D02*
X0291803Y0224178D01*
X0291812Y0224424D01*
X0291827Y0224669D01*
X0291848Y0224913D01*
X0291875Y0225157D01*
X0291908Y0225400D01*
X0291947Y0225643D01*
X0291992Y0225884D01*
X0292043Y0226124D01*
X0292100Y0226363D01*
X0292162Y0226600D01*
X0292231Y0226836D01*
X0292305Y0227070D01*
X0292385Y0227302D01*
X0292470Y0227532D01*
X0292561Y0227760D01*
X0292658Y0227985D01*
X0292760Y0228209D01*
X0292868Y0228429D01*
X0292981Y0228647D01*
X0293099Y0228862D01*
X0293223Y0229074D01*
X0293351Y0229283D01*
X0293485Y0229489D01*
X0293624Y0229691D01*
X0293768Y0229890D01*
X0293917Y0230085D01*
X0294070Y0230277D01*
X0294228Y0230465D01*
X0294390Y0230649D01*
X0294558Y0230828D01*
X0294729Y0231004D01*
X0294905Y0231175D01*
X0295084Y0231343D01*
X0295268Y0231505D01*
X0295456Y0231663D01*
X0295648Y0231816D01*
X0295843Y0231965D01*
X0296042Y0232109D01*
X0296244Y0232248D01*
X0296450Y0232382D01*
X0296659Y0232510D01*
X0296871Y0232634D01*
X0297086Y0232752D01*
X0297304Y0232865D01*
X0297524Y0232973D01*
X0297748Y0233075D01*
X0297973Y0233172D01*
X0298201Y0233263D01*
X0298431Y0233348D01*
X0298663Y0233428D01*
X0298897Y0233502D01*
X0299133Y0233571D01*
X0299370Y0233633D01*
X0299609Y0233690D01*
X0299849Y0233741D01*
X0300090Y0233786D01*
X0300333Y0233825D01*
X0300576Y0233858D01*
X0300820Y0233885D01*
X0301064Y0233906D01*
X0301309Y0233921D01*
X0301555Y0233930D01*
X0301800Y0233933D01*
X0302045Y0233930D01*
X0302291Y0233921D01*
X0302536Y0233906D01*
X0302780Y0233885D01*
X0303024Y0233858D01*
X0303267Y0233825D01*
X0303510Y0233786D01*
X0303751Y0233741D01*
X0303991Y0233690D01*
X0304230Y0233633D01*
X0304467Y0233571D01*
X0304703Y0233502D01*
X0304937Y0233428D01*
X0305169Y0233348D01*
X0305399Y0233263D01*
X0305627Y0233172D01*
X0305852Y0233075D01*
X0306076Y0232973D01*
X0306296Y0232865D01*
X0306514Y0232752D01*
X0306729Y0232634D01*
X0306941Y0232510D01*
X0307150Y0232382D01*
X0307356Y0232248D01*
X0307558Y0232109D01*
X0307757Y0231965D01*
X0307952Y0231816D01*
X0308144Y0231663D01*
X0308332Y0231505D01*
X0308516Y0231343D01*
X0308695Y0231175D01*
X0308871Y0231004D01*
X0309042Y0230828D01*
X0309210Y0230649D01*
X0309372Y0230465D01*
X0309530Y0230277D01*
X0309683Y0230085D01*
X0309832Y0229890D01*
X0309976Y0229691D01*
X0310115Y0229489D01*
X0310249Y0229283D01*
X0310377Y0229074D01*
X0310501Y0228862D01*
X0310619Y0228647D01*
X0310732Y0228429D01*
X0310840Y0228209D01*
X0310942Y0227985D01*
X0311039Y0227760D01*
X0311130Y0227532D01*
X0311215Y0227302D01*
X0311295Y0227070D01*
X0311369Y0226836D01*
X0311438Y0226600D01*
X0311500Y0226363D01*
X0311557Y0226124D01*
X0311608Y0225884D01*
X0311653Y0225643D01*
X0311692Y0225400D01*
X0311725Y0225157D01*
X0311752Y0224913D01*
X0311773Y0224669D01*
X0311788Y0224424D01*
X0311797Y0224178D01*
X0311800Y0223933D01*
X0311797Y0223688D01*
X0311788Y0223442D01*
X0311773Y0223197D01*
X0311752Y0222953D01*
X0311725Y0222709D01*
X0311692Y0222466D01*
X0311653Y0222223D01*
X0311608Y0221982D01*
X0311557Y0221742D01*
X0311500Y0221503D01*
X0311438Y0221266D01*
X0311369Y0221030D01*
X0311295Y0220796D01*
X0311215Y0220564D01*
X0311130Y0220334D01*
X0311039Y0220106D01*
X0310942Y0219881D01*
X0310840Y0219657D01*
X0310732Y0219437D01*
X0310619Y0219219D01*
X0310501Y0219004D01*
X0310377Y0218792D01*
X0310249Y0218583D01*
X0310115Y0218377D01*
X0309976Y0218175D01*
X0309832Y0217976D01*
X0309683Y0217781D01*
X0309530Y0217589D01*
X0309372Y0217401D01*
X0309210Y0217217D01*
X0309042Y0217038D01*
X0308871Y0216862D01*
X0308695Y0216691D01*
X0308516Y0216523D01*
X0308332Y0216361D01*
X0308144Y0216203D01*
X0307952Y0216050D01*
X0307757Y0215901D01*
X0307558Y0215757D01*
X0307356Y0215618D01*
X0307150Y0215484D01*
X0306941Y0215356D01*
X0306729Y0215232D01*
X0306514Y0215114D01*
X0306296Y0215001D01*
X0306076Y0214893D01*
X0305852Y0214791D01*
X0305627Y0214694D01*
X0305399Y0214603D01*
X0305169Y0214518D01*
X0304937Y0214438D01*
X0304703Y0214364D01*
X0304467Y0214295D01*
X0304230Y0214233D01*
X0303991Y0214176D01*
X0303751Y0214125D01*
X0303510Y0214080D01*
X0303267Y0214041D01*
X0303024Y0214008D01*
X0302780Y0213981D01*
X0302536Y0213960D01*
X0302291Y0213945D01*
X0302045Y0213936D01*
X0301800Y0213933D01*
X0301555Y0213936D01*
X0301309Y0213945D01*
X0301064Y0213960D01*
X0300820Y0213981D01*
X0300576Y0214008D01*
X0300333Y0214041D01*
X0300090Y0214080D01*
X0299849Y0214125D01*
X0299609Y0214176D01*
X0299370Y0214233D01*
X0299133Y0214295D01*
X0298897Y0214364D01*
X0298663Y0214438D01*
X0298431Y0214518D01*
X0298201Y0214603D01*
X0297973Y0214694D01*
X0297748Y0214791D01*
X0297524Y0214893D01*
X0297304Y0215001D01*
X0297086Y0215114D01*
X0296871Y0215232D01*
X0296659Y0215356D01*
X0296450Y0215484D01*
X0296244Y0215618D01*
X0296042Y0215757D01*
X0295843Y0215901D01*
X0295648Y0216050D01*
X0295456Y0216203D01*
X0295268Y0216361D01*
X0295084Y0216523D01*
X0294905Y0216691D01*
X0294729Y0216862D01*
X0294558Y0217038D01*
X0294390Y0217217D01*
X0294228Y0217401D01*
X0294070Y0217589D01*
X0293917Y0217781D01*
X0293768Y0217976D01*
X0293624Y0218175D01*
X0293485Y0218377D01*
X0293351Y0218583D01*
X0293223Y0218792D01*
X0293099Y0219004D01*
X0292981Y0219219D01*
X0292868Y0219437D01*
X0292760Y0219657D01*
X0292658Y0219881D01*
X0292561Y0220106D01*
X0292470Y0220334D01*
X0292385Y0220564D01*
X0292305Y0220796D01*
X0292231Y0221030D01*
X0292162Y0221266D01*
X0292100Y0221503D01*
X0292043Y0221742D01*
X0291992Y0221982D01*
X0291947Y0222223D01*
X0291908Y0222466D01*
X0291875Y0222709D01*
X0291848Y0222953D01*
X0291827Y0223197D01*
X0291812Y0223442D01*
X0291803Y0223688D01*
X0291800Y0223933D01*
X0333300Y0181433D02*
X0340300Y0181433D01*
X0340360Y0181431D01*
X0340421Y0181426D01*
X0340480Y0181417D01*
X0340539Y0181404D01*
X0340598Y0181388D01*
X0340655Y0181368D01*
X0340710Y0181345D01*
X0340765Y0181318D01*
X0340817Y0181289D01*
X0340868Y0181256D01*
X0340917Y0181220D01*
X0340963Y0181182D01*
X0341007Y0181140D01*
X0341049Y0181096D01*
X0341087Y0181050D01*
X0341123Y0181001D01*
X0341156Y0180950D01*
X0341185Y0180898D01*
X0341212Y0180843D01*
X0341235Y0180788D01*
X0341255Y0180731D01*
X0341271Y0180672D01*
X0341284Y0180613D01*
X0341293Y0180554D01*
X0341298Y0180493D01*
X0341300Y0180433D01*
X0341300Y0178933D01*
X0340800Y0178433D01*
X0340800Y0159433D01*
X0341300Y0158933D01*
X0341300Y0157433D01*
X0341298Y0157373D01*
X0341293Y0157312D01*
X0341284Y0157253D01*
X0341271Y0157194D01*
X0341255Y0157135D01*
X0341235Y0157078D01*
X0341212Y0157023D01*
X0341185Y0156968D01*
X0341156Y0156916D01*
X0341123Y0156865D01*
X0341087Y0156816D01*
X0341049Y0156770D01*
X0341007Y0156726D01*
X0340963Y0156684D01*
X0340917Y0156646D01*
X0340868Y0156610D01*
X0340817Y0156577D01*
X0340765Y0156548D01*
X0340710Y0156521D01*
X0340655Y0156498D01*
X0340598Y0156478D01*
X0340539Y0156462D01*
X0340480Y0156449D01*
X0340421Y0156440D01*
X0340360Y0156435D01*
X0340300Y0156433D01*
X0333300Y0156433D01*
X0333240Y0156435D01*
X0333179Y0156440D01*
X0333120Y0156449D01*
X0333061Y0156462D01*
X0333002Y0156478D01*
X0332945Y0156498D01*
X0332890Y0156521D01*
X0332835Y0156548D01*
X0332783Y0156577D01*
X0332732Y0156610D01*
X0332683Y0156646D01*
X0332637Y0156684D01*
X0332593Y0156726D01*
X0332551Y0156770D01*
X0332513Y0156816D01*
X0332477Y0156865D01*
X0332444Y0156916D01*
X0332415Y0156968D01*
X0332388Y0157023D01*
X0332365Y0157078D01*
X0332345Y0157135D01*
X0332329Y0157194D01*
X0332316Y0157253D01*
X0332307Y0157312D01*
X0332302Y0157373D01*
X0332300Y0157433D01*
X0332300Y0158933D01*
X0332800Y0159433D01*
X0332800Y0178433D01*
X0332300Y0178933D01*
X0332300Y0180433D01*
X0332302Y0180493D01*
X0332307Y0180554D01*
X0332316Y0180613D01*
X0332329Y0180672D01*
X0332345Y0180731D01*
X0332365Y0180788D01*
X0332388Y0180843D01*
X0332415Y0180898D01*
X0332444Y0180950D01*
X0332477Y0181001D01*
X0332513Y0181050D01*
X0332551Y0181096D01*
X0332593Y0181140D01*
X0332637Y0181182D01*
X0332683Y0181220D01*
X0332732Y0181256D01*
X0332783Y0181289D01*
X0332835Y0181318D01*
X0332890Y0181345D01*
X0332945Y0181368D01*
X0333002Y0181388D01*
X0333061Y0181404D01*
X0333120Y0181417D01*
X0333179Y0181426D01*
X0333240Y0181431D01*
X0333300Y0181433D01*
X0309800Y0163933D02*
X0308300Y0163933D01*
X0308300Y0162433D01*
X0308300Y0163933D02*
X0306800Y0163933D01*
X0308300Y0163933D02*
X0308300Y0165433D01*
X0290800Y0168933D02*
X0290803Y0169203D01*
X0290813Y0169473D01*
X0290830Y0169742D01*
X0290853Y0170011D01*
X0290883Y0170280D01*
X0290919Y0170547D01*
X0290962Y0170814D01*
X0291011Y0171079D01*
X0291067Y0171343D01*
X0291130Y0171606D01*
X0291198Y0171867D01*
X0291274Y0172126D01*
X0291355Y0172383D01*
X0291443Y0172639D01*
X0291537Y0172892D01*
X0291637Y0173143D01*
X0291744Y0173391D01*
X0291856Y0173636D01*
X0291975Y0173879D01*
X0292099Y0174118D01*
X0292229Y0174355D01*
X0292365Y0174588D01*
X0292507Y0174818D01*
X0292654Y0175044D01*
X0292807Y0175267D01*
X0292965Y0175486D01*
X0293128Y0175701D01*
X0293297Y0175911D01*
X0293471Y0176118D01*
X0293650Y0176320D01*
X0293833Y0176518D01*
X0294022Y0176711D01*
X0294215Y0176900D01*
X0294413Y0177083D01*
X0294615Y0177262D01*
X0294822Y0177436D01*
X0295032Y0177605D01*
X0295247Y0177768D01*
X0295466Y0177926D01*
X0295689Y0178079D01*
X0295915Y0178226D01*
X0296145Y0178368D01*
X0296378Y0178504D01*
X0296615Y0178634D01*
X0296854Y0178758D01*
X0297097Y0178877D01*
X0297342Y0178989D01*
X0297590Y0179096D01*
X0297841Y0179196D01*
X0298094Y0179290D01*
X0298350Y0179378D01*
X0298607Y0179459D01*
X0298866Y0179535D01*
X0299127Y0179603D01*
X0299390Y0179666D01*
X0299654Y0179722D01*
X0299919Y0179771D01*
X0300186Y0179814D01*
X0300453Y0179850D01*
X0300722Y0179880D01*
X0300991Y0179903D01*
X0301260Y0179920D01*
X0301530Y0179930D01*
X0301800Y0179933D01*
X0302070Y0179930D01*
X0302340Y0179920D01*
X0302609Y0179903D01*
X0302878Y0179880D01*
X0303147Y0179850D01*
X0303414Y0179814D01*
X0303681Y0179771D01*
X0303946Y0179722D01*
X0304210Y0179666D01*
X0304473Y0179603D01*
X0304734Y0179535D01*
X0304993Y0179459D01*
X0305250Y0179378D01*
X0305506Y0179290D01*
X0305759Y0179196D01*
X0306010Y0179096D01*
X0306258Y0178989D01*
X0306503Y0178877D01*
X0306746Y0178758D01*
X0306985Y0178634D01*
X0307222Y0178504D01*
X0307455Y0178368D01*
X0307685Y0178226D01*
X0307911Y0178079D01*
X0308134Y0177926D01*
X0308353Y0177768D01*
X0308568Y0177605D01*
X0308778Y0177436D01*
X0308985Y0177262D01*
X0309187Y0177083D01*
X0309385Y0176900D01*
X0309578Y0176711D01*
X0309767Y0176518D01*
X0309950Y0176320D01*
X0310129Y0176118D01*
X0310303Y0175911D01*
X0310472Y0175701D01*
X0310635Y0175486D01*
X0310793Y0175267D01*
X0310946Y0175044D01*
X0311093Y0174818D01*
X0311235Y0174588D01*
X0311371Y0174355D01*
X0311501Y0174118D01*
X0311625Y0173879D01*
X0311744Y0173636D01*
X0311856Y0173391D01*
X0311963Y0173143D01*
X0312063Y0172892D01*
X0312157Y0172639D01*
X0312245Y0172383D01*
X0312326Y0172126D01*
X0312402Y0171867D01*
X0312470Y0171606D01*
X0312533Y0171343D01*
X0312589Y0171079D01*
X0312638Y0170814D01*
X0312681Y0170547D01*
X0312717Y0170280D01*
X0312747Y0170011D01*
X0312770Y0169742D01*
X0312787Y0169473D01*
X0312797Y0169203D01*
X0312800Y0168933D01*
X0312797Y0168663D01*
X0312787Y0168393D01*
X0312770Y0168124D01*
X0312747Y0167855D01*
X0312717Y0167586D01*
X0312681Y0167319D01*
X0312638Y0167052D01*
X0312589Y0166787D01*
X0312533Y0166523D01*
X0312470Y0166260D01*
X0312402Y0165999D01*
X0312326Y0165740D01*
X0312245Y0165483D01*
X0312157Y0165227D01*
X0312063Y0164974D01*
X0311963Y0164723D01*
X0311856Y0164475D01*
X0311744Y0164230D01*
X0311625Y0163987D01*
X0311501Y0163748D01*
X0311371Y0163511D01*
X0311235Y0163278D01*
X0311093Y0163048D01*
X0310946Y0162822D01*
X0310793Y0162599D01*
X0310635Y0162380D01*
X0310472Y0162165D01*
X0310303Y0161955D01*
X0310129Y0161748D01*
X0309950Y0161546D01*
X0309767Y0161348D01*
X0309578Y0161155D01*
X0309385Y0160966D01*
X0309187Y0160783D01*
X0308985Y0160604D01*
X0308778Y0160430D01*
X0308568Y0160261D01*
X0308353Y0160098D01*
X0308134Y0159940D01*
X0307911Y0159787D01*
X0307685Y0159640D01*
X0307455Y0159498D01*
X0307222Y0159362D01*
X0306985Y0159232D01*
X0306746Y0159108D01*
X0306503Y0158989D01*
X0306258Y0158877D01*
X0306010Y0158770D01*
X0305759Y0158670D01*
X0305506Y0158576D01*
X0305250Y0158488D01*
X0304993Y0158407D01*
X0304734Y0158331D01*
X0304473Y0158263D01*
X0304210Y0158200D01*
X0303946Y0158144D01*
X0303681Y0158095D01*
X0303414Y0158052D01*
X0303147Y0158016D01*
X0302878Y0157986D01*
X0302609Y0157963D01*
X0302340Y0157946D01*
X0302070Y0157936D01*
X0301800Y0157933D01*
X0301530Y0157936D01*
X0301260Y0157946D01*
X0300991Y0157963D01*
X0300722Y0157986D01*
X0300453Y0158016D01*
X0300186Y0158052D01*
X0299919Y0158095D01*
X0299654Y0158144D01*
X0299390Y0158200D01*
X0299127Y0158263D01*
X0298866Y0158331D01*
X0298607Y0158407D01*
X0298350Y0158488D01*
X0298094Y0158576D01*
X0297841Y0158670D01*
X0297590Y0158770D01*
X0297342Y0158877D01*
X0297097Y0158989D01*
X0296854Y0159108D01*
X0296615Y0159232D01*
X0296378Y0159362D01*
X0296145Y0159498D01*
X0295915Y0159640D01*
X0295689Y0159787D01*
X0295466Y0159940D01*
X0295247Y0160098D01*
X0295032Y0160261D01*
X0294822Y0160430D01*
X0294615Y0160604D01*
X0294413Y0160783D01*
X0294215Y0160966D01*
X0294022Y0161155D01*
X0293833Y0161348D01*
X0293650Y0161546D01*
X0293471Y0161748D01*
X0293297Y0161955D01*
X0293128Y0162165D01*
X0292965Y0162380D01*
X0292807Y0162599D01*
X0292654Y0162822D01*
X0292507Y0163048D01*
X0292365Y0163278D01*
X0292229Y0163511D01*
X0292099Y0163748D01*
X0291975Y0163987D01*
X0291856Y0164230D01*
X0291744Y0164475D01*
X0291637Y0164723D01*
X0291537Y0164974D01*
X0291443Y0165227D01*
X0291355Y0165483D01*
X0291274Y0165740D01*
X0291198Y0165999D01*
X0291130Y0166260D01*
X0291067Y0166523D01*
X0291011Y0166787D01*
X0290962Y0167052D01*
X0290919Y0167319D01*
X0290883Y0167586D01*
X0290853Y0167855D01*
X0290830Y0168124D01*
X0290813Y0168393D01*
X0290803Y0168663D01*
X0290800Y0168933D01*
X0347800Y0146933D02*
X0347800Y0120933D01*
X0348800Y0119933D01*
X0374800Y0119933D01*
X0375800Y0120933D01*
X0375800Y0146933D01*
X0374800Y0147933D01*
X0348800Y0147933D01*
X0347800Y0146933D01*
X0353800Y0141933D02*
X0354800Y0140933D01*
X0360300Y0139933D02*
X0360300Y0136933D01*
X0358800Y0135433D01*
X0355800Y0135433D01*
X0355800Y0132433D01*
X0358800Y0132433D01*
X0360300Y0130933D01*
X0360300Y0127933D01*
X0363300Y0127933D01*
X0363300Y0130933D01*
X0364800Y0132433D01*
X0365800Y0132433D01*
X0365800Y0131433D01*
X0368300Y0133933D01*
X0365800Y0136433D01*
X0365800Y0135433D01*
X0364800Y0135433D01*
X0363300Y0136933D01*
X0363300Y0139933D01*
X0360300Y0139933D01*
X0368300Y0141433D02*
X0369300Y0142433D01*
X0371500Y0133933D02*
X0373000Y0133933D01*
X0368300Y0126933D02*
X0369300Y0125933D01*
X0354800Y0126933D02*
X0353800Y0125933D01*
X0333800Y0110933D02*
X0331800Y0110933D01*
X0332800Y0109933D02*
X0332800Y0111933D01*
X0326800Y0103933D02*
X0326803Y0104178D01*
X0326812Y0104424D01*
X0326827Y0104669D01*
X0326848Y0104913D01*
X0326875Y0105157D01*
X0326908Y0105400D01*
X0326947Y0105643D01*
X0326992Y0105884D01*
X0327043Y0106124D01*
X0327100Y0106363D01*
X0327162Y0106600D01*
X0327231Y0106836D01*
X0327305Y0107070D01*
X0327385Y0107302D01*
X0327470Y0107532D01*
X0327561Y0107760D01*
X0327658Y0107985D01*
X0327760Y0108209D01*
X0327868Y0108429D01*
X0327981Y0108647D01*
X0328099Y0108862D01*
X0328223Y0109074D01*
X0328351Y0109283D01*
X0328485Y0109489D01*
X0328624Y0109691D01*
X0328768Y0109890D01*
X0328917Y0110085D01*
X0329070Y0110277D01*
X0329228Y0110465D01*
X0329390Y0110649D01*
X0329558Y0110828D01*
X0329729Y0111004D01*
X0329905Y0111175D01*
X0330084Y0111343D01*
X0330268Y0111505D01*
X0330456Y0111663D01*
X0330648Y0111816D01*
X0330843Y0111965D01*
X0331042Y0112109D01*
X0331244Y0112248D01*
X0331450Y0112382D01*
X0331659Y0112510D01*
X0331871Y0112634D01*
X0332086Y0112752D01*
X0332304Y0112865D01*
X0332524Y0112973D01*
X0332748Y0113075D01*
X0332973Y0113172D01*
X0333201Y0113263D01*
X0333431Y0113348D01*
X0333663Y0113428D01*
X0333897Y0113502D01*
X0334133Y0113571D01*
X0334370Y0113633D01*
X0334609Y0113690D01*
X0334849Y0113741D01*
X0335090Y0113786D01*
X0335333Y0113825D01*
X0335576Y0113858D01*
X0335820Y0113885D01*
X0336064Y0113906D01*
X0336309Y0113921D01*
X0336555Y0113930D01*
X0336800Y0113933D01*
X0337045Y0113930D01*
X0337291Y0113921D01*
X0337536Y0113906D01*
X0337780Y0113885D01*
X0338024Y0113858D01*
X0338267Y0113825D01*
X0338510Y0113786D01*
X0338751Y0113741D01*
X0338991Y0113690D01*
X0339230Y0113633D01*
X0339467Y0113571D01*
X0339703Y0113502D01*
X0339937Y0113428D01*
X0340169Y0113348D01*
X0340399Y0113263D01*
X0340627Y0113172D01*
X0340852Y0113075D01*
X0341076Y0112973D01*
X0341296Y0112865D01*
X0341514Y0112752D01*
X0341729Y0112634D01*
X0341941Y0112510D01*
X0342150Y0112382D01*
X0342356Y0112248D01*
X0342558Y0112109D01*
X0342757Y0111965D01*
X0342952Y0111816D01*
X0343144Y0111663D01*
X0343332Y0111505D01*
X0343516Y0111343D01*
X0343695Y0111175D01*
X0343871Y0111004D01*
X0344042Y0110828D01*
X0344210Y0110649D01*
X0344372Y0110465D01*
X0344530Y0110277D01*
X0344683Y0110085D01*
X0344832Y0109890D01*
X0344976Y0109691D01*
X0345115Y0109489D01*
X0345249Y0109283D01*
X0345377Y0109074D01*
X0345501Y0108862D01*
X0345619Y0108647D01*
X0345732Y0108429D01*
X0345840Y0108209D01*
X0345942Y0107985D01*
X0346039Y0107760D01*
X0346130Y0107532D01*
X0346215Y0107302D01*
X0346295Y0107070D01*
X0346369Y0106836D01*
X0346438Y0106600D01*
X0346500Y0106363D01*
X0346557Y0106124D01*
X0346608Y0105884D01*
X0346653Y0105643D01*
X0346692Y0105400D01*
X0346725Y0105157D01*
X0346752Y0104913D01*
X0346773Y0104669D01*
X0346788Y0104424D01*
X0346797Y0104178D01*
X0346800Y0103933D01*
X0346797Y0103688D01*
X0346788Y0103442D01*
X0346773Y0103197D01*
X0346752Y0102953D01*
X0346725Y0102709D01*
X0346692Y0102466D01*
X0346653Y0102223D01*
X0346608Y0101982D01*
X0346557Y0101742D01*
X0346500Y0101503D01*
X0346438Y0101266D01*
X0346369Y0101030D01*
X0346295Y0100796D01*
X0346215Y0100564D01*
X0346130Y0100334D01*
X0346039Y0100106D01*
X0345942Y0099881D01*
X0345840Y0099657D01*
X0345732Y0099437D01*
X0345619Y0099219D01*
X0345501Y0099004D01*
X0345377Y0098792D01*
X0345249Y0098583D01*
X0345115Y0098377D01*
X0344976Y0098175D01*
X0344832Y0097976D01*
X0344683Y0097781D01*
X0344530Y0097589D01*
X0344372Y0097401D01*
X0344210Y0097217D01*
X0344042Y0097038D01*
X0343871Y0096862D01*
X0343695Y0096691D01*
X0343516Y0096523D01*
X0343332Y0096361D01*
X0343144Y0096203D01*
X0342952Y0096050D01*
X0342757Y0095901D01*
X0342558Y0095757D01*
X0342356Y0095618D01*
X0342150Y0095484D01*
X0341941Y0095356D01*
X0341729Y0095232D01*
X0341514Y0095114D01*
X0341296Y0095001D01*
X0341076Y0094893D01*
X0340852Y0094791D01*
X0340627Y0094694D01*
X0340399Y0094603D01*
X0340169Y0094518D01*
X0339937Y0094438D01*
X0339703Y0094364D01*
X0339467Y0094295D01*
X0339230Y0094233D01*
X0338991Y0094176D01*
X0338751Y0094125D01*
X0338510Y0094080D01*
X0338267Y0094041D01*
X0338024Y0094008D01*
X0337780Y0093981D01*
X0337536Y0093960D01*
X0337291Y0093945D01*
X0337045Y0093936D01*
X0336800Y0093933D01*
X0336555Y0093936D01*
X0336309Y0093945D01*
X0336064Y0093960D01*
X0335820Y0093981D01*
X0335576Y0094008D01*
X0335333Y0094041D01*
X0335090Y0094080D01*
X0334849Y0094125D01*
X0334609Y0094176D01*
X0334370Y0094233D01*
X0334133Y0094295D01*
X0333897Y0094364D01*
X0333663Y0094438D01*
X0333431Y0094518D01*
X0333201Y0094603D01*
X0332973Y0094694D01*
X0332748Y0094791D01*
X0332524Y0094893D01*
X0332304Y0095001D01*
X0332086Y0095114D01*
X0331871Y0095232D01*
X0331659Y0095356D01*
X0331450Y0095484D01*
X0331244Y0095618D01*
X0331042Y0095757D01*
X0330843Y0095901D01*
X0330648Y0096050D01*
X0330456Y0096203D01*
X0330268Y0096361D01*
X0330084Y0096523D01*
X0329905Y0096691D01*
X0329729Y0096862D01*
X0329558Y0097038D01*
X0329390Y0097217D01*
X0329228Y0097401D01*
X0329070Y0097589D01*
X0328917Y0097781D01*
X0328768Y0097976D01*
X0328624Y0098175D01*
X0328485Y0098377D01*
X0328351Y0098583D01*
X0328223Y0098792D01*
X0328099Y0099004D01*
X0327981Y0099219D01*
X0327868Y0099437D01*
X0327760Y0099657D01*
X0327658Y0099881D01*
X0327561Y0100106D01*
X0327470Y0100334D01*
X0327385Y0100564D01*
X0327305Y0100796D01*
X0327231Y0101030D01*
X0327162Y0101266D01*
X0327100Y0101503D01*
X0327043Y0101742D01*
X0326992Y0101982D01*
X0326947Y0102223D01*
X0326908Y0102466D01*
X0326875Y0102709D01*
X0326848Y0102953D01*
X0326827Y0103197D01*
X0326812Y0103442D01*
X0326803Y0103688D01*
X0326800Y0103933D01*
D16*
X0197800Y0105933D02*
X0197800Y0108933D01*
X0197800Y0111933D01*
X0195800Y0111933D02*
X0195800Y0108933D01*
X0195800Y0105933D01*
X0195800Y0210933D02*
X0195800Y0213933D01*
X0195800Y0216933D01*
X0197800Y0216933D02*
X0197800Y0213933D01*
X0197800Y0210933D01*
X0294300Y0213933D02*
X0294057Y0214120D01*
X0293819Y0214312D01*
X0293586Y0214511D01*
X0293358Y0214715D01*
X0293135Y0214924D01*
X0292917Y0215139D01*
X0292704Y0215359D01*
X0292497Y0215584D01*
X0292295Y0215815D01*
X0292099Y0216050D01*
X0291909Y0216290D01*
X0291725Y0216534D01*
X0291547Y0216783D01*
X0291375Y0217037D01*
X0291209Y0217294D01*
X0291049Y0217555D01*
X0290896Y0217820D01*
X0290750Y0218089D01*
X0290610Y0218362D01*
X0290477Y0218637D01*
X0290351Y0218916D01*
X0290231Y0219198D01*
X0290119Y0219483D01*
X0290014Y0219770D01*
X0289915Y0220060D01*
X0289824Y0220352D01*
X0289740Y0220647D01*
X0289663Y0220943D01*
X0289593Y0221241D01*
X0289531Y0221541D01*
X0289476Y0221842D01*
X0289429Y0222144D01*
X0289389Y0222448D01*
X0289356Y0222752D01*
X0289331Y0223057D01*
X0289313Y0223363D01*
X0289303Y0223669D01*
X0289300Y0223975D01*
X0289305Y0224281D01*
X0289317Y0224587D01*
X0289337Y0224893D01*
X0289364Y0225197D01*
X0289399Y0225502D01*
X0289441Y0225805D01*
X0289490Y0226107D01*
X0289547Y0226408D01*
X0289612Y0226707D01*
X0289683Y0227005D01*
X0289762Y0227300D01*
X0289848Y0227594D01*
X0289941Y0227886D01*
X0290042Y0228175D01*
X0290149Y0228462D01*
X0290264Y0228746D01*
X0290385Y0229027D01*
X0290513Y0229305D01*
X0290648Y0229580D01*
X0290790Y0229851D01*
X0290938Y0230119D01*
X0291093Y0230383D01*
X0291254Y0230643D01*
X0291421Y0230899D01*
X0291595Y0231152D01*
X0291775Y0231399D01*
X0291961Y0231643D01*
X0292152Y0231881D01*
X0292350Y0232115D01*
X0292553Y0232344D01*
X0292762Y0232568D01*
X0292976Y0232787D01*
X0293196Y0233000D01*
X0293420Y0233208D01*
X0293650Y0233411D01*
X0293884Y0233607D01*
X0294124Y0233798D01*
X0294367Y0233983D01*
X0294616Y0234162D01*
X0294868Y0234335D01*
X0295125Y0234502D01*
X0295386Y0234662D01*
X0295651Y0234816D01*
X0295919Y0234963D01*
X0296191Y0235104D01*
X0296466Y0235238D01*
X0296745Y0235365D01*
X0297026Y0235486D01*
X0297311Y0235599D01*
X0297598Y0235705D01*
X0297887Y0235805D01*
X0298179Y0235897D01*
X0298473Y0235982D01*
X0298769Y0236060D01*
X0299067Y0236131D01*
X0299367Y0236194D01*
X0299668Y0236250D01*
X0299970Y0236298D01*
X0300273Y0236339D01*
X0300577Y0236373D01*
X0300882Y0236399D01*
X0301188Y0236418D01*
X0301494Y0236429D01*
X0301800Y0236433D01*
X0302106Y0236429D01*
X0302412Y0236418D01*
X0302718Y0236399D01*
X0303023Y0236373D01*
X0303327Y0236339D01*
X0303630Y0236298D01*
X0303932Y0236250D01*
X0304233Y0236194D01*
X0304533Y0236131D01*
X0304831Y0236060D01*
X0305127Y0235982D01*
X0305421Y0235897D01*
X0305713Y0235805D01*
X0306002Y0235705D01*
X0306289Y0235599D01*
X0306574Y0235486D01*
X0306855Y0235365D01*
X0307134Y0235238D01*
X0307409Y0235104D01*
X0307681Y0234963D01*
X0307949Y0234816D01*
X0308214Y0234662D01*
X0308475Y0234502D01*
X0308732Y0234335D01*
X0308984Y0234162D01*
X0309233Y0233983D01*
X0309476Y0233798D01*
X0309716Y0233607D01*
X0309950Y0233411D01*
X0310180Y0233208D01*
X0310404Y0233000D01*
X0310624Y0232787D01*
X0310838Y0232568D01*
X0311047Y0232344D01*
X0311250Y0232115D01*
X0311448Y0231881D01*
X0311639Y0231643D01*
X0311825Y0231399D01*
X0312005Y0231152D01*
X0312179Y0230899D01*
X0312346Y0230643D01*
X0312507Y0230383D01*
X0312662Y0230119D01*
X0312810Y0229851D01*
X0312952Y0229580D01*
X0313087Y0229305D01*
X0313215Y0229027D01*
X0313336Y0228746D01*
X0313451Y0228462D01*
X0313558Y0228175D01*
X0313659Y0227886D01*
X0313752Y0227594D01*
X0313838Y0227300D01*
X0313917Y0227005D01*
X0313988Y0226707D01*
X0314053Y0226408D01*
X0314110Y0226107D01*
X0314159Y0225805D01*
X0314201Y0225502D01*
X0314236Y0225197D01*
X0314263Y0224893D01*
X0314283Y0224587D01*
X0314295Y0224281D01*
X0314300Y0223975D01*
X0314297Y0223669D01*
X0314287Y0223363D01*
X0314269Y0223057D01*
X0314244Y0222752D01*
X0314211Y0222448D01*
X0314171Y0222144D01*
X0314124Y0221842D01*
X0314069Y0221541D01*
X0314007Y0221241D01*
X0313937Y0220943D01*
X0313860Y0220647D01*
X0313776Y0220352D01*
X0313685Y0220060D01*
X0313586Y0219770D01*
X0313481Y0219483D01*
X0313369Y0219198D01*
X0313249Y0218916D01*
X0313123Y0218637D01*
X0312990Y0218362D01*
X0312850Y0218089D01*
X0312704Y0217820D01*
X0312551Y0217555D01*
X0312391Y0217294D01*
X0312225Y0217037D01*
X0312053Y0216783D01*
X0311875Y0216534D01*
X0311691Y0216290D01*
X0311501Y0216050D01*
X0311305Y0215815D01*
X0311103Y0215584D01*
X0310896Y0215359D01*
X0310683Y0215139D01*
X0310465Y0214924D01*
X0310242Y0214715D01*
X0310014Y0214511D01*
X0309781Y0214312D01*
X0309543Y0214120D01*
X0309300Y0213933D01*
X0099300Y0213933D02*
X0099543Y0214120D01*
X0099781Y0214312D01*
X0100014Y0214511D01*
X0100242Y0214715D01*
X0100465Y0214924D01*
X0100683Y0215139D01*
X0100896Y0215359D01*
X0101103Y0215584D01*
X0101305Y0215815D01*
X0101501Y0216050D01*
X0101691Y0216290D01*
X0101875Y0216534D01*
X0102053Y0216783D01*
X0102225Y0217037D01*
X0102391Y0217294D01*
X0102551Y0217555D01*
X0102704Y0217820D01*
X0102850Y0218089D01*
X0102990Y0218362D01*
X0103123Y0218637D01*
X0103249Y0218916D01*
X0103369Y0219198D01*
X0103481Y0219483D01*
X0103586Y0219770D01*
X0103685Y0220060D01*
X0103776Y0220352D01*
X0103860Y0220647D01*
X0103937Y0220943D01*
X0104007Y0221241D01*
X0104069Y0221541D01*
X0104124Y0221842D01*
X0104171Y0222144D01*
X0104211Y0222448D01*
X0104244Y0222752D01*
X0104269Y0223057D01*
X0104287Y0223363D01*
X0104297Y0223669D01*
X0104300Y0223975D01*
X0104295Y0224281D01*
X0104283Y0224587D01*
X0104263Y0224893D01*
X0104236Y0225197D01*
X0104201Y0225502D01*
X0104159Y0225805D01*
X0104110Y0226107D01*
X0104053Y0226408D01*
X0103988Y0226707D01*
X0103917Y0227005D01*
X0103838Y0227300D01*
X0103752Y0227594D01*
X0103659Y0227886D01*
X0103558Y0228175D01*
X0103451Y0228462D01*
X0103336Y0228746D01*
X0103215Y0229027D01*
X0103087Y0229305D01*
X0102952Y0229580D01*
X0102810Y0229851D01*
X0102662Y0230119D01*
X0102507Y0230383D01*
X0102346Y0230643D01*
X0102179Y0230899D01*
X0102005Y0231152D01*
X0101825Y0231399D01*
X0101639Y0231643D01*
X0101448Y0231881D01*
X0101250Y0232115D01*
X0101047Y0232344D01*
X0100838Y0232568D01*
X0100624Y0232787D01*
X0100404Y0233000D01*
X0100180Y0233208D01*
X0099950Y0233411D01*
X0099716Y0233607D01*
X0099476Y0233798D01*
X0099233Y0233983D01*
X0098984Y0234162D01*
X0098732Y0234335D01*
X0098475Y0234502D01*
X0098214Y0234662D01*
X0097949Y0234816D01*
X0097681Y0234963D01*
X0097409Y0235104D01*
X0097134Y0235238D01*
X0096855Y0235365D01*
X0096574Y0235486D01*
X0096289Y0235599D01*
X0096002Y0235705D01*
X0095713Y0235805D01*
X0095421Y0235897D01*
X0095127Y0235982D01*
X0094831Y0236060D01*
X0094533Y0236131D01*
X0094233Y0236194D01*
X0093932Y0236250D01*
X0093630Y0236298D01*
X0093327Y0236339D01*
X0093023Y0236373D01*
X0092718Y0236399D01*
X0092412Y0236418D01*
X0092106Y0236429D01*
X0091800Y0236433D01*
X0091494Y0236429D01*
X0091188Y0236418D01*
X0090882Y0236399D01*
X0090577Y0236373D01*
X0090273Y0236339D01*
X0089970Y0236298D01*
X0089668Y0236250D01*
X0089367Y0236194D01*
X0089067Y0236131D01*
X0088769Y0236060D01*
X0088473Y0235982D01*
X0088179Y0235897D01*
X0087887Y0235805D01*
X0087598Y0235705D01*
X0087311Y0235599D01*
X0087026Y0235486D01*
X0086745Y0235365D01*
X0086466Y0235238D01*
X0086191Y0235104D01*
X0085919Y0234963D01*
X0085651Y0234816D01*
X0085386Y0234662D01*
X0085125Y0234502D01*
X0084868Y0234335D01*
X0084616Y0234162D01*
X0084367Y0233983D01*
X0084124Y0233798D01*
X0083884Y0233607D01*
X0083650Y0233411D01*
X0083420Y0233208D01*
X0083196Y0233000D01*
X0082976Y0232787D01*
X0082762Y0232568D01*
X0082553Y0232344D01*
X0082350Y0232115D01*
X0082152Y0231881D01*
X0081961Y0231643D01*
X0081775Y0231399D01*
X0081595Y0231152D01*
X0081421Y0230899D01*
X0081254Y0230643D01*
X0081093Y0230383D01*
X0080938Y0230119D01*
X0080790Y0229851D01*
X0080648Y0229580D01*
X0080513Y0229305D01*
X0080385Y0229027D01*
X0080264Y0228746D01*
X0080149Y0228462D01*
X0080042Y0228175D01*
X0079941Y0227886D01*
X0079848Y0227594D01*
X0079762Y0227300D01*
X0079683Y0227005D01*
X0079612Y0226707D01*
X0079547Y0226408D01*
X0079490Y0226107D01*
X0079441Y0225805D01*
X0079399Y0225502D01*
X0079364Y0225197D01*
X0079337Y0224893D01*
X0079317Y0224587D01*
X0079305Y0224281D01*
X0079300Y0223975D01*
X0079303Y0223669D01*
X0079313Y0223363D01*
X0079331Y0223057D01*
X0079356Y0222752D01*
X0079389Y0222448D01*
X0079429Y0222144D01*
X0079476Y0221842D01*
X0079531Y0221541D01*
X0079593Y0221241D01*
X0079663Y0220943D01*
X0079740Y0220647D01*
X0079824Y0220352D01*
X0079915Y0220060D01*
X0080014Y0219770D01*
X0080119Y0219483D01*
X0080231Y0219198D01*
X0080351Y0218916D01*
X0080477Y0218637D01*
X0080610Y0218362D01*
X0080750Y0218089D01*
X0080896Y0217820D01*
X0081049Y0217555D01*
X0081209Y0217294D01*
X0081375Y0217037D01*
X0081547Y0216783D01*
X0081725Y0216534D01*
X0081909Y0216290D01*
X0082099Y0216050D01*
X0082295Y0215815D01*
X0082497Y0215584D01*
X0082704Y0215359D01*
X0082917Y0215139D01*
X0083135Y0214924D01*
X0083358Y0214715D01*
X0083586Y0214511D01*
X0083819Y0214312D01*
X0084057Y0214120D01*
X0084300Y0213933D01*
D17*
X0094146Y0208580D02*
X0098650Y0208580D01*
X0098650Y0207079D02*
X0098650Y0210082D01*
X0095647Y0207079D02*
X0094146Y0208580D01*
X0094897Y0205478D02*
X0094146Y0204727D01*
X0094146Y0202475D01*
X0098650Y0202475D01*
X0098650Y0204727D01*
X0097899Y0205478D01*
X0094897Y0205478D01*
X0103301Y0179687D02*
X0102550Y0178936D01*
X0102550Y0175934D01*
X0103301Y0175183D01*
X0104802Y0175183D01*
X0105553Y0175934D01*
X0107154Y0175934D02*
X0107154Y0175183D01*
X0107154Y0175934D02*
X0110156Y0178936D01*
X0110156Y0179687D01*
X0107154Y0179687D01*
X0105553Y0178936D02*
X0104802Y0179687D01*
X0103301Y0179687D01*
X0133046Y0179582D02*
X0133046Y0176579D01*
X0135298Y0176579D01*
X0134547Y0178080D01*
X0134547Y0178831D01*
X0135298Y0179582D01*
X0136799Y0179582D01*
X0137550Y0178831D01*
X0137550Y0177330D01*
X0136799Y0176579D01*
X0137550Y0174978D02*
X0136049Y0173476D01*
X0136049Y0174227D02*
X0136049Y0171975D01*
X0137550Y0171975D02*
X0133046Y0171975D01*
X0133046Y0174227D01*
X0133797Y0174978D01*
X0135298Y0174978D01*
X0136049Y0174227D01*
X0157546Y0154582D02*
X0157546Y0151579D01*
X0159798Y0151579D01*
X0159047Y0153080D01*
X0159047Y0153831D01*
X0159798Y0154582D01*
X0161299Y0154582D01*
X0162050Y0153831D01*
X0162050Y0152330D01*
X0161299Y0151579D01*
X0161299Y0149978D02*
X0162050Y0149227D01*
X0162050Y0147726D01*
X0161299Y0146975D01*
X0158297Y0146975D01*
X0157546Y0147726D01*
X0157546Y0149227D01*
X0158297Y0149978D01*
X0126156Y0137936D02*
X0126156Y0137186D01*
X0125406Y0136435D01*
X0126156Y0135684D01*
X0126156Y0134934D01*
X0125406Y0134183D01*
X0123905Y0134183D01*
X0123154Y0134934D01*
X0121553Y0134934D02*
X0121553Y0137936D01*
X0120802Y0138687D01*
X0118550Y0138687D01*
X0118550Y0134183D01*
X0120802Y0134183D01*
X0121553Y0134934D01*
X0123154Y0137936D02*
X0123905Y0138687D01*
X0125406Y0138687D01*
X0126156Y0137936D01*
X0125406Y0136435D02*
X0124655Y0136435D01*
X0136797Y0079790D02*
X0136046Y0079039D01*
X0136046Y0077538D01*
X0136797Y0076787D01*
X0136797Y0075186D02*
X0138298Y0075186D01*
X0139049Y0074435D01*
X0139049Y0072183D01*
X0140550Y0072183D02*
X0136046Y0072183D01*
X0136046Y0074435D01*
X0136797Y0075186D01*
X0139049Y0073684D02*
X0140550Y0075186D01*
X0140550Y0076787D02*
X0137547Y0079790D01*
X0136797Y0079790D01*
X0140550Y0079790D02*
X0140550Y0076787D01*
X0100550Y0076787D02*
X0100550Y0079790D01*
X0100550Y0078288D02*
X0096046Y0078288D01*
X0097547Y0076787D01*
X0096797Y0075186D02*
X0098298Y0075186D01*
X0099049Y0074435D01*
X0099049Y0072183D01*
X0100550Y0072183D02*
X0096046Y0072183D01*
X0096046Y0074435D01*
X0096797Y0075186D01*
X0099049Y0073684D02*
X0100550Y0075186D01*
X0045449Y0095934D02*
X0044698Y0095183D01*
X0043197Y0095183D01*
X0042446Y0095934D01*
X0040845Y0095934D02*
X0040094Y0095183D01*
X0038593Y0095183D01*
X0037842Y0095934D01*
X0037842Y0098936D01*
X0038593Y0099687D01*
X0040094Y0099687D01*
X0040845Y0098936D01*
X0042446Y0098936D02*
X0043197Y0099687D01*
X0044698Y0099687D01*
X0045449Y0098936D01*
X0045449Y0098186D01*
X0044698Y0097435D01*
X0045449Y0096684D01*
X0045449Y0095934D01*
X0044698Y0097435D02*
X0043947Y0097435D01*
X0043483Y0122183D02*
X0044050Y0122750D01*
X0044050Y0123885D01*
X0043483Y0124452D01*
X0042916Y0124452D01*
X0042349Y0123885D01*
X0042349Y0123317D01*
X0042349Y0123885D02*
X0041781Y0124452D01*
X0041214Y0124452D01*
X0040647Y0123885D01*
X0040647Y0122750D01*
X0041214Y0122183D01*
X0041781Y0142683D02*
X0040647Y0143817D01*
X0044050Y0143817D01*
X0044050Y0142683D02*
X0044050Y0144952D01*
X0046046Y0157183D02*
X0046046Y0159435D01*
X0046797Y0160186D01*
X0048298Y0160186D01*
X0049049Y0159435D01*
X0049049Y0157183D01*
X0050550Y0157183D02*
X0046046Y0157183D01*
X0049049Y0158684D02*
X0050550Y0160186D01*
X0049799Y0161787D02*
X0050550Y0162538D01*
X0050550Y0164039D01*
X0049799Y0164790D01*
X0049049Y0164790D01*
X0048298Y0164039D01*
X0048298Y0162538D01*
X0047547Y0161787D01*
X0046797Y0161787D01*
X0046046Y0162538D01*
X0046046Y0164039D01*
X0046797Y0164790D01*
X0047547Y0164790D01*
X0048298Y0164039D01*
X0048298Y0162538D02*
X0049049Y0161787D01*
X0049799Y0161787D01*
X0016050Y0132643D02*
X0016050Y0131142D01*
X0015299Y0130391D01*
X0012297Y0133393D01*
X0015299Y0133393D01*
X0016050Y0132643D01*
X0015299Y0130391D02*
X0012297Y0130391D01*
X0011546Y0131142D01*
X0011546Y0132643D01*
X0012297Y0133393D01*
X0016050Y0128790D02*
X0016050Y0125787D01*
X0016050Y0127288D02*
X0011546Y0127288D01*
X0013047Y0125787D01*
X0012297Y0124186D02*
X0013798Y0124186D01*
X0014549Y0123435D01*
X0014549Y0121183D01*
X0016050Y0121183D02*
X0011546Y0121183D01*
X0011546Y0123435D01*
X0012297Y0124186D01*
X0014549Y0122684D02*
X0016050Y0124186D01*
X0185050Y0201434D02*
X0185801Y0200683D01*
X0187302Y0200683D01*
X0188053Y0201434D01*
X0188053Y0205187D01*
X0189654Y0203686D02*
X0191155Y0205187D01*
X0191155Y0200683D01*
X0189654Y0200683D02*
X0192656Y0200683D01*
X0185050Y0201434D02*
X0185050Y0205187D01*
X0188801Y0220183D02*
X0190302Y0220183D01*
X0191053Y0220934D01*
X0192654Y0220183D02*
X0195656Y0220183D01*
X0194155Y0220183D02*
X0194155Y0224687D01*
X0192654Y0223186D01*
X0191053Y0223936D02*
X0190302Y0224687D01*
X0188801Y0224687D01*
X0188050Y0223936D01*
X0188050Y0220934D01*
X0188801Y0220183D01*
X0247546Y0154582D02*
X0248297Y0153080D01*
X0249798Y0151579D01*
X0249798Y0153831D01*
X0250549Y0154582D01*
X0251299Y0154582D01*
X0252050Y0153831D01*
X0252050Y0152330D01*
X0251299Y0151579D01*
X0249798Y0151579D01*
X0248297Y0149978D02*
X0247546Y0149227D01*
X0247546Y0147726D01*
X0248297Y0146975D01*
X0251299Y0146975D01*
X0252050Y0147726D01*
X0252050Y0149227D01*
X0251299Y0149978D01*
X0273046Y0171975D02*
X0273046Y0174227D01*
X0273797Y0174978D01*
X0275298Y0174978D01*
X0276049Y0174227D01*
X0276049Y0171975D01*
X0277550Y0171975D02*
X0273046Y0171975D01*
X0276049Y0173476D02*
X0277550Y0174978D01*
X0276799Y0176579D02*
X0277550Y0177330D01*
X0277550Y0178831D01*
X0276799Y0179582D01*
X0276049Y0179582D01*
X0275298Y0178831D01*
X0275298Y0176579D01*
X0276799Y0176579D01*
X0275298Y0176579D02*
X0273797Y0178080D01*
X0273046Y0179582D01*
X0283093Y0162687D02*
X0282342Y0161936D01*
X0282342Y0158934D01*
X0283093Y0158183D01*
X0284594Y0158183D01*
X0285345Y0158934D01*
X0286946Y0158934D02*
X0286946Y0159684D01*
X0287697Y0160435D01*
X0289198Y0160435D01*
X0289949Y0159684D01*
X0289949Y0158934D01*
X0289198Y0158183D01*
X0287697Y0158183D01*
X0286946Y0158934D01*
X0287697Y0160435D02*
X0286946Y0161186D01*
X0286946Y0161936D01*
X0287697Y0162687D01*
X0289198Y0162687D01*
X0289949Y0161936D01*
X0289949Y0161186D01*
X0289198Y0160435D01*
X0285345Y0161936D02*
X0284594Y0162687D01*
X0283093Y0162687D01*
X0326046Y0161787D02*
X0326046Y0164790D01*
X0326797Y0164790D01*
X0329799Y0161787D01*
X0330550Y0161787D01*
X0330550Y0160186D02*
X0329049Y0158684D01*
X0329049Y0159435D02*
X0329049Y0157183D01*
X0330550Y0157183D02*
X0326046Y0157183D01*
X0326046Y0159435D01*
X0326797Y0160186D01*
X0328298Y0160186D01*
X0329049Y0159435D01*
X0349547Y0144293D02*
X0349547Y0143159D01*
X0350114Y0142592D01*
X0351249Y0143726D02*
X0351249Y0144293D01*
X0351816Y0144861D01*
X0352383Y0144861D01*
X0352950Y0144293D01*
X0352950Y0143159D01*
X0352383Y0142592D01*
X0351249Y0144293D02*
X0350681Y0144861D01*
X0350114Y0144861D01*
X0349547Y0144293D01*
X0352950Y0124361D02*
X0352950Y0122092D01*
X0352950Y0123226D02*
X0349547Y0123226D01*
X0350681Y0122092D01*
X0349302Y0112687D02*
X0347801Y0112687D01*
X0347050Y0111936D01*
X0347050Y0108934D01*
X0347801Y0108183D01*
X0349302Y0108183D01*
X0350053Y0108934D01*
X0351654Y0110435D02*
X0354656Y0110435D01*
X0353906Y0108183D02*
X0353906Y0112687D01*
X0351654Y0110435D01*
X0350053Y0111936D02*
X0349302Y0112687D01*
X0377546Y0137975D02*
X0377546Y0140227D01*
X0378297Y0140978D01*
X0379798Y0140978D01*
X0380549Y0140227D01*
X0380549Y0137975D01*
X0382050Y0137975D02*
X0377546Y0137975D01*
X0380549Y0139476D02*
X0382050Y0140978D01*
X0381299Y0142579D02*
X0382050Y0143330D01*
X0382050Y0144831D01*
X0381299Y0145582D01*
X0378297Y0145582D01*
X0377546Y0144831D01*
X0377546Y0143330D01*
X0378297Y0142579D01*
X0379047Y0142579D01*
X0379798Y0143330D01*
X0379798Y0145582D01*
X0308650Y0202475D02*
X0304146Y0202475D01*
X0304146Y0204727D01*
X0304897Y0205478D01*
X0307899Y0205478D01*
X0308650Y0204727D01*
X0308650Y0202475D01*
X0308650Y0207079D02*
X0305647Y0210082D01*
X0304897Y0210082D01*
X0304146Y0209331D01*
X0304146Y0207830D01*
X0304897Y0207079D01*
X0308650Y0207079D02*
X0308650Y0210082D01*
X0273198Y0123687D02*
X0270946Y0121435D01*
X0273949Y0121435D01*
X0273198Y0119183D02*
X0273198Y0123687D01*
X0269345Y0122936D02*
X0269345Y0119934D01*
X0268594Y0119183D01*
X0266342Y0119183D01*
X0266342Y0123687D01*
X0268594Y0123687D01*
X0269345Y0122936D01*
X0255298Y0094582D02*
X0255298Y0091579D01*
X0253046Y0093831D01*
X0257550Y0093831D01*
X0257550Y0089978D02*
X0256049Y0088476D01*
X0256049Y0089227D02*
X0256049Y0086975D01*
X0257550Y0086975D02*
X0253046Y0086975D01*
X0253046Y0089227D01*
X0253797Y0089978D01*
X0255298Y0089978D01*
X0256049Y0089227D01*
X0293046Y0089227D02*
X0293046Y0086975D01*
X0297550Y0086975D01*
X0296049Y0086975D02*
X0296049Y0089227D01*
X0295298Y0089978D01*
X0293797Y0089978D01*
X0293046Y0089227D01*
X0293797Y0091579D02*
X0293046Y0092330D01*
X0293046Y0093831D01*
X0293797Y0094582D01*
X0294547Y0094582D01*
X0295298Y0093831D01*
X0296049Y0094582D01*
X0296799Y0094582D01*
X0297550Y0093831D01*
X0297550Y0092330D01*
X0296799Y0091579D01*
X0297550Y0089978D02*
X0296049Y0088476D01*
X0295298Y0093080D02*
X0295298Y0093831D01*
X0204449Y0098183D02*
X0201446Y0098183D01*
X0204449Y0101186D01*
X0204449Y0101936D01*
X0203698Y0102687D01*
X0202197Y0102687D01*
X0201446Y0101936D01*
X0199845Y0101936D02*
X0199094Y0102687D01*
X0197593Y0102687D01*
X0196842Y0101936D01*
X0196842Y0098934D01*
X0197593Y0098183D01*
X0199094Y0098183D01*
X0199845Y0098934D01*
D18*
X0273300Y0128933D03*
X0120300Y0128933D03*
D19*
X0114050Y0128933D03*
X0139550Y0128933D03*
X0254050Y0128933D03*
X0279550Y0128933D03*
D20*
X0212548Y0086728D02*
X0206052Y0086728D01*
X0206052Y0084760D02*
X0212548Y0084760D01*
X0212548Y0086728D01*
X0207548Y0078854D02*
X0181052Y0078854D01*
X0181052Y0084760D01*
X0187548Y0084760D01*
X0187548Y0086728D02*
X0181052Y0086728D01*
X0181052Y0084760D01*
X0181052Y0078854D02*
X0179083Y0078854D01*
X0179083Y0031610D01*
X0184202Y0031610D01*
X0184202Y0035547D01*
X0184202Y0031610D02*
X0209398Y0031610D01*
X0209398Y0035547D01*
X0209398Y0031610D02*
X0214517Y0031610D01*
X0214517Y0063854D01*
X0209398Y0063106D02*
X0209398Y0067043D01*
X0207036Y0067043D01*
X0203099Y0067043D02*
X0200737Y0067043D01*
X0192863Y0067043D01*
X0190501Y0067043D01*
X0186564Y0067043D02*
X0184202Y0067043D01*
X0184202Y0063106D01*
X0184202Y0059169D02*
X0184202Y0055232D01*
X0184202Y0051295D02*
X0184202Y0047358D01*
X0181052Y0045390D02*
X0181052Y0078854D01*
X0209398Y0059169D02*
X0209398Y0055232D01*
X0209398Y0051295D02*
X0209398Y0047358D01*
X0209398Y0043421D02*
X0209398Y0039484D01*
X0214517Y0045390D02*
X0181052Y0045390D01*
X0179083Y0045390D01*
X0184202Y0043421D02*
X0184202Y0039484D01*
X0192863Y0039484D02*
X0192865Y0039360D01*
X0192871Y0039237D01*
X0192880Y0039113D01*
X0192894Y0038991D01*
X0192911Y0038868D01*
X0192933Y0038746D01*
X0192958Y0038625D01*
X0192987Y0038505D01*
X0193019Y0038386D01*
X0193056Y0038267D01*
X0193096Y0038150D01*
X0193139Y0038035D01*
X0193187Y0037920D01*
X0193238Y0037808D01*
X0193292Y0037697D01*
X0193350Y0037587D01*
X0193411Y0037480D01*
X0193476Y0037374D01*
X0193544Y0037271D01*
X0193615Y0037170D01*
X0193689Y0037071D01*
X0193766Y0036974D01*
X0193847Y0036880D01*
X0193930Y0036789D01*
X0194016Y0036700D01*
X0194105Y0036614D01*
X0194196Y0036531D01*
X0194290Y0036450D01*
X0194387Y0036373D01*
X0194486Y0036299D01*
X0194587Y0036228D01*
X0194690Y0036160D01*
X0194796Y0036095D01*
X0194903Y0036034D01*
X0195013Y0035976D01*
X0195124Y0035922D01*
X0195236Y0035871D01*
X0195351Y0035823D01*
X0195466Y0035780D01*
X0195583Y0035740D01*
X0195702Y0035703D01*
X0195821Y0035671D01*
X0195941Y0035642D01*
X0196062Y0035617D01*
X0196184Y0035595D01*
X0196307Y0035578D01*
X0196429Y0035564D01*
X0196553Y0035555D01*
X0196676Y0035549D01*
X0196800Y0035547D01*
X0196924Y0035549D01*
X0197047Y0035555D01*
X0197171Y0035564D01*
X0197293Y0035578D01*
X0197416Y0035595D01*
X0197538Y0035617D01*
X0197659Y0035642D01*
X0197779Y0035671D01*
X0197898Y0035703D01*
X0198017Y0035740D01*
X0198134Y0035780D01*
X0198249Y0035823D01*
X0198364Y0035871D01*
X0198476Y0035922D01*
X0198587Y0035976D01*
X0198697Y0036034D01*
X0198804Y0036095D01*
X0198910Y0036160D01*
X0199013Y0036228D01*
X0199114Y0036299D01*
X0199213Y0036373D01*
X0199310Y0036450D01*
X0199404Y0036531D01*
X0199495Y0036614D01*
X0199584Y0036700D01*
X0199670Y0036789D01*
X0199753Y0036880D01*
X0199834Y0036974D01*
X0199911Y0037071D01*
X0199985Y0037170D01*
X0200056Y0037271D01*
X0200124Y0037374D01*
X0200189Y0037480D01*
X0200250Y0037587D01*
X0200308Y0037697D01*
X0200362Y0037808D01*
X0200413Y0037920D01*
X0200461Y0038035D01*
X0200504Y0038150D01*
X0200544Y0038267D01*
X0200581Y0038386D01*
X0200613Y0038505D01*
X0200642Y0038625D01*
X0200667Y0038746D01*
X0200689Y0038868D01*
X0200706Y0038991D01*
X0200720Y0039113D01*
X0200729Y0039237D01*
X0200735Y0039360D01*
X0200737Y0039484D01*
D21*
X0176600Y0038737D02*
X0176600Y0041806D01*
X0176600Y0040272D02*
X0171996Y0040272D01*
X0173531Y0038737D01*
X0171996Y0037202D02*
X0171996Y0035668D01*
X0171996Y0036435D02*
X0175833Y0036435D01*
X0176600Y0035668D01*
X0176600Y0034900D01*
X0175833Y0034133D01*
D22*
X0146800Y0069733D03*
X0146800Y0098133D03*
X0106800Y0098133D03*
X0106800Y0069733D03*
X0126800Y0154733D03*
X0126800Y0183133D03*
X0056800Y0183133D03*
X0056800Y0154733D03*
X0246800Y0098133D03*
X0246800Y0069733D03*
X0286800Y0069733D03*
X0286800Y0098133D03*
X0266800Y0154733D03*
X0266800Y0183133D03*
X0336800Y0183133D03*
X0336800Y0154733D03*
D23*
X0244800Y0150133D02*
X0238800Y0150133D01*
X0238800Y0147633D02*
X0244800Y0147633D01*
X0154800Y0147633D02*
X0148800Y0147633D01*
X0148800Y0150133D02*
X0154800Y0150133D01*
D24*
X0099300Y0213933D02*
X0084300Y0213933D01*
X0294300Y0213933D02*
X0309300Y0213933D01*
M02*
