G75*
%MOIN*%
%OFA0B0*%
%FSLAX25Y25*%
%IPPOS*%
%LPD*%
%AMOC8*
5,1,8,0,0,1.08239X$1,22.5*
%
%ADD10C,0.00000*%
%ADD11OC8,0.05200*%
%ADD12C,0.05200*%
%ADD13OC8,0.06300*%
%ADD14C,0.06300*%
%ADD15C,0.05200*%
%ADD16C,0.08600*%
%ADD17C,0.04000*%
%ADD18C,0.01600*%
D10*
X0026800Y0023933D02*
X0366800Y0023933D01*
X0353800Y0048933D02*
X0353804Y0049252D01*
X0353816Y0049571D01*
X0353835Y0049889D01*
X0353863Y0050207D01*
X0353898Y0050524D01*
X0353941Y0050840D01*
X0353991Y0051156D01*
X0354050Y0051469D01*
X0354116Y0051781D01*
X0354190Y0052092D01*
X0354271Y0052400D01*
X0354360Y0052707D01*
X0354456Y0053011D01*
X0354560Y0053313D01*
X0354671Y0053612D01*
X0354790Y0053908D01*
X0354915Y0054201D01*
X0355048Y0054491D01*
X0355188Y0054778D01*
X0355335Y0055061D01*
X0355489Y0055341D01*
X0355650Y0055616D01*
X0355817Y0055888D01*
X0355991Y0056155D01*
X0356171Y0056419D01*
X0356358Y0056677D01*
X0356551Y0056931D01*
X0356751Y0057180D01*
X0356956Y0057424D01*
X0357168Y0057663D01*
X0357385Y0057897D01*
X0357608Y0058125D01*
X0357836Y0058348D01*
X0358070Y0058565D01*
X0358309Y0058777D01*
X0358553Y0058982D01*
X0358802Y0059182D01*
X0359056Y0059375D01*
X0359314Y0059562D01*
X0359578Y0059742D01*
X0359845Y0059916D01*
X0360117Y0060083D01*
X0360392Y0060244D01*
X0360672Y0060398D01*
X0360955Y0060545D01*
X0361242Y0060685D01*
X0361532Y0060818D01*
X0361825Y0060943D01*
X0362121Y0061062D01*
X0362420Y0061173D01*
X0362722Y0061277D01*
X0363026Y0061373D01*
X0363333Y0061462D01*
X0363641Y0061543D01*
X0363952Y0061617D01*
X0364264Y0061683D01*
X0364577Y0061742D01*
X0364893Y0061792D01*
X0365209Y0061835D01*
X0365526Y0061870D01*
X0365844Y0061898D01*
X0366162Y0061917D01*
X0366481Y0061929D01*
X0366800Y0061933D01*
X0367119Y0061929D01*
X0367438Y0061917D01*
X0367756Y0061898D01*
X0368074Y0061870D01*
X0368391Y0061835D01*
X0368707Y0061792D01*
X0369023Y0061742D01*
X0369336Y0061683D01*
X0369648Y0061617D01*
X0369959Y0061543D01*
X0370267Y0061462D01*
X0370574Y0061373D01*
X0370878Y0061277D01*
X0371180Y0061173D01*
X0371479Y0061062D01*
X0371775Y0060943D01*
X0372068Y0060818D01*
X0372358Y0060685D01*
X0372645Y0060545D01*
X0372928Y0060398D01*
X0373208Y0060244D01*
X0373483Y0060083D01*
X0373755Y0059916D01*
X0374022Y0059742D01*
X0374286Y0059562D01*
X0374544Y0059375D01*
X0374798Y0059182D01*
X0375047Y0058982D01*
X0375291Y0058777D01*
X0375530Y0058565D01*
X0375764Y0058348D01*
X0375992Y0058125D01*
X0376215Y0057897D01*
X0376432Y0057663D01*
X0376644Y0057424D01*
X0376849Y0057180D01*
X0377049Y0056931D01*
X0377242Y0056677D01*
X0377429Y0056419D01*
X0377609Y0056155D01*
X0377783Y0055888D01*
X0377950Y0055616D01*
X0378111Y0055341D01*
X0378265Y0055061D01*
X0378412Y0054778D01*
X0378552Y0054491D01*
X0378685Y0054201D01*
X0378810Y0053908D01*
X0378929Y0053612D01*
X0379040Y0053313D01*
X0379144Y0053011D01*
X0379240Y0052707D01*
X0379329Y0052400D01*
X0379410Y0052092D01*
X0379484Y0051781D01*
X0379550Y0051469D01*
X0379609Y0051156D01*
X0379659Y0050840D01*
X0379702Y0050524D01*
X0379737Y0050207D01*
X0379765Y0049889D01*
X0379784Y0049571D01*
X0379796Y0049252D01*
X0379800Y0048933D01*
X0379796Y0048614D01*
X0379784Y0048295D01*
X0379765Y0047977D01*
X0379737Y0047659D01*
X0379702Y0047342D01*
X0379659Y0047026D01*
X0379609Y0046710D01*
X0379550Y0046397D01*
X0379484Y0046085D01*
X0379410Y0045774D01*
X0379329Y0045466D01*
X0379240Y0045159D01*
X0379144Y0044855D01*
X0379040Y0044553D01*
X0378929Y0044254D01*
X0378810Y0043958D01*
X0378685Y0043665D01*
X0378552Y0043375D01*
X0378412Y0043088D01*
X0378265Y0042805D01*
X0378111Y0042525D01*
X0377950Y0042250D01*
X0377783Y0041978D01*
X0377609Y0041711D01*
X0377429Y0041447D01*
X0377242Y0041189D01*
X0377049Y0040935D01*
X0376849Y0040686D01*
X0376644Y0040442D01*
X0376432Y0040203D01*
X0376215Y0039969D01*
X0375992Y0039741D01*
X0375764Y0039518D01*
X0375530Y0039301D01*
X0375291Y0039089D01*
X0375047Y0038884D01*
X0374798Y0038684D01*
X0374544Y0038491D01*
X0374286Y0038304D01*
X0374022Y0038124D01*
X0373755Y0037950D01*
X0373483Y0037783D01*
X0373208Y0037622D01*
X0372928Y0037468D01*
X0372645Y0037321D01*
X0372358Y0037181D01*
X0372068Y0037048D01*
X0371775Y0036923D01*
X0371479Y0036804D01*
X0371180Y0036693D01*
X0370878Y0036589D01*
X0370574Y0036493D01*
X0370267Y0036404D01*
X0369959Y0036323D01*
X0369648Y0036249D01*
X0369336Y0036183D01*
X0369023Y0036124D01*
X0368707Y0036074D01*
X0368391Y0036031D01*
X0368074Y0035996D01*
X0367756Y0035968D01*
X0367438Y0035949D01*
X0367119Y0035937D01*
X0366800Y0035933D01*
X0366481Y0035937D01*
X0366162Y0035949D01*
X0365844Y0035968D01*
X0365526Y0035996D01*
X0365209Y0036031D01*
X0364893Y0036074D01*
X0364577Y0036124D01*
X0364264Y0036183D01*
X0363952Y0036249D01*
X0363641Y0036323D01*
X0363333Y0036404D01*
X0363026Y0036493D01*
X0362722Y0036589D01*
X0362420Y0036693D01*
X0362121Y0036804D01*
X0361825Y0036923D01*
X0361532Y0037048D01*
X0361242Y0037181D01*
X0360955Y0037321D01*
X0360672Y0037468D01*
X0360392Y0037622D01*
X0360117Y0037783D01*
X0359845Y0037950D01*
X0359578Y0038124D01*
X0359314Y0038304D01*
X0359056Y0038491D01*
X0358802Y0038684D01*
X0358553Y0038884D01*
X0358309Y0039089D01*
X0358070Y0039301D01*
X0357836Y0039518D01*
X0357608Y0039741D01*
X0357385Y0039969D01*
X0357168Y0040203D01*
X0356956Y0040442D01*
X0356751Y0040686D01*
X0356551Y0040935D01*
X0356358Y0041189D01*
X0356171Y0041447D01*
X0355991Y0041711D01*
X0355817Y0041978D01*
X0355650Y0042250D01*
X0355489Y0042525D01*
X0355335Y0042805D01*
X0355188Y0043088D01*
X0355048Y0043375D01*
X0354915Y0043665D01*
X0354790Y0043958D01*
X0354671Y0044254D01*
X0354560Y0044553D01*
X0354456Y0044855D01*
X0354360Y0045159D01*
X0354271Y0045466D01*
X0354190Y0045774D01*
X0354116Y0046085D01*
X0354050Y0046397D01*
X0353991Y0046710D01*
X0353941Y0047026D01*
X0353898Y0047342D01*
X0353863Y0047659D01*
X0353835Y0047977D01*
X0353816Y0048295D01*
X0353804Y0048614D01*
X0353800Y0048933D01*
X0366800Y0023933D02*
X0367404Y0023940D01*
X0368008Y0023962D01*
X0368611Y0023999D01*
X0369213Y0024050D01*
X0369813Y0024115D01*
X0370412Y0024195D01*
X0371009Y0024290D01*
X0371603Y0024399D01*
X0372195Y0024522D01*
X0372783Y0024659D01*
X0373368Y0024811D01*
X0373949Y0024977D01*
X0374525Y0025157D01*
X0375098Y0025350D01*
X0375665Y0025558D01*
X0376227Y0025779D01*
X0376784Y0026013D01*
X0377335Y0026261D01*
X0377880Y0026522D01*
X0378418Y0026797D01*
X0378950Y0027084D01*
X0379474Y0027384D01*
X0379991Y0027696D01*
X0380500Y0028021D01*
X0381002Y0028358D01*
X0381495Y0028708D01*
X0381979Y0029069D01*
X0382455Y0029441D01*
X0382921Y0029825D01*
X0383378Y0030220D01*
X0383825Y0030626D01*
X0384263Y0031043D01*
X0384690Y0031470D01*
X0385107Y0031908D01*
X0385513Y0032355D01*
X0385908Y0032812D01*
X0386292Y0033278D01*
X0386664Y0033754D01*
X0387025Y0034238D01*
X0387375Y0034731D01*
X0387712Y0035233D01*
X0388037Y0035742D01*
X0388349Y0036259D01*
X0388649Y0036783D01*
X0388936Y0037315D01*
X0389211Y0037853D01*
X0389472Y0038398D01*
X0389720Y0038949D01*
X0389954Y0039506D01*
X0390175Y0040068D01*
X0390383Y0040635D01*
X0390576Y0041208D01*
X0390756Y0041784D01*
X0390922Y0042365D01*
X0391074Y0042950D01*
X0391211Y0043538D01*
X0391334Y0044130D01*
X0391443Y0044724D01*
X0391538Y0045321D01*
X0391618Y0045920D01*
X0391683Y0046520D01*
X0391734Y0047122D01*
X0391771Y0047725D01*
X0391793Y0048329D01*
X0391800Y0048933D01*
X0391800Y0298933D01*
X0353800Y0298933D02*
X0353804Y0299252D01*
X0353816Y0299571D01*
X0353835Y0299889D01*
X0353863Y0300207D01*
X0353898Y0300524D01*
X0353941Y0300840D01*
X0353991Y0301156D01*
X0354050Y0301469D01*
X0354116Y0301781D01*
X0354190Y0302092D01*
X0354271Y0302400D01*
X0354360Y0302707D01*
X0354456Y0303011D01*
X0354560Y0303313D01*
X0354671Y0303612D01*
X0354790Y0303908D01*
X0354915Y0304201D01*
X0355048Y0304491D01*
X0355188Y0304778D01*
X0355335Y0305061D01*
X0355489Y0305341D01*
X0355650Y0305616D01*
X0355817Y0305888D01*
X0355991Y0306155D01*
X0356171Y0306419D01*
X0356358Y0306677D01*
X0356551Y0306931D01*
X0356751Y0307180D01*
X0356956Y0307424D01*
X0357168Y0307663D01*
X0357385Y0307897D01*
X0357608Y0308125D01*
X0357836Y0308348D01*
X0358070Y0308565D01*
X0358309Y0308777D01*
X0358553Y0308982D01*
X0358802Y0309182D01*
X0359056Y0309375D01*
X0359314Y0309562D01*
X0359578Y0309742D01*
X0359845Y0309916D01*
X0360117Y0310083D01*
X0360392Y0310244D01*
X0360672Y0310398D01*
X0360955Y0310545D01*
X0361242Y0310685D01*
X0361532Y0310818D01*
X0361825Y0310943D01*
X0362121Y0311062D01*
X0362420Y0311173D01*
X0362722Y0311277D01*
X0363026Y0311373D01*
X0363333Y0311462D01*
X0363641Y0311543D01*
X0363952Y0311617D01*
X0364264Y0311683D01*
X0364577Y0311742D01*
X0364893Y0311792D01*
X0365209Y0311835D01*
X0365526Y0311870D01*
X0365844Y0311898D01*
X0366162Y0311917D01*
X0366481Y0311929D01*
X0366800Y0311933D01*
X0367119Y0311929D01*
X0367438Y0311917D01*
X0367756Y0311898D01*
X0368074Y0311870D01*
X0368391Y0311835D01*
X0368707Y0311792D01*
X0369023Y0311742D01*
X0369336Y0311683D01*
X0369648Y0311617D01*
X0369959Y0311543D01*
X0370267Y0311462D01*
X0370574Y0311373D01*
X0370878Y0311277D01*
X0371180Y0311173D01*
X0371479Y0311062D01*
X0371775Y0310943D01*
X0372068Y0310818D01*
X0372358Y0310685D01*
X0372645Y0310545D01*
X0372928Y0310398D01*
X0373208Y0310244D01*
X0373483Y0310083D01*
X0373755Y0309916D01*
X0374022Y0309742D01*
X0374286Y0309562D01*
X0374544Y0309375D01*
X0374798Y0309182D01*
X0375047Y0308982D01*
X0375291Y0308777D01*
X0375530Y0308565D01*
X0375764Y0308348D01*
X0375992Y0308125D01*
X0376215Y0307897D01*
X0376432Y0307663D01*
X0376644Y0307424D01*
X0376849Y0307180D01*
X0377049Y0306931D01*
X0377242Y0306677D01*
X0377429Y0306419D01*
X0377609Y0306155D01*
X0377783Y0305888D01*
X0377950Y0305616D01*
X0378111Y0305341D01*
X0378265Y0305061D01*
X0378412Y0304778D01*
X0378552Y0304491D01*
X0378685Y0304201D01*
X0378810Y0303908D01*
X0378929Y0303612D01*
X0379040Y0303313D01*
X0379144Y0303011D01*
X0379240Y0302707D01*
X0379329Y0302400D01*
X0379410Y0302092D01*
X0379484Y0301781D01*
X0379550Y0301469D01*
X0379609Y0301156D01*
X0379659Y0300840D01*
X0379702Y0300524D01*
X0379737Y0300207D01*
X0379765Y0299889D01*
X0379784Y0299571D01*
X0379796Y0299252D01*
X0379800Y0298933D01*
X0379796Y0298614D01*
X0379784Y0298295D01*
X0379765Y0297977D01*
X0379737Y0297659D01*
X0379702Y0297342D01*
X0379659Y0297026D01*
X0379609Y0296710D01*
X0379550Y0296397D01*
X0379484Y0296085D01*
X0379410Y0295774D01*
X0379329Y0295466D01*
X0379240Y0295159D01*
X0379144Y0294855D01*
X0379040Y0294553D01*
X0378929Y0294254D01*
X0378810Y0293958D01*
X0378685Y0293665D01*
X0378552Y0293375D01*
X0378412Y0293088D01*
X0378265Y0292805D01*
X0378111Y0292525D01*
X0377950Y0292250D01*
X0377783Y0291978D01*
X0377609Y0291711D01*
X0377429Y0291447D01*
X0377242Y0291189D01*
X0377049Y0290935D01*
X0376849Y0290686D01*
X0376644Y0290442D01*
X0376432Y0290203D01*
X0376215Y0289969D01*
X0375992Y0289741D01*
X0375764Y0289518D01*
X0375530Y0289301D01*
X0375291Y0289089D01*
X0375047Y0288884D01*
X0374798Y0288684D01*
X0374544Y0288491D01*
X0374286Y0288304D01*
X0374022Y0288124D01*
X0373755Y0287950D01*
X0373483Y0287783D01*
X0373208Y0287622D01*
X0372928Y0287468D01*
X0372645Y0287321D01*
X0372358Y0287181D01*
X0372068Y0287048D01*
X0371775Y0286923D01*
X0371479Y0286804D01*
X0371180Y0286693D01*
X0370878Y0286589D01*
X0370574Y0286493D01*
X0370267Y0286404D01*
X0369959Y0286323D01*
X0369648Y0286249D01*
X0369336Y0286183D01*
X0369023Y0286124D01*
X0368707Y0286074D01*
X0368391Y0286031D01*
X0368074Y0285996D01*
X0367756Y0285968D01*
X0367438Y0285949D01*
X0367119Y0285937D01*
X0366800Y0285933D01*
X0366481Y0285937D01*
X0366162Y0285949D01*
X0365844Y0285968D01*
X0365526Y0285996D01*
X0365209Y0286031D01*
X0364893Y0286074D01*
X0364577Y0286124D01*
X0364264Y0286183D01*
X0363952Y0286249D01*
X0363641Y0286323D01*
X0363333Y0286404D01*
X0363026Y0286493D01*
X0362722Y0286589D01*
X0362420Y0286693D01*
X0362121Y0286804D01*
X0361825Y0286923D01*
X0361532Y0287048D01*
X0361242Y0287181D01*
X0360955Y0287321D01*
X0360672Y0287468D01*
X0360392Y0287622D01*
X0360117Y0287783D01*
X0359845Y0287950D01*
X0359578Y0288124D01*
X0359314Y0288304D01*
X0359056Y0288491D01*
X0358802Y0288684D01*
X0358553Y0288884D01*
X0358309Y0289089D01*
X0358070Y0289301D01*
X0357836Y0289518D01*
X0357608Y0289741D01*
X0357385Y0289969D01*
X0357168Y0290203D01*
X0356956Y0290442D01*
X0356751Y0290686D01*
X0356551Y0290935D01*
X0356358Y0291189D01*
X0356171Y0291447D01*
X0355991Y0291711D01*
X0355817Y0291978D01*
X0355650Y0292250D01*
X0355489Y0292525D01*
X0355335Y0292805D01*
X0355188Y0293088D01*
X0355048Y0293375D01*
X0354915Y0293665D01*
X0354790Y0293958D01*
X0354671Y0294254D01*
X0354560Y0294553D01*
X0354456Y0294855D01*
X0354360Y0295159D01*
X0354271Y0295466D01*
X0354190Y0295774D01*
X0354116Y0296085D01*
X0354050Y0296397D01*
X0353991Y0296710D01*
X0353941Y0297026D01*
X0353898Y0297342D01*
X0353863Y0297659D01*
X0353835Y0297977D01*
X0353816Y0298295D01*
X0353804Y0298614D01*
X0353800Y0298933D01*
X0366800Y0323933D02*
X0367404Y0323926D01*
X0368008Y0323904D01*
X0368611Y0323867D01*
X0369213Y0323816D01*
X0369813Y0323751D01*
X0370412Y0323671D01*
X0371009Y0323576D01*
X0371603Y0323467D01*
X0372195Y0323344D01*
X0372783Y0323207D01*
X0373368Y0323055D01*
X0373949Y0322889D01*
X0374525Y0322709D01*
X0375098Y0322516D01*
X0375665Y0322308D01*
X0376227Y0322087D01*
X0376784Y0321853D01*
X0377335Y0321605D01*
X0377880Y0321344D01*
X0378418Y0321069D01*
X0378950Y0320782D01*
X0379474Y0320482D01*
X0379991Y0320170D01*
X0380500Y0319845D01*
X0381002Y0319508D01*
X0381495Y0319158D01*
X0381979Y0318797D01*
X0382455Y0318425D01*
X0382921Y0318041D01*
X0383378Y0317646D01*
X0383825Y0317240D01*
X0384263Y0316823D01*
X0384690Y0316396D01*
X0385107Y0315958D01*
X0385513Y0315511D01*
X0385908Y0315054D01*
X0386292Y0314588D01*
X0386664Y0314112D01*
X0387025Y0313628D01*
X0387375Y0313135D01*
X0387712Y0312633D01*
X0388037Y0312124D01*
X0388349Y0311607D01*
X0388649Y0311083D01*
X0388936Y0310551D01*
X0389211Y0310013D01*
X0389472Y0309468D01*
X0389720Y0308917D01*
X0389954Y0308360D01*
X0390175Y0307798D01*
X0390383Y0307231D01*
X0390576Y0306658D01*
X0390756Y0306082D01*
X0390922Y0305501D01*
X0391074Y0304916D01*
X0391211Y0304328D01*
X0391334Y0303736D01*
X0391443Y0303142D01*
X0391538Y0302545D01*
X0391618Y0301946D01*
X0391683Y0301346D01*
X0391734Y0300744D01*
X0391771Y0300141D01*
X0391793Y0299537D01*
X0391800Y0298933D01*
X0366800Y0323933D02*
X0026800Y0323933D01*
X0013800Y0298933D02*
X0013804Y0299252D01*
X0013816Y0299571D01*
X0013835Y0299889D01*
X0013863Y0300207D01*
X0013898Y0300524D01*
X0013941Y0300840D01*
X0013991Y0301156D01*
X0014050Y0301469D01*
X0014116Y0301781D01*
X0014190Y0302092D01*
X0014271Y0302400D01*
X0014360Y0302707D01*
X0014456Y0303011D01*
X0014560Y0303313D01*
X0014671Y0303612D01*
X0014790Y0303908D01*
X0014915Y0304201D01*
X0015048Y0304491D01*
X0015188Y0304778D01*
X0015335Y0305061D01*
X0015489Y0305341D01*
X0015650Y0305616D01*
X0015817Y0305888D01*
X0015991Y0306155D01*
X0016171Y0306419D01*
X0016358Y0306677D01*
X0016551Y0306931D01*
X0016751Y0307180D01*
X0016956Y0307424D01*
X0017168Y0307663D01*
X0017385Y0307897D01*
X0017608Y0308125D01*
X0017836Y0308348D01*
X0018070Y0308565D01*
X0018309Y0308777D01*
X0018553Y0308982D01*
X0018802Y0309182D01*
X0019056Y0309375D01*
X0019314Y0309562D01*
X0019578Y0309742D01*
X0019845Y0309916D01*
X0020117Y0310083D01*
X0020392Y0310244D01*
X0020672Y0310398D01*
X0020955Y0310545D01*
X0021242Y0310685D01*
X0021532Y0310818D01*
X0021825Y0310943D01*
X0022121Y0311062D01*
X0022420Y0311173D01*
X0022722Y0311277D01*
X0023026Y0311373D01*
X0023333Y0311462D01*
X0023641Y0311543D01*
X0023952Y0311617D01*
X0024264Y0311683D01*
X0024577Y0311742D01*
X0024893Y0311792D01*
X0025209Y0311835D01*
X0025526Y0311870D01*
X0025844Y0311898D01*
X0026162Y0311917D01*
X0026481Y0311929D01*
X0026800Y0311933D01*
X0027119Y0311929D01*
X0027438Y0311917D01*
X0027756Y0311898D01*
X0028074Y0311870D01*
X0028391Y0311835D01*
X0028707Y0311792D01*
X0029023Y0311742D01*
X0029336Y0311683D01*
X0029648Y0311617D01*
X0029959Y0311543D01*
X0030267Y0311462D01*
X0030574Y0311373D01*
X0030878Y0311277D01*
X0031180Y0311173D01*
X0031479Y0311062D01*
X0031775Y0310943D01*
X0032068Y0310818D01*
X0032358Y0310685D01*
X0032645Y0310545D01*
X0032928Y0310398D01*
X0033208Y0310244D01*
X0033483Y0310083D01*
X0033755Y0309916D01*
X0034022Y0309742D01*
X0034286Y0309562D01*
X0034544Y0309375D01*
X0034798Y0309182D01*
X0035047Y0308982D01*
X0035291Y0308777D01*
X0035530Y0308565D01*
X0035764Y0308348D01*
X0035992Y0308125D01*
X0036215Y0307897D01*
X0036432Y0307663D01*
X0036644Y0307424D01*
X0036849Y0307180D01*
X0037049Y0306931D01*
X0037242Y0306677D01*
X0037429Y0306419D01*
X0037609Y0306155D01*
X0037783Y0305888D01*
X0037950Y0305616D01*
X0038111Y0305341D01*
X0038265Y0305061D01*
X0038412Y0304778D01*
X0038552Y0304491D01*
X0038685Y0304201D01*
X0038810Y0303908D01*
X0038929Y0303612D01*
X0039040Y0303313D01*
X0039144Y0303011D01*
X0039240Y0302707D01*
X0039329Y0302400D01*
X0039410Y0302092D01*
X0039484Y0301781D01*
X0039550Y0301469D01*
X0039609Y0301156D01*
X0039659Y0300840D01*
X0039702Y0300524D01*
X0039737Y0300207D01*
X0039765Y0299889D01*
X0039784Y0299571D01*
X0039796Y0299252D01*
X0039800Y0298933D01*
X0039796Y0298614D01*
X0039784Y0298295D01*
X0039765Y0297977D01*
X0039737Y0297659D01*
X0039702Y0297342D01*
X0039659Y0297026D01*
X0039609Y0296710D01*
X0039550Y0296397D01*
X0039484Y0296085D01*
X0039410Y0295774D01*
X0039329Y0295466D01*
X0039240Y0295159D01*
X0039144Y0294855D01*
X0039040Y0294553D01*
X0038929Y0294254D01*
X0038810Y0293958D01*
X0038685Y0293665D01*
X0038552Y0293375D01*
X0038412Y0293088D01*
X0038265Y0292805D01*
X0038111Y0292525D01*
X0037950Y0292250D01*
X0037783Y0291978D01*
X0037609Y0291711D01*
X0037429Y0291447D01*
X0037242Y0291189D01*
X0037049Y0290935D01*
X0036849Y0290686D01*
X0036644Y0290442D01*
X0036432Y0290203D01*
X0036215Y0289969D01*
X0035992Y0289741D01*
X0035764Y0289518D01*
X0035530Y0289301D01*
X0035291Y0289089D01*
X0035047Y0288884D01*
X0034798Y0288684D01*
X0034544Y0288491D01*
X0034286Y0288304D01*
X0034022Y0288124D01*
X0033755Y0287950D01*
X0033483Y0287783D01*
X0033208Y0287622D01*
X0032928Y0287468D01*
X0032645Y0287321D01*
X0032358Y0287181D01*
X0032068Y0287048D01*
X0031775Y0286923D01*
X0031479Y0286804D01*
X0031180Y0286693D01*
X0030878Y0286589D01*
X0030574Y0286493D01*
X0030267Y0286404D01*
X0029959Y0286323D01*
X0029648Y0286249D01*
X0029336Y0286183D01*
X0029023Y0286124D01*
X0028707Y0286074D01*
X0028391Y0286031D01*
X0028074Y0285996D01*
X0027756Y0285968D01*
X0027438Y0285949D01*
X0027119Y0285937D01*
X0026800Y0285933D01*
X0026481Y0285937D01*
X0026162Y0285949D01*
X0025844Y0285968D01*
X0025526Y0285996D01*
X0025209Y0286031D01*
X0024893Y0286074D01*
X0024577Y0286124D01*
X0024264Y0286183D01*
X0023952Y0286249D01*
X0023641Y0286323D01*
X0023333Y0286404D01*
X0023026Y0286493D01*
X0022722Y0286589D01*
X0022420Y0286693D01*
X0022121Y0286804D01*
X0021825Y0286923D01*
X0021532Y0287048D01*
X0021242Y0287181D01*
X0020955Y0287321D01*
X0020672Y0287468D01*
X0020392Y0287622D01*
X0020117Y0287783D01*
X0019845Y0287950D01*
X0019578Y0288124D01*
X0019314Y0288304D01*
X0019056Y0288491D01*
X0018802Y0288684D01*
X0018553Y0288884D01*
X0018309Y0289089D01*
X0018070Y0289301D01*
X0017836Y0289518D01*
X0017608Y0289741D01*
X0017385Y0289969D01*
X0017168Y0290203D01*
X0016956Y0290442D01*
X0016751Y0290686D01*
X0016551Y0290935D01*
X0016358Y0291189D01*
X0016171Y0291447D01*
X0015991Y0291711D01*
X0015817Y0291978D01*
X0015650Y0292250D01*
X0015489Y0292525D01*
X0015335Y0292805D01*
X0015188Y0293088D01*
X0015048Y0293375D01*
X0014915Y0293665D01*
X0014790Y0293958D01*
X0014671Y0294254D01*
X0014560Y0294553D01*
X0014456Y0294855D01*
X0014360Y0295159D01*
X0014271Y0295466D01*
X0014190Y0295774D01*
X0014116Y0296085D01*
X0014050Y0296397D01*
X0013991Y0296710D01*
X0013941Y0297026D01*
X0013898Y0297342D01*
X0013863Y0297659D01*
X0013835Y0297977D01*
X0013816Y0298295D01*
X0013804Y0298614D01*
X0013800Y0298933D01*
X0001800Y0298933D02*
X0001800Y0048933D01*
X0013800Y0048933D02*
X0013804Y0049252D01*
X0013816Y0049571D01*
X0013835Y0049889D01*
X0013863Y0050207D01*
X0013898Y0050524D01*
X0013941Y0050840D01*
X0013991Y0051156D01*
X0014050Y0051469D01*
X0014116Y0051781D01*
X0014190Y0052092D01*
X0014271Y0052400D01*
X0014360Y0052707D01*
X0014456Y0053011D01*
X0014560Y0053313D01*
X0014671Y0053612D01*
X0014790Y0053908D01*
X0014915Y0054201D01*
X0015048Y0054491D01*
X0015188Y0054778D01*
X0015335Y0055061D01*
X0015489Y0055341D01*
X0015650Y0055616D01*
X0015817Y0055888D01*
X0015991Y0056155D01*
X0016171Y0056419D01*
X0016358Y0056677D01*
X0016551Y0056931D01*
X0016751Y0057180D01*
X0016956Y0057424D01*
X0017168Y0057663D01*
X0017385Y0057897D01*
X0017608Y0058125D01*
X0017836Y0058348D01*
X0018070Y0058565D01*
X0018309Y0058777D01*
X0018553Y0058982D01*
X0018802Y0059182D01*
X0019056Y0059375D01*
X0019314Y0059562D01*
X0019578Y0059742D01*
X0019845Y0059916D01*
X0020117Y0060083D01*
X0020392Y0060244D01*
X0020672Y0060398D01*
X0020955Y0060545D01*
X0021242Y0060685D01*
X0021532Y0060818D01*
X0021825Y0060943D01*
X0022121Y0061062D01*
X0022420Y0061173D01*
X0022722Y0061277D01*
X0023026Y0061373D01*
X0023333Y0061462D01*
X0023641Y0061543D01*
X0023952Y0061617D01*
X0024264Y0061683D01*
X0024577Y0061742D01*
X0024893Y0061792D01*
X0025209Y0061835D01*
X0025526Y0061870D01*
X0025844Y0061898D01*
X0026162Y0061917D01*
X0026481Y0061929D01*
X0026800Y0061933D01*
X0027119Y0061929D01*
X0027438Y0061917D01*
X0027756Y0061898D01*
X0028074Y0061870D01*
X0028391Y0061835D01*
X0028707Y0061792D01*
X0029023Y0061742D01*
X0029336Y0061683D01*
X0029648Y0061617D01*
X0029959Y0061543D01*
X0030267Y0061462D01*
X0030574Y0061373D01*
X0030878Y0061277D01*
X0031180Y0061173D01*
X0031479Y0061062D01*
X0031775Y0060943D01*
X0032068Y0060818D01*
X0032358Y0060685D01*
X0032645Y0060545D01*
X0032928Y0060398D01*
X0033208Y0060244D01*
X0033483Y0060083D01*
X0033755Y0059916D01*
X0034022Y0059742D01*
X0034286Y0059562D01*
X0034544Y0059375D01*
X0034798Y0059182D01*
X0035047Y0058982D01*
X0035291Y0058777D01*
X0035530Y0058565D01*
X0035764Y0058348D01*
X0035992Y0058125D01*
X0036215Y0057897D01*
X0036432Y0057663D01*
X0036644Y0057424D01*
X0036849Y0057180D01*
X0037049Y0056931D01*
X0037242Y0056677D01*
X0037429Y0056419D01*
X0037609Y0056155D01*
X0037783Y0055888D01*
X0037950Y0055616D01*
X0038111Y0055341D01*
X0038265Y0055061D01*
X0038412Y0054778D01*
X0038552Y0054491D01*
X0038685Y0054201D01*
X0038810Y0053908D01*
X0038929Y0053612D01*
X0039040Y0053313D01*
X0039144Y0053011D01*
X0039240Y0052707D01*
X0039329Y0052400D01*
X0039410Y0052092D01*
X0039484Y0051781D01*
X0039550Y0051469D01*
X0039609Y0051156D01*
X0039659Y0050840D01*
X0039702Y0050524D01*
X0039737Y0050207D01*
X0039765Y0049889D01*
X0039784Y0049571D01*
X0039796Y0049252D01*
X0039800Y0048933D01*
X0039796Y0048614D01*
X0039784Y0048295D01*
X0039765Y0047977D01*
X0039737Y0047659D01*
X0039702Y0047342D01*
X0039659Y0047026D01*
X0039609Y0046710D01*
X0039550Y0046397D01*
X0039484Y0046085D01*
X0039410Y0045774D01*
X0039329Y0045466D01*
X0039240Y0045159D01*
X0039144Y0044855D01*
X0039040Y0044553D01*
X0038929Y0044254D01*
X0038810Y0043958D01*
X0038685Y0043665D01*
X0038552Y0043375D01*
X0038412Y0043088D01*
X0038265Y0042805D01*
X0038111Y0042525D01*
X0037950Y0042250D01*
X0037783Y0041978D01*
X0037609Y0041711D01*
X0037429Y0041447D01*
X0037242Y0041189D01*
X0037049Y0040935D01*
X0036849Y0040686D01*
X0036644Y0040442D01*
X0036432Y0040203D01*
X0036215Y0039969D01*
X0035992Y0039741D01*
X0035764Y0039518D01*
X0035530Y0039301D01*
X0035291Y0039089D01*
X0035047Y0038884D01*
X0034798Y0038684D01*
X0034544Y0038491D01*
X0034286Y0038304D01*
X0034022Y0038124D01*
X0033755Y0037950D01*
X0033483Y0037783D01*
X0033208Y0037622D01*
X0032928Y0037468D01*
X0032645Y0037321D01*
X0032358Y0037181D01*
X0032068Y0037048D01*
X0031775Y0036923D01*
X0031479Y0036804D01*
X0031180Y0036693D01*
X0030878Y0036589D01*
X0030574Y0036493D01*
X0030267Y0036404D01*
X0029959Y0036323D01*
X0029648Y0036249D01*
X0029336Y0036183D01*
X0029023Y0036124D01*
X0028707Y0036074D01*
X0028391Y0036031D01*
X0028074Y0035996D01*
X0027756Y0035968D01*
X0027438Y0035949D01*
X0027119Y0035937D01*
X0026800Y0035933D01*
X0026481Y0035937D01*
X0026162Y0035949D01*
X0025844Y0035968D01*
X0025526Y0035996D01*
X0025209Y0036031D01*
X0024893Y0036074D01*
X0024577Y0036124D01*
X0024264Y0036183D01*
X0023952Y0036249D01*
X0023641Y0036323D01*
X0023333Y0036404D01*
X0023026Y0036493D01*
X0022722Y0036589D01*
X0022420Y0036693D01*
X0022121Y0036804D01*
X0021825Y0036923D01*
X0021532Y0037048D01*
X0021242Y0037181D01*
X0020955Y0037321D01*
X0020672Y0037468D01*
X0020392Y0037622D01*
X0020117Y0037783D01*
X0019845Y0037950D01*
X0019578Y0038124D01*
X0019314Y0038304D01*
X0019056Y0038491D01*
X0018802Y0038684D01*
X0018553Y0038884D01*
X0018309Y0039089D01*
X0018070Y0039301D01*
X0017836Y0039518D01*
X0017608Y0039741D01*
X0017385Y0039969D01*
X0017168Y0040203D01*
X0016956Y0040442D01*
X0016751Y0040686D01*
X0016551Y0040935D01*
X0016358Y0041189D01*
X0016171Y0041447D01*
X0015991Y0041711D01*
X0015817Y0041978D01*
X0015650Y0042250D01*
X0015489Y0042525D01*
X0015335Y0042805D01*
X0015188Y0043088D01*
X0015048Y0043375D01*
X0014915Y0043665D01*
X0014790Y0043958D01*
X0014671Y0044254D01*
X0014560Y0044553D01*
X0014456Y0044855D01*
X0014360Y0045159D01*
X0014271Y0045466D01*
X0014190Y0045774D01*
X0014116Y0046085D01*
X0014050Y0046397D01*
X0013991Y0046710D01*
X0013941Y0047026D01*
X0013898Y0047342D01*
X0013863Y0047659D01*
X0013835Y0047977D01*
X0013816Y0048295D01*
X0013804Y0048614D01*
X0013800Y0048933D01*
X0001800Y0048933D02*
X0001807Y0048329D01*
X0001829Y0047725D01*
X0001866Y0047122D01*
X0001917Y0046520D01*
X0001982Y0045920D01*
X0002062Y0045321D01*
X0002157Y0044724D01*
X0002266Y0044130D01*
X0002389Y0043538D01*
X0002526Y0042950D01*
X0002678Y0042365D01*
X0002844Y0041784D01*
X0003024Y0041208D01*
X0003217Y0040635D01*
X0003425Y0040068D01*
X0003646Y0039506D01*
X0003880Y0038949D01*
X0004128Y0038398D01*
X0004389Y0037853D01*
X0004664Y0037315D01*
X0004951Y0036783D01*
X0005251Y0036259D01*
X0005563Y0035742D01*
X0005888Y0035233D01*
X0006225Y0034731D01*
X0006575Y0034238D01*
X0006936Y0033754D01*
X0007308Y0033278D01*
X0007692Y0032812D01*
X0008087Y0032355D01*
X0008493Y0031908D01*
X0008910Y0031470D01*
X0009337Y0031043D01*
X0009775Y0030626D01*
X0010222Y0030220D01*
X0010679Y0029825D01*
X0011145Y0029441D01*
X0011621Y0029069D01*
X0012105Y0028708D01*
X0012598Y0028358D01*
X0013100Y0028021D01*
X0013609Y0027696D01*
X0014126Y0027384D01*
X0014650Y0027084D01*
X0015182Y0026797D01*
X0015720Y0026522D01*
X0016265Y0026261D01*
X0016816Y0026013D01*
X0017373Y0025779D01*
X0017935Y0025558D01*
X0018502Y0025350D01*
X0019075Y0025157D01*
X0019651Y0024977D01*
X0020232Y0024811D01*
X0020817Y0024659D01*
X0021405Y0024522D01*
X0021997Y0024399D01*
X0022591Y0024290D01*
X0023188Y0024195D01*
X0023787Y0024115D01*
X0024387Y0024050D01*
X0024989Y0023999D01*
X0025592Y0023962D01*
X0026196Y0023940D01*
X0026800Y0023933D01*
X0001800Y0298933D02*
X0001807Y0299537D01*
X0001829Y0300141D01*
X0001866Y0300744D01*
X0001917Y0301346D01*
X0001982Y0301946D01*
X0002062Y0302545D01*
X0002157Y0303142D01*
X0002266Y0303736D01*
X0002389Y0304328D01*
X0002526Y0304916D01*
X0002678Y0305501D01*
X0002844Y0306082D01*
X0003024Y0306658D01*
X0003217Y0307231D01*
X0003425Y0307798D01*
X0003646Y0308360D01*
X0003880Y0308917D01*
X0004128Y0309468D01*
X0004389Y0310013D01*
X0004664Y0310551D01*
X0004951Y0311083D01*
X0005251Y0311607D01*
X0005563Y0312124D01*
X0005888Y0312633D01*
X0006225Y0313135D01*
X0006575Y0313628D01*
X0006936Y0314112D01*
X0007308Y0314588D01*
X0007692Y0315054D01*
X0008087Y0315511D01*
X0008493Y0315958D01*
X0008910Y0316396D01*
X0009337Y0316823D01*
X0009775Y0317240D01*
X0010222Y0317646D01*
X0010679Y0318041D01*
X0011145Y0318425D01*
X0011621Y0318797D01*
X0012105Y0319158D01*
X0012598Y0319508D01*
X0013100Y0319845D01*
X0013609Y0320170D01*
X0014126Y0320482D01*
X0014650Y0320782D01*
X0015182Y0321069D01*
X0015720Y0321344D01*
X0016265Y0321605D01*
X0016816Y0321853D01*
X0017373Y0322087D01*
X0017935Y0322308D01*
X0018502Y0322516D01*
X0019075Y0322709D01*
X0019651Y0322889D01*
X0020232Y0323055D01*
X0020817Y0323207D01*
X0021405Y0323344D01*
X0021997Y0323467D01*
X0022591Y0323576D01*
X0023188Y0323671D01*
X0023787Y0323751D01*
X0024387Y0323816D01*
X0024989Y0323867D01*
X0025592Y0323904D01*
X0026196Y0323926D01*
X0026800Y0323933D01*
D11*
X0091800Y0228933D03*
X0091800Y0218933D03*
X0056800Y0188933D03*
X0056800Y0148933D03*
X0041800Y0133933D03*
X0031800Y0124033D03*
X0031800Y0143833D03*
X0052800Y0103933D03*
X0106800Y0103933D03*
X0146800Y0103933D03*
X0191800Y0108933D03*
X0201800Y0108933D03*
X0246800Y0103933D03*
X0286800Y0103933D03*
X0286800Y0063933D03*
X0246800Y0063933D03*
X0340800Y0103933D03*
X0361800Y0124033D03*
X0351800Y0133933D03*
X0361800Y0143833D03*
X0336800Y0148933D03*
X0336800Y0188933D03*
X0301800Y0218933D03*
X0301800Y0228933D03*
X0266800Y0188933D03*
X0241800Y0153933D03*
X0241800Y0143933D03*
X0266800Y0148933D03*
X0201800Y0213933D03*
X0191800Y0213933D03*
X0126800Y0188933D03*
X0151800Y0153933D03*
X0151800Y0143933D03*
X0126800Y0148933D03*
X0106800Y0063933D03*
X0146800Y0063933D03*
D12*
X0060800Y0103933D03*
X0332800Y0103933D03*
D13*
X0296800Y0168933D03*
X0096800Y0168933D03*
D14*
X0086800Y0168933D03*
X0306800Y0168933D03*
D15*
X0289400Y0128933D02*
X0284200Y0128933D01*
X0249400Y0128933D02*
X0244200Y0128933D01*
X0214400Y0133933D02*
X0209200Y0133933D01*
X0209200Y0143933D02*
X0214400Y0143933D01*
X0214400Y0153933D02*
X0209200Y0153933D01*
X0209200Y0163933D02*
X0214400Y0163933D01*
X0214400Y0173933D02*
X0209200Y0173933D01*
X0209200Y0183933D02*
X0214400Y0183933D01*
X0214400Y0193933D02*
X0209200Y0193933D01*
X0184400Y0193933D02*
X0179200Y0193933D01*
X0179200Y0183933D02*
X0184400Y0183933D01*
X0184400Y0173933D02*
X0179200Y0173933D01*
X0179200Y0163933D02*
X0184400Y0163933D01*
X0184400Y0153933D02*
X0179200Y0153933D01*
X0179200Y0143933D02*
X0184400Y0143933D01*
X0184400Y0133933D02*
X0179200Y0133933D01*
X0149400Y0128933D02*
X0144200Y0128933D01*
X0109400Y0128933D02*
X0104200Y0128933D01*
D16*
X0192500Y0085744D02*
X0201100Y0085744D01*
X0215698Y0078233D02*
X0215698Y0069633D01*
X0201100Y0062122D02*
X0192500Y0062122D01*
D17*
X0166800Y0068933D02*
X0161800Y0063933D01*
X0146800Y0063933D01*
X0131800Y0063933D01*
X0116800Y0078933D01*
X0101800Y0078933D01*
X0076800Y0103933D01*
X0060800Y0103933D01*
X0031800Y0124033D02*
X0031700Y0124033D01*
X0016800Y0138933D01*
X0016800Y0148933D01*
X0026800Y0158933D01*
X0061800Y0158933D01*
X0071800Y0148933D01*
X0126800Y0148933D01*
X0151800Y0153933D02*
X0151800Y0158933D01*
X0166800Y0173933D01*
X0181800Y0173933D01*
X0181800Y0183933D02*
X0186800Y0183933D01*
X0191800Y0178933D01*
X0191800Y0148933D01*
X0186800Y0143933D01*
X0191800Y0138933D01*
X0191800Y0123933D01*
X0181800Y0113933D01*
X0171800Y0113933D01*
X0166800Y0108933D01*
X0166800Y0068933D01*
X0161800Y0128933D02*
X0146800Y0128933D01*
X0161800Y0128933D02*
X0166800Y0133933D01*
X0166800Y0148933D01*
X0171800Y0153933D01*
X0181800Y0153933D01*
X0181800Y0143933D02*
X0186800Y0143933D01*
X0201800Y0138933D02*
X0206800Y0133933D01*
X0211800Y0133933D01*
X0216800Y0133933D01*
X0246800Y0103933D01*
X0266800Y0103933D01*
X0276800Y0113933D01*
X0311800Y0113933D01*
X0321800Y0103933D01*
X0332800Y0103933D01*
X0321800Y0128933D02*
X0336800Y0143933D01*
X0336800Y0148933D01*
X0331800Y0158933D02*
X0321800Y0148933D01*
X0266800Y0148933D01*
X0241800Y0153933D02*
X0241800Y0158933D01*
X0236800Y0163933D01*
X0211800Y0163933D01*
X0201800Y0168933D02*
X0201800Y0138933D01*
X0211800Y0143933D02*
X0221800Y0143933D01*
X0236800Y0128933D01*
X0246800Y0128933D01*
X0286800Y0128933D02*
X0321800Y0128933D01*
X0331800Y0158933D02*
X0351800Y0158933D01*
X0361800Y0148933D01*
X0361800Y0143833D01*
X0326800Y0168933D02*
X0336800Y0178933D01*
X0336800Y0188933D01*
X0336800Y0203933D01*
X0311800Y0228933D01*
X0301800Y0228933D01*
X0301800Y0218933D02*
X0301800Y0198933D01*
X0291800Y0188933D01*
X0266800Y0188933D01*
X0306800Y0168933D02*
X0326800Y0168933D01*
X0211800Y0173933D02*
X0206800Y0173933D01*
X0201800Y0168933D01*
X0126800Y0188933D02*
X0101800Y0188933D01*
X0091800Y0198933D01*
X0091800Y0218933D01*
X0091800Y0228933D02*
X0081800Y0228933D01*
X0056800Y0203933D01*
X0056800Y0188933D01*
X0056800Y0178933D01*
X0066800Y0168933D01*
X0086800Y0168933D01*
X0056800Y0148933D02*
X0056800Y0143933D01*
X0071800Y0128933D01*
X0106800Y0128933D01*
D18*
X0103046Y0123133D02*
X0110554Y0123133D01*
X0112685Y0124016D01*
X0114317Y0125648D01*
X0115200Y0127779D01*
X0115200Y0130087D01*
X0114317Y0132219D01*
X0112685Y0133850D01*
X0110554Y0134733D01*
X0103046Y0134733D01*
X0101598Y0134133D01*
X0073954Y0134133D01*
X0062078Y0146009D01*
X0062600Y0146531D01*
X0062600Y0150779D01*
X0067392Y0145988D01*
X0068854Y0144525D01*
X0070766Y0143733D01*
X0123798Y0143733D01*
X0124398Y0143133D01*
X0129202Y0143133D01*
X0132600Y0146531D01*
X0132600Y0151335D01*
X0129202Y0154733D01*
X0124398Y0154733D01*
X0123798Y0154133D01*
X0073954Y0154133D01*
X0064746Y0163341D01*
X0062834Y0164133D01*
X0025766Y0164133D01*
X0023854Y0163341D01*
X0022392Y0161879D01*
X0012392Y0151879D01*
X0011600Y0149967D01*
X0011600Y0137899D01*
X0012392Y0135988D01*
X0013854Y0134525D01*
X0026000Y0122379D01*
X0026000Y0121631D01*
X0029398Y0118233D01*
X0034202Y0118233D01*
X0037600Y0121631D01*
X0037600Y0126435D01*
X0034202Y0129833D01*
X0033254Y0129833D01*
X0022000Y0141087D01*
X0022000Y0146779D01*
X0028954Y0153733D01*
X0053398Y0153733D01*
X0051000Y0151335D01*
X0051000Y0146531D01*
X0051600Y0145931D01*
X0051600Y0142899D01*
X0052392Y0140988D01*
X0053854Y0139525D01*
X0068854Y0124525D01*
X0070766Y0123733D01*
X0101598Y0123733D01*
X0103046Y0123133D01*
X0113309Y0124639D02*
X0140291Y0124639D01*
X0140915Y0124016D02*
X0143046Y0123133D01*
X0150554Y0123133D01*
X0152002Y0123733D01*
X0162834Y0123733D01*
X0164746Y0124525D01*
X0166208Y0125987D01*
X0171208Y0130987D01*
X0172000Y0132899D01*
X0172000Y0146779D01*
X0173954Y0148733D01*
X0175798Y0148733D01*
X0174283Y0147219D01*
X0173400Y0145087D01*
X0173400Y0142779D01*
X0174283Y0140648D01*
X0175915Y0139016D01*
X0177977Y0138162D01*
X0177511Y0138011D01*
X0176894Y0137696D01*
X0176334Y0137289D01*
X0175844Y0136799D01*
X0175437Y0136239D01*
X0175122Y0135622D01*
X0174908Y0134963D01*
X0174800Y0134279D01*
X0174800Y0133933D01*
X0174800Y0133587D01*
X0174908Y0132903D01*
X0175122Y0132244D01*
X0175437Y0131627D01*
X0175844Y0131067D01*
X0176334Y0130577D01*
X0176894Y0130170D01*
X0177511Y0129855D01*
X0178170Y0129641D01*
X0178854Y0129533D01*
X0181800Y0129533D01*
X0184746Y0129533D01*
X0185430Y0129641D01*
X0186089Y0129855D01*
X0186600Y0130116D01*
X0186600Y0126087D01*
X0179646Y0119133D01*
X0170766Y0119133D01*
X0168854Y0118341D01*
X0163854Y0113341D01*
X0162392Y0111879D01*
X0161600Y0109967D01*
X0161600Y0071087D01*
X0159646Y0069133D01*
X0149802Y0069133D01*
X0149202Y0069733D01*
X0144398Y0069733D01*
X0143798Y0069133D01*
X0133954Y0069133D01*
X0121208Y0081879D01*
X0119746Y0083341D01*
X0117834Y0084133D01*
X0103954Y0084133D01*
X0081208Y0106879D01*
X0079746Y0108341D01*
X0077834Y0109133D01*
X0063402Y0109133D01*
X0061954Y0109733D01*
X0059646Y0109733D01*
X0057515Y0108850D01*
X0055883Y0107219D01*
X0055840Y0107115D01*
X0054623Y0108333D01*
X0052800Y0108333D01*
X0052800Y0103933D01*
X0052800Y0099533D01*
X0054623Y0099533D01*
X0055840Y0100751D01*
X0055883Y0100648D01*
X0057515Y0099016D01*
X0059646Y0098133D01*
X0061954Y0098133D01*
X0063402Y0098733D01*
X0074646Y0098733D01*
X0098854Y0074525D01*
X0100766Y0073733D01*
X0114646Y0073733D01*
X0128854Y0059525D01*
X0130766Y0058733D01*
X0143798Y0058733D01*
X0144398Y0058133D01*
X0149202Y0058133D01*
X0149802Y0058733D01*
X0162834Y0058733D01*
X0164746Y0059525D01*
X0166208Y0060987D01*
X0171208Y0065988D01*
X0172000Y0067899D01*
X0172000Y0106779D01*
X0173954Y0108733D01*
X0182834Y0108733D01*
X0184746Y0109525D01*
X0186208Y0110987D01*
X0196208Y0120987D01*
X0197000Y0122899D01*
X0197000Y0136933D01*
X0197392Y0135988D01*
X0202392Y0130987D01*
X0203854Y0129525D01*
X0205766Y0128733D01*
X0206598Y0128733D01*
X0208046Y0128133D01*
X0215246Y0128133D01*
X0241000Y0102379D01*
X0241000Y0101531D01*
X0244398Y0098133D01*
X0249202Y0098133D01*
X0249802Y0098733D01*
X0267834Y0098733D01*
X0269746Y0099525D01*
X0271208Y0100987D01*
X0271208Y0100988D01*
X0278954Y0108733D01*
X0283398Y0108733D01*
X0281000Y0106335D01*
X0281000Y0101531D01*
X0284398Y0098133D01*
X0289202Y0098133D01*
X0292600Y0101531D01*
X0292600Y0106335D01*
X0290202Y0108733D01*
X0309646Y0108733D01*
X0317392Y0100988D01*
X0317392Y0100987D01*
X0318854Y0099525D01*
X0320766Y0098733D01*
X0330198Y0098733D01*
X0331646Y0098133D01*
X0333954Y0098133D01*
X0336085Y0099016D01*
X0337717Y0100648D01*
X0337760Y0100751D01*
X0338977Y0099533D01*
X0340800Y0099533D01*
X0342623Y0099533D01*
X0345200Y0102111D01*
X0345200Y0103933D01*
X0340800Y0103933D01*
X0340800Y0099533D01*
X0340800Y0103933D01*
X0340800Y0103933D01*
X0340800Y0103933D01*
X0345200Y0103933D01*
X0345200Y0105756D01*
X0342623Y0108333D01*
X0340800Y0108333D01*
X0340800Y0103933D01*
X0340800Y0103933D01*
X0340800Y0108333D01*
X0338977Y0108333D01*
X0337760Y0107115D01*
X0337717Y0107219D01*
X0336085Y0108850D01*
X0333954Y0109733D01*
X0331646Y0109733D01*
X0330198Y0109133D01*
X0323954Y0109133D01*
X0314746Y0118341D01*
X0312834Y0119133D01*
X0275766Y0119133D01*
X0273854Y0118341D01*
X0272392Y0116879D01*
X0272392Y0116879D01*
X0264646Y0109133D01*
X0249802Y0109133D01*
X0249202Y0109733D01*
X0248354Y0109733D01*
X0219746Y0138341D01*
X0218800Y0138733D01*
X0219646Y0138733D01*
X0232392Y0125987D01*
X0233854Y0124525D01*
X0235766Y0123733D01*
X0241598Y0123733D01*
X0243046Y0123133D01*
X0250554Y0123133D01*
X0252685Y0124016D01*
X0254317Y0125648D01*
X0255200Y0127779D01*
X0255200Y0130087D01*
X0254317Y0132219D01*
X0252685Y0133850D01*
X0250554Y0134733D01*
X0243046Y0134733D01*
X0241598Y0134133D01*
X0238954Y0134133D01*
X0224746Y0148341D01*
X0222834Y0149133D01*
X0217802Y0149133D01*
X0219317Y0150648D01*
X0220200Y0152779D01*
X0220200Y0155087D01*
X0219317Y0157219D01*
X0217802Y0158733D01*
X0234646Y0158733D01*
X0236522Y0156857D01*
X0236000Y0156335D01*
X0236000Y0151531D01*
X0239398Y0148133D01*
X0239777Y0148133D01*
X0237400Y0145756D01*
X0237400Y0143933D01*
X0237400Y0142111D01*
X0239977Y0139533D01*
X0241800Y0139533D01*
X0243623Y0139533D01*
X0246200Y0142111D01*
X0246200Y0143933D01*
X0241800Y0143933D01*
X0241800Y0139533D01*
X0241800Y0143933D01*
X0241800Y0143933D01*
X0241800Y0143933D01*
X0237400Y0143933D01*
X0241800Y0143933D01*
X0241800Y0143933D01*
X0246200Y0143933D01*
X0246200Y0145756D01*
X0243823Y0148133D01*
X0244202Y0148133D01*
X0247600Y0151531D01*
X0247600Y0156335D01*
X0247000Y0156935D01*
X0247000Y0159967D01*
X0246208Y0161879D01*
X0244746Y0163341D01*
X0239746Y0168341D01*
X0237834Y0169133D01*
X0217802Y0169133D01*
X0219317Y0170648D01*
X0220200Y0172779D01*
X0220200Y0175087D01*
X0219317Y0177219D01*
X0217685Y0178850D01*
X0217485Y0178933D01*
X0217685Y0179016D01*
X0219317Y0180648D01*
X0220200Y0182779D01*
X0220200Y0185087D01*
X0219317Y0187219D01*
X0217685Y0188850D01*
X0217485Y0188933D01*
X0217685Y0189016D01*
X0219317Y0190648D01*
X0220200Y0192779D01*
X0220200Y0195087D01*
X0219317Y0197219D01*
X0217685Y0198850D01*
X0215554Y0199733D01*
X0208046Y0199733D01*
X0205915Y0198850D01*
X0204283Y0197219D01*
X0203400Y0195087D01*
X0203400Y0192779D01*
X0204283Y0190648D01*
X0205915Y0189016D01*
X0206115Y0188933D01*
X0205915Y0188850D01*
X0204283Y0187219D01*
X0203400Y0185087D01*
X0203400Y0182779D01*
X0204283Y0180648D01*
X0205798Y0179133D01*
X0205766Y0179133D01*
X0203854Y0178341D01*
X0198854Y0173341D01*
X0197392Y0171879D01*
X0197000Y0170933D01*
X0197000Y0179967D01*
X0196208Y0181879D01*
X0194746Y0183341D01*
X0189746Y0188341D01*
X0187834Y0189133D01*
X0187802Y0189133D01*
X0189317Y0190648D01*
X0190200Y0192779D01*
X0190200Y0195087D01*
X0189317Y0197219D01*
X0187685Y0198850D01*
X0185554Y0199733D01*
X0178046Y0199733D01*
X0175915Y0198850D01*
X0174283Y0197219D01*
X0173400Y0195087D01*
X0173400Y0192779D01*
X0174283Y0190648D01*
X0175915Y0189016D01*
X0176115Y0188933D01*
X0175915Y0188850D01*
X0174283Y0187219D01*
X0173400Y0185087D01*
X0173400Y0182779D01*
X0174283Y0180648D01*
X0175798Y0179133D01*
X0165766Y0179133D01*
X0163854Y0178341D01*
X0148854Y0163341D01*
X0147392Y0161879D01*
X0146600Y0159967D01*
X0146600Y0156935D01*
X0146000Y0156335D01*
X0146000Y0151531D01*
X0149398Y0148133D01*
X0149777Y0148133D01*
X0147400Y0145756D01*
X0147400Y0143933D01*
X0147400Y0142111D01*
X0149977Y0139533D01*
X0151800Y0139533D01*
X0153623Y0139533D01*
X0156200Y0142111D01*
X0156200Y0143933D01*
X0151800Y0143933D01*
X0151800Y0139533D01*
X0151800Y0143933D01*
X0151800Y0143933D01*
X0151800Y0143933D01*
X0147400Y0143933D01*
X0151800Y0143933D01*
X0151800Y0143933D01*
X0156200Y0143933D01*
X0156200Y0145756D01*
X0153823Y0148133D01*
X0154202Y0148133D01*
X0157600Y0151531D01*
X0157600Y0156335D01*
X0157078Y0156857D01*
X0168954Y0168733D01*
X0175798Y0168733D01*
X0174283Y0167219D01*
X0173400Y0165087D01*
X0173400Y0162779D01*
X0174283Y0160648D01*
X0175798Y0159133D01*
X0170766Y0159133D01*
X0168854Y0158341D01*
X0163854Y0153341D01*
X0162392Y0151879D01*
X0161600Y0149967D01*
X0161600Y0136087D01*
X0159646Y0134133D01*
X0152002Y0134133D01*
X0150554Y0134733D01*
X0143046Y0134733D01*
X0140915Y0133850D01*
X0139283Y0132219D01*
X0138400Y0130087D01*
X0138400Y0127779D01*
X0139283Y0125648D01*
X0140915Y0124016D01*
X0139039Y0126238D02*
X0114561Y0126238D01*
X0115200Y0127836D02*
X0138400Y0127836D01*
X0138400Y0129435D02*
X0115200Y0129435D01*
X0114808Y0131033D02*
X0138792Y0131033D01*
X0139696Y0132632D02*
X0113904Y0132632D01*
X0111767Y0134230D02*
X0141833Y0134230D01*
X0148886Y0140624D02*
X0067463Y0140624D01*
X0069061Y0139026D02*
X0161600Y0139026D01*
X0161600Y0140624D02*
X0154714Y0140624D01*
X0156200Y0142223D02*
X0161600Y0142223D01*
X0161600Y0143821D02*
X0156200Y0143821D01*
X0156200Y0145420D02*
X0161600Y0145420D01*
X0161600Y0147018D02*
X0154937Y0147018D01*
X0154686Y0148617D02*
X0161600Y0148617D01*
X0161703Y0150215D02*
X0156285Y0150215D01*
X0157600Y0151814D02*
X0162365Y0151814D01*
X0163926Y0153412D02*
X0157600Y0153412D01*
X0157600Y0155011D02*
X0165524Y0155011D01*
X0167123Y0156610D02*
X0157326Y0156610D01*
X0158429Y0158208D02*
X0168721Y0158208D01*
X0173969Y0161405D02*
X0161626Y0161405D01*
X0163224Y0163004D02*
X0173400Y0163004D01*
X0173400Y0164602D02*
X0164823Y0164602D01*
X0166421Y0166201D02*
X0173861Y0166201D01*
X0174864Y0167799D02*
X0168020Y0167799D01*
X0161305Y0175792D02*
X0067295Y0175792D01*
X0065697Y0177390D02*
X0162903Y0177390D01*
X0165417Y0178989D02*
X0064098Y0178989D01*
X0062500Y0180587D02*
X0174343Y0180587D01*
X0173646Y0182186D02*
X0062000Y0182186D01*
X0062000Y0181087D02*
X0062000Y0185931D01*
X0062600Y0186531D01*
X0062600Y0191335D01*
X0062000Y0191935D01*
X0062000Y0201779D01*
X0083954Y0223733D01*
X0088398Y0223733D01*
X0086000Y0221335D01*
X0086000Y0216531D01*
X0086600Y0215931D01*
X0086600Y0197899D01*
X0087392Y0195987D01*
X0097392Y0185987D01*
X0098854Y0184525D01*
X0100766Y0183733D01*
X0123798Y0183733D01*
X0124398Y0183133D01*
X0129202Y0183133D01*
X0132600Y0186531D01*
X0132600Y0191335D01*
X0129202Y0194733D01*
X0124398Y0194733D01*
X0123798Y0194133D01*
X0103954Y0194133D01*
X0097000Y0201087D01*
X0097000Y0215931D01*
X0097600Y0216531D01*
X0097600Y0221335D01*
X0095002Y0223933D01*
X0097600Y0226531D01*
X0097600Y0231335D01*
X0094202Y0234733D01*
X0089398Y0234733D01*
X0088798Y0234133D01*
X0080766Y0234133D01*
X0078854Y0233341D01*
X0077392Y0231879D01*
X0077392Y0231879D01*
X0053854Y0208341D01*
X0052392Y0206879D01*
X0051600Y0204967D01*
X0051600Y0191935D01*
X0051000Y0191335D01*
X0051000Y0186531D01*
X0051600Y0185931D01*
X0051600Y0177899D01*
X0052392Y0175987D01*
X0053854Y0174525D01*
X0063854Y0164525D01*
X0065766Y0163733D01*
X0083020Y0163733D01*
X0083203Y0163550D01*
X0085537Y0162583D01*
X0088063Y0162583D01*
X0090397Y0163550D01*
X0092183Y0165336D01*
X0092539Y0166194D01*
X0094750Y0163983D01*
X0096800Y0163983D01*
X0098850Y0163983D01*
X0101750Y0166883D01*
X0101750Y0168933D01*
X0096800Y0168933D01*
X0096800Y0163983D01*
X0096800Y0168933D01*
X0096800Y0168933D01*
X0096800Y0168933D01*
X0101750Y0168933D01*
X0101750Y0170983D01*
X0098850Y0173883D01*
X0096800Y0173883D01*
X0096800Y0168933D01*
X0096800Y0168933D01*
X0096800Y0173883D01*
X0094750Y0173883D01*
X0092539Y0171672D01*
X0092183Y0172530D01*
X0090397Y0174316D01*
X0088063Y0175283D01*
X0085537Y0175283D01*
X0083203Y0174316D01*
X0083020Y0174133D01*
X0068954Y0174133D01*
X0062000Y0181087D01*
X0062000Y0183784D02*
X0100642Y0183784D01*
X0097996Y0185383D02*
X0062000Y0185383D01*
X0062600Y0186981D02*
X0096398Y0186981D01*
X0094799Y0188580D02*
X0062600Y0188580D01*
X0062600Y0190178D02*
X0093201Y0190178D01*
X0091602Y0191777D02*
X0062159Y0191777D01*
X0062000Y0193375D02*
X0090004Y0193375D01*
X0088405Y0194974D02*
X0062000Y0194974D01*
X0062000Y0196572D02*
X0087149Y0196572D01*
X0086600Y0198171D02*
X0062000Y0198171D01*
X0062000Y0199769D02*
X0086600Y0199769D01*
X0086600Y0201368D02*
X0062000Y0201368D01*
X0063187Y0202966D02*
X0086600Y0202966D01*
X0086600Y0204565D02*
X0064786Y0204565D01*
X0066384Y0206163D02*
X0086600Y0206163D01*
X0086600Y0207762D02*
X0067983Y0207762D01*
X0069581Y0209360D02*
X0086600Y0209360D01*
X0086600Y0210959D02*
X0071180Y0210959D01*
X0072778Y0212557D02*
X0086600Y0212557D01*
X0086600Y0214156D02*
X0074377Y0214156D01*
X0075975Y0215754D02*
X0086600Y0215754D01*
X0086000Y0217353D02*
X0077574Y0217353D01*
X0079172Y0218951D02*
X0086000Y0218951D01*
X0086000Y0220550D02*
X0080771Y0220550D01*
X0082369Y0222148D02*
X0086813Y0222148D01*
X0095188Y0223747D02*
X0298411Y0223747D01*
X0298598Y0223933D02*
X0296000Y0221335D01*
X0296000Y0216531D01*
X0296600Y0215931D01*
X0296600Y0201087D01*
X0289646Y0194133D01*
X0269802Y0194133D01*
X0269202Y0194733D01*
X0264398Y0194733D01*
X0261000Y0191335D01*
X0261000Y0186531D01*
X0264398Y0183133D01*
X0269202Y0183133D01*
X0269802Y0183733D01*
X0292834Y0183733D01*
X0294746Y0184525D01*
X0296208Y0185987D01*
X0306208Y0195987D01*
X0307000Y0197899D01*
X0307000Y0215931D01*
X0307600Y0216531D01*
X0307600Y0221335D01*
X0305202Y0223733D01*
X0309646Y0223733D01*
X0331600Y0201779D01*
X0331600Y0191935D01*
X0331000Y0191335D01*
X0331000Y0186531D01*
X0331600Y0185931D01*
X0331600Y0181087D01*
X0324646Y0174133D01*
X0310580Y0174133D01*
X0310397Y0174316D01*
X0308063Y0175283D01*
X0305537Y0175283D01*
X0303203Y0174316D01*
X0301417Y0172530D01*
X0301061Y0171672D01*
X0298850Y0173883D01*
X0296800Y0173883D01*
X0296800Y0168933D01*
X0296800Y0163983D01*
X0298850Y0163983D01*
X0301061Y0166194D01*
X0301417Y0165336D01*
X0303203Y0163550D01*
X0305537Y0162583D01*
X0308063Y0162583D01*
X0310397Y0163550D01*
X0310580Y0163733D01*
X0327834Y0163733D01*
X0329746Y0164525D01*
X0339746Y0174525D01*
X0341208Y0175987D01*
X0342000Y0177899D01*
X0342000Y0185931D01*
X0342600Y0186531D01*
X0342600Y0191335D01*
X0342000Y0191935D01*
X0342000Y0204967D01*
X0341208Y0206879D01*
X0316208Y0231879D01*
X0314746Y0233341D01*
X0312834Y0234133D01*
X0304802Y0234133D01*
X0304202Y0234733D01*
X0299398Y0234733D01*
X0296000Y0231335D01*
X0296000Y0226531D01*
X0298598Y0223933D01*
X0297185Y0225345D02*
X0096415Y0225345D01*
X0097600Y0226944D02*
X0296000Y0226944D01*
X0296000Y0228543D02*
X0097600Y0228543D01*
X0097600Y0230141D02*
X0296000Y0230141D01*
X0296404Y0231740D02*
X0097196Y0231740D01*
X0095597Y0233338D02*
X0298003Y0233338D01*
X0296813Y0222148D02*
X0096787Y0222148D01*
X0097600Y0220550D02*
X0296000Y0220550D01*
X0296000Y0218951D02*
X0194984Y0218951D01*
X0194202Y0219733D02*
X0189398Y0219733D01*
X0186000Y0216335D01*
X0186000Y0211531D01*
X0189398Y0208133D01*
X0194202Y0208133D01*
X0197600Y0211531D01*
X0197600Y0211911D01*
X0199977Y0209533D01*
X0201800Y0209533D01*
X0203623Y0209533D01*
X0206200Y0212111D01*
X0206200Y0213933D01*
X0201800Y0213933D01*
X0201800Y0209533D01*
X0201800Y0213933D01*
X0201800Y0213933D01*
X0201800Y0213933D01*
X0206200Y0213933D01*
X0206200Y0215756D01*
X0203623Y0218333D01*
X0201800Y0218333D01*
X0201800Y0213933D01*
X0201800Y0213933D01*
X0201800Y0218333D01*
X0199977Y0218333D01*
X0197600Y0215956D01*
X0197600Y0216335D01*
X0194202Y0219733D01*
X0196583Y0217353D02*
X0198997Y0217353D01*
X0201800Y0217353D02*
X0201800Y0217353D01*
X0201800Y0215754D02*
X0201800Y0215754D01*
X0201800Y0214156D02*
X0201800Y0214156D01*
X0201800Y0212557D02*
X0201800Y0212557D01*
X0201800Y0210959D02*
X0201800Y0210959D01*
X0205048Y0210959D02*
X0296600Y0210959D01*
X0296600Y0212557D02*
X0206200Y0212557D01*
X0206200Y0214156D02*
X0296600Y0214156D01*
X0296600Y0215754D02*
X0206200Y0215754D01*
X0204603Y0217353D02*
X0296000Y0217353D01*
X0296600Y0209360D02*
X0195430Y0209360D01*
X0197028Y0210959D02*
X0198552Y0210959D01*
X0188170Y0209360D02*
X0097000Y0209360D01*
X0097000Y0207762D02*
X0296600Y0207762D01*
X0296600Y0206163D02*
X0097000Y0206163D01*
X0097000Y0204565D02*
X0296600Y0204565D01*
X0296600Y0202966D02*
X0097000Y0202966D01*
X0097000Y0201368D02*
X0296600Y0201368D01*
X0295282Y0199769D02*
X0098318Y0199769D01*
X0099916Y0198171D02*
X0175235Y0198171D01*
X0174015Y0196572D02*
X0101515Y0196572D01*
X0103113Y0194974D02*
X0173400Y0194974D01*
X0173400Y0193375D02*
X0130560Y0193375D01*
X0132159Y0191777D02*
X0173815Y0191777D01*
X0174752Y0190178D02*
X0132600Y0190178D01*
X0132600Y0188580D02*
X0175644Y0188580D01*
X0174185Y0186981D02*
X0132600Y0186981D01*
X0131452Y0185383D02*
X0173523Y0185383D01*
X0173400Y0183784D02*
X0129854Y0183784D01*
X0151714Y0166201D02*
X0101068Y0166201D01*
X0101750Y0167799D02*
X0153312Y0167799D01*
X0154911Y0169398D02*
X0101750Y0169398D01*
X0101737Y0170996D02*
X0156509Y0170996D01*
X0158108Y0172595D02*
X0100139Y0172595D01*
X0096800Y0172595D02*
X0096800Y0172595D01*
X0096800Y0170996D02*
X0096800Y0170996D01*
X0096800Y0169398D02*
X0096800Y0169398D01*
X0096800Y0167799D02*
X0096800Y0167799D01*
X0096800Y0166201D02*
X0096800Y0166201D01*
X0096800Y0164602D02*
X0096800Y0164602D01*
X0099469Y0164602D02*
X0150115Y0164602D01*
X0148517Y0163004D02*
X0089078Y0163004D01*
X0091449Y0164602D02*
X0094131Y0164602D01*
X0093461Y0172595D02*
X0092119Y0172595D01*
X0090520Y0174193D02*
X0159706Y0174193D01*
X0160027Y0159807D02*
X0175124Y0159807D01*
X0175681Y0148617D02*
X0173838Y0148617D01*
X0174200Y0147018D02*
X0172239Y0147018D01*
X0172000Y0145420D02*
X0173538Y0145420D01*
X0173400Y0143821D02*
X0172000Y0143821D01*
X0172000Y0142223D02*
X0173630Y0142223D01*
X0174306Y0140624D02*
X0172000Y0140624D01*
X0172000Y0139026D02*
X0175905Y0139026D01*
X0176524Y0137427D02*
X0172000Y0137427D01*
X0172000Y0135829D02*
X0175228Y0135829D01*
X0174800Y0134230D02*
X0172000Y0134230D01*
X0171889Y0132632D02*
X0174996Y0132632D01*
X0174800Y0133933D02*
X0181800Y0133933D01*
X0181800Y0129533D01*
X0181800Y0133933D01*
X0181800Y0133933D01*
X0181800Y0133933D01*
X0174800Y0133933D01*
X0175877Y0131033D02*
X0171227Y0131033D01*
X0169656Y0129435D02*
X0186600Y0129435D01*
X0186600Y0127836D02*
X0168057Y0127836D01*
X0166459Y0126238D02*
X0186600Y0126238D01*
X0185152Y0124639D02*
X0164860Y0124639D01*
X0168758Y0118245D02*
X0034215Y0118245D01*
X0035813Y0119844D02*
X0180357Y0119844D01*
X0181955Y0121442D02*
X0037412Y0121442D01*
X0037600Y0123041D02*
X0183554Y0123041D01*
X0190269Y0115048D02*
X0228331Y0115048D01*
X0229929Y0113450D02*
X0205486Y0113450D01*
X0204202Y0114733D02*
X0207600Y0111335D01*
X0207600Y0106531D01*
X0204202Y0103133D01*
X0199398Y0103133D01*
X0196000Y0106531D01*
X0196000Y0106911D01*
X0193623Y0104533D01*
X0191800Y0104533D01*
X0191800Y0108933D01*
X0191800Y0108933D01*
X0191800Y0104533D01*
X0189977Y0104533D01*
X0187400Y0107111D01*
X0187400Y0108933D01*
X0191800Y0108933D01*
X0191800Y0108933D01*
X0187400Y0108933D01*
X0187400Y0110756D01*
X0189977Y0113333D01*
X0191800Y0113333D01*
X0191800Y0108933D01*
X0191800Y0108933D01*
X0191800Y0113333D01*
X0193623Y0113333D01*
X0196000Y0110956D01*
X0196000Y0111335D01*
X0199398Y0114733D01*
X0204202Y0114733D01*
X0207084Y0111851D02*
X0231528Y0111851D01*
X0233126Y0110253D02*
X0207600Y0110253D01*
X0207600Y0108654D02*
X0234725Y0108654D01*
X0236323Y0107056D02*
X0207600Y0107056D01*
X0206527Y0105457D02*
X0237922Y0105457D01*
X0239521Y0103859D02*
X0204928Y0103859D01*
X0198672Y0103859D02*
X0172000Y0103859D01*
X0172000Y0105457D02*
X0189053Y0105457D01*
X0187455Y0107056D02*
X0172277Y0107056D01*
X0173875Y0108654D02*
X0187400Y0108654D01*
X0187400Y0110253D02*
X0185474Y0110253D01*
X0187072Y0111851D02*
X0188496Y0111851D01*
X0188671Y0113450D02*
X0198114Y0113450D01*
X0196516Y0111851D02*
X0195104Y0111851D01*
X0191800Y0111851D02*
X0191800Y0111851D01*
X0191800Y0110253D02*
X0191800Y0110253D01*
X0191800Y0108654D02*
X0191800Y0108654D01*
X0191800Y0107056D02*
X0191800Y0107056D01*
X0191800Y0105457D02*
X0191800Y0105457D01*
X0194547Y0105457D02*
X0197073Y0105457D01*
X0191868Y0116647D02*
X0226732Y0116647D01*
X0225134Y0118245D02*
X0193466Y0118245D01*
X0195065Y0119844D02*
X0223535Y0119844D01*
X0221937Y0121442D02*
X0196397Y0121442D01*
X0197000Y0123041D02*
X0220338Y0123041D01*
X0218740Y0124639D02*
X0197000Y0124639D01*
X0197000Y0126238D02*
X0217141Y0126238D01*
X0215543Y0127836D02*
X0197000Y0127836D01*
X0197000Y0129435D02*
X0204071Y0129435D01*
X0202346Y0131033D02*
X0197000Y0131033D01*
X0197000Y0132632D02*
X0200747Y0132632D01*
X0199149Y0134230D02*
X0197000Y0134230D01*
X0197000Y0135829D02*
X0197550Y0135829D01*
X0181800Y0132632D02*
X0181800Y0132632D01*
X0181800Y0131033D02*
X0181800Y0131033D01*
X0167160Y0116647D02*
X0005000Y0116647D01*
X0005000Y0118245D02*
X0029385Y0118245D01*
X0027787Y0119844D02*
X0005000Y0119844D01*
X0005000Y0121442D02*
X0026188Y0121442D01*
X0025338Y0123041D02*
X0005000Y0123041D01*
X0005000Y0124639D02*
X0023740Y0124639D01*
X0022141Y0126238D02*
X0005000Y0126238D01*
X0005000Y0127836D02*
X0020543Y0127836D01*
X0018944Y0129435D02*
X0005000Y0129435D01*
X0005000Y0131033D02*
X0017346Y0131033D01*
X0015747Y0132632D02*
X0005000Y0132632D01*
X0005000Y0134230D02*
X0014149Y0134230D01*
X0012550Y0135829D02*
X0005000Y0135829D01*
X0005000Y0137427D02*
X0011795Y0137427D01*
X0011600Y0139026D02*
X0005000Y0139026D01*
X0005000Y0140624D02*
X0011600Y0140624D01*
X0011600Y0142223D02*
X0005000Y0142223D01*
X0005000Y0143821D02*
X0011600Y0143821D01*
X0011600Y0145420D02*
X0005000Y0145420D01*
X0005000Y0147018D02*
X0011600Y0147018D01*
X0011600Y0148617D02*
X0005000Y0148617D01*
X0005000Y0150215D02*
X0011703Y0150215D01*
X0012365Y0151814D02*
X0005000Y0151814D01*
X0005000Y0153412D02*
X0013926Y0153412D01*
X0015524Y0155011D02*
X0005000Y0155011D01*
X0005000Y0156610D02*
X0017123Y0156610D01*
X0018721Y0158208D02*
X0005000Y0158208D01*
X0005000Y0159807D02*
X0020320Y0159807D01*
X0021918Y0161405D02*
X0005000Y0161405D01*
X0005000Y0163004D02*
X0023517Y0163004D01*
X0028633Y0153412D02*
X0053077Y0153412D01*
X0051478Y0151814D02*
X0027035Y0151814D01*
X0025436Y0150215D02*
X0051000Y0150215D01*
X0051000Y0148617D02*
X0023838Y0148617D01*
X0022239Y0147018D02*
X0028763Y0147018D01*
X0029977Y0148233D02*
X0027400Y0145656D01*
X0027400Y0143833D01*
X0027400Y0142011D01*
X0029977Y0139433D01*
X0031800Y0139433D01*
X0033623Y0139433D01*
X0036200Y0142011D01*
X0036200Y0143833D01*
X0031800Y0143833D01*
X0031800Y0139433D01*
X0031800Y0143833D01*
X0031800Y0143833D01*
X0031800Y0143833D01*
X0027400Y0143833D01*
X0031800Y0143833D01*
X0031800Y0143833D01*
X0036200Y0143833D01*
X0036200Y0145656D01*
X0033623Y0148233D01*
X0031800Y0148233D01*
X0031800Y0143833D01*
X0031800Y0143833D01*
X0031800Y0148233D01*
X0029977Y0148233D01*
X0031800Y0147018D02*
X0031800Y0147018D01*
X0031800Y0145420D02*
X0031800Y0145420D01*
X0031800Y0143821D02*
X0031800Y0143821D01*
X0031800Y0142223D02*
X0031800Y0142223D01*
X0031800Y0140624D02*
X0031800Y0140624D01*
X0034814Y0140624D02*
X0052755Y0140624D01*
X0051880Y0142223D02*
X0036200Y0142223D01*
X0036200Y0143821D02*
X0051600Y0143821D01*
X0051600Y0145420D02*
X0036200Y0145420D01*
X0034837Y0147018D02*
X0051000Y0147018D01*
X0054353Y0139026D02*
X0024061Y0139026D01*
X0022463Y0140624D02*
X0028786Y0140624D01*
X0027400Y0142223D02*
X0022000Y0142223D01*
X0022000Y0143821D02*
X0027400Y0143821D01*
X0027400Y0145420D02*
X0022000Y0145420D01*
X0025660Y0137427D02*
X0039072Y0137427D01*
X0039977Y0138333D02*
X0037400Y0135756D01*
X0037400Y0133933D01*
X0037400Y0132111D01*
X0039977Y0129533D01*
X0041800Y0129533D01*
X0043623Y0129533D01*
X0046200Y0132111D01*
X0046200Y0133933D01*
X0041800Y0133933D01*
X0041800Y0129533D01*
X0041800Y0133933D01*
X0041800Y0133933D01*
X0041800Y0133933D01*
X0037400Y0133933D01*
X0041800Y0133933D01*
X0041800Y0133933D01*
X0046200Y0133933D01*
X0046200Y0135756D01*
X0043623Y0138333D01*
X0041800Y0138333D01*
X0041800Y0133933D01*
X0041800Y0133933D01*
X0041800Y0138333D01*
X0039977Y0138333D01*
X0041800Y0137427D02*
X0041800Y0137427D01*
X0041800Y0135829D02*
X0041800Y0135829D01*
X0041800Y0134230D02*
X0041800Y0134230D01*
X0041800Y0132632D02*
X0041800Y0132632D01*
X0041800Y0131033D02*
X0041800Y0131033D01*
X0045123Y0131033D02*
X0062346Y0131033D01*
X0063944Y0129435D02*
X0034601Y0129435D01*
X0036199Y0127836D02*
X0065543Y0127836D01*
X0067141Y0126238D02*
X0037600Y0126238D01*
X0037600Y0124639D02*
X0068740Y0124639D01*
X0060747Y0132632D02*
X0046200Y0132632D01*
X0046200Y0134230D02*
X0059149Y0134230D01*
X0057550Y0135829D02*
X0046127Y0135829D01*
X0044528Y0137427D02*
X0055952Y0137427D01*
X0062667Y0145420D02*
X0067959Y0145420D01*
X0066361Y0147018D02*
X0062600Y0147018D01*
X0062600Y0148617D02*
X0064762Y0148617D01*
X0063164Y0150215D02*
X0062600Y0150215D01*
X0064266Y0143821D02*
X0070552Y0143821D01*
X0065864Y0142223D02*
X0147400Y0142223D01*
X0147400Y0143821D02*
X0129891Y0143821D01*
X0131489Y0145420D02*
X0147400Y0145420D01*
X0148663Y0147018D02*
X0132600Y0147018D01*
X0132600Y0148617D02*
X0148914Y0148617D01*
X0147315Y0150215D02*
X0132600Y0150215D01*
X0132122Y0151814D02*
X0146000Y0151814D01*
X0146000Y0153412D02*
X0130523Y0153412D01*
X0146000Y0155011D02*
X0073076Y0155011D01*
X0071477Y0156610D02*
X0146274Y0156610D01*
X0146600Y0158208D02*
X0069879Y0158208D01*
X0068280Y0159807D02*
X0146600Y0159807D01*
X0147195Y0161405D02*
X0066682Y0161405D01*
X0065083Y0163004D02*
X0084522Y0163004D01*
X0083080Y0174193D02*
X0068894Y0174193D01*
X0062179Y0166201D02*
X0005000Y0166201D01*
X0005000Y0167799D02*
X0060580Y0167799D01*
X0058982Y0169398D02*
X0005000Y0169398D01*
X0005000Y0170996D02*
X0057383Y0170996D01*
X0055785Y0172595D02*
X0005000Y0172595D01*
X0005000Y0174193D02*
X0054186Y0174193D01*
X0052587Y0175792D02*
X0005000Y0175792D01*
X0005000Y0177390D02*
X0051811Y0177390D01*
X0051600Y0178989D02*
X0005000Y0178989D01*
X0005000Y0180587D02*
X0051600Y0180587D01*
X0051600Y0182186D02*
X0005000Y0182186D01*
X0005000Y0183784D02*
X0051600Y0183784D01*
X0051600Y0185383D02*
X0005000Y0185383D01*
X0005000Y0186981D02*
X0051000Y0186981D01*
X0051000Y0188580D02*
X0005000Y0188580D01*
X0005000Y0190178D02*
X0051000Y0190178D01*
X0051441Y0191777D02*
X0005000Y0191777D01*
X0005000Y0193375D02*
X0051600Y0193375D01*
X0051600Y0194974D02*
X0005000Y0194974D01*
X0005000Y0196572D02*
X0051600Y0196572D01*
X0051600Y0198171D02*
X0005000Y0198171D01*
X0005000Y0199769D02*
X0051600Y0199769D01*
X0051600Y0201368D02*
X0005000Y0201368D01*
X0005000Y0202966D02*
X0051600Y0202966D01*
X0051600Y0204565D02*
X0005000Y0204565D01*
X0005000Y0206163D02*
X0052095Y0206163D01*
X0053275Y0207762D02*
X0005000Y0207762D01*
X0005000Y0209360D02*
X0054873Y0209360D01*
X0053854Y0208341D02*
X0053854Y0208341D01*
X0056472Y0210959D02*
X0005000Y0210959D01*
X0005000Y0212557D02*
X0058070Y0212557D01*
X0059669Y0214156D02*
X0005000Y0214156D01*
X0005000Y0215754D02*
X0061267Y0215754D01*
X0062866Y0217353D02*
X0005000Y0217353D01*
X0005000Y0218951D02*
X0064464Y0218951D01*
X0066063Y0220550D02*
X0005000Y0220550D01*
X0005000Y0222148D02*
X0067662Y0222148D01*
X0069260Y0223747D02*
X0005000Y0223747D01*
X0005000Y0225345D02*
X0070859Y0225345D01*
X0072457Y0226944D02*
X0005000Y0226944D01*
X0005000Y0228543D02*
X0074056Y0228543D01*
X0075654Y0230141D02*
X0005000Y0230141D01*
X0005000Y0231740D02*
X0077253Y0231740D01*
X0078851Y0233338D02*
X0005000Y0233338D01*
X0005000Y0234937D02*
X0388600Y0234937D01*
X0388600Y0236535D02*
X0005000Y0236535D01*
X0005000Y0238134D02*
X0388600Y0238134D01*
X0388600Y0239732D02*
X0005000Y0239732D01*
X0005000Y0241331D02*
X0388600Y0241331D01*
X0388600Y0242929D02*
X0005000Y0242929D01*
X0005000Y0244528D02*
X0388600Y0244528D01*
X0388600Y0246126D02*
X0005000Y0246126D01*
X0005000Y0247725D02*
X0388600Y0247725D01*
X0388600Y0249323D02*
X0005000Y0249323D01*
X0005000Y0250922D02*
X0388600Y0250922D01*
X0388600Y0252520D02*
X0005000Y0252520D01*
X0005000Y0254119D02*
X0388600Y0254119D01*
X0388600Y0255717D02*
X0005000Y0255717D01*
X0005000Y0257316D02*
X0388600Y0257316D01*
X0388600Y0258914D02*
X0005000Y0258914D01*
X0005000Y0260513D02*
X0388600Y0260513D01*
X0388600Y0262111D02*
X0005000Y0262111D01*
X0005000Y0263710D02*
X0388600Y0263710D01*
X0388600Y0265308D02*
X0005000Y0265308D01*
X0005000Y0266907D02*
X0388600Y0266907D01*
X0388600Y0268505D02*
X0005000Y0268505D01*
X0005000Y0270104D02*
X0388600Y0270104D01*
X0388600Y0271702D02*
X0005000Y0271702D01*
X0005000Y0273301D02*
X0388600Y0273301D01*
X0388600Y0274899D02*
X0005000Y0274899D01*
X0005000Y0276498D02*
X0388600Y0276498D01*
X0388600Y0278096D02*
X0005000Y0278096D01*
X0005000Y0279695D02*
X0388600Y0279695D01*
X0388600Y0281293D02*
X0005000Y0281293D01*
X0005000Y0282892D02*
X0024074Y0282892D01*
X0024667Y0282733D02*
X0028933Y0282733D01*
X0033053Y0283837D01*
X0036747Y0285970D01*
X0039763Y0288986D01*
X0041896Y0292680D01*
X0043000Y0296800D01*
X0043000Y0301066D01*
X0041896Y0305186D01*
X0039763Y0308880D01*
X0036747Y0311896D01*
X0033053Y0314029D01*
X0028933Y0315133D01*
X0024667Y0315133D01*
X0020547Y0314029D01*
X0016853Y0311896D01*
X0013837Y0308880D01*
X0011704Y0305186D01*
X0010600Y0301066D01*
X0010600Y0296800D01*
X0011704Y0292680D01*
X0013837Y0288986D01*
X0016853Y0285970D01*
X0020547Y0283837D01*
X0024667Y0282733D01*
X0019415Y0284490D02*
X0005000Y0284490D01*
X0005000Y0286089D02*
X0016734Y0286089D01*
X0015135Y0287687D02*
X0005000Y0287687D01*
X0005000Y0289286D02*
X0013664Y0289286D01*
X0012741Y0290884D02*
X0005000Y0290884D01*
X0005000Y0292483D02*
X0011818Y0292483D01*
X0011328Y0294081D02*
X0005000Y0294081D01*
X0005000Y0295680D02*
X0010900Y0295680D01*
X0010600Y0297279D02*
X0005000Y0297279D01*
X0005000Y0298877D02*
X0010600Y0298877D01*
X0010600Y0300476D02*
X0005087Y0300476D01*
X0005137Y0301374D02*
X0006223Y0306133D01*
X0008341Y0310531D01*
X0011385Y0314348D01*
X0015202Y0317392D01*
X0019600Y0319510D01*
X0024359Y0320596D01*
X0026800Y0320733D01*
X0366800Y0320733D01*
X0369241Y0320596D01*
X0374000Y0319510D01*
X0378398Y0317392D01*
X0382215Y0314348D01*
X0385259Y0310531D01*
X0387377Y0306133D01*
X0388463Y0301374D01*
X0388600Y0298933D01*
X0388600Y0048933D01*
X0388463Y0046492D01*
X0387377Y0041733D01*
X0385259Y0037335D01*
X0382215Y0033518D01*
X0378398Y0030474D01*
X0374000Y0028356D01*
X0369241Y0027270D01*
X0366800Y0027133D01*
X0026800Y0027133D01*
X0024359Y0027270D01*
X0019600Y0028356D01*
X0015202Y0030474D01*
X0011385Y0033518D01*
X0008341Y0037335D01*
X0006223Y0041733D01*
X0005137Y0046492D01*
X0005000Y0048933D01*
X0005000Y0298933D01*
X0005137Y0301374D01*
X0005297Y0302074D02*
X0010870Y0302074D01*
X0011298Y0303673D02*
X0005662Y0303673D01*
X0006027Y0305271D02*
X0011753Y0305271D01*
X0012676Y0306870D02*
X0006578Y0306870D01*
X0007348Y0308468D02*
X0013599Y0308468D01*
X0015023Y0310067D02*
X0008118Y0310067D01*
X0009246Y0311665D02*
X0016622Y0311665D01*
X0019221Y0313264D02*
X0010520Y0313264D01*
X0012030Y0314862D02*
X0023656Y0314862D01*
X0020248Y0319658D02*
X0373352Y0319658D01*
X0377012Y0318059D02*
X0016588Y0318059D01*
X0014034Y0316461D02*
X0379566Y0316461D01*
X0381570Y0314862D02*
X0369944Y0314862D01*
X0368933Y0315133D02*
X0364667Y0315133D01*
X0360547Y0314029D01*
X0356853Y0311896D01*
X0353837Y0308880D01*
X0351704Y0305186D01*
X0350600Y0301066D01*
X0350600Y0296800D01*
X0351704Y0292680D01*
X0353837Y0288986D01*
X0356853Y0285970D01*
X0360547Y0283837D01*
X0364667Y0282733D01*
X0368933Y0282733D01*
X0373053Y0283837D01*
X0376747Y0285970D01*
X0379763Y0288986D01*
X0381896Y0292680D01*
X0383000Y0296800D01*
X0383000Y0301066D01*
X0381896Y0305186D01*
X0379763Y0308880D01*
X0376747Y0311896D01*
X0373053Y0314029D01*
X0368933Y0315133D01*
X0363656Y0314862D02*
X0029944Y0314862D01*
X0034379Y0313264D02*
X0359221Y0313264D01*
X0356622Y0311665D02*
X0036978Y0311665D01*
X0038577Y0310067D02*
X0355023Y0310067D01*
X0353599Y0308468D02*
X0040001Y0308468D01*
X0040924Y0306870D02*
X0352676Y0306870D01*
X0351753Y0305271D02*
X0041847Y0305271D01*
X0042302Y0303673D02*
X0351298Y0303673D01*
X0350870Y0302074D02*
X0042730Y0302074D01*
X0043000Y0300476D02*
X0350600Y0300476D01*
X0350600Y0298877D02*
X0043000Y0298877D01*
X0043000Y0297279D02*
X0350600Y0297279D01*
X0350900Y0295680D02*
X0042700Y0295680D01*
X0042271Y0294081D02*
X0351328Y0294081D01*
X0351818Y0292483D02*
X0041782Y0292483D01*
X0040859Y0290884D02*
X0352741Y0290884D01*
X0353664Y0289286D02*
X0039936Y0289286D01*
X0038465Y0287687D02*
X0355135Y0287687D01*
X0356734Y0286089D02*
X0036866Y0286089D01*
X0034185Y0284490D02*
X0359415Y0284490D01*
X0364074Y0282892D02*
X0029526Y0282892D01*
X0097600Y0218951D02*
X0188616Y0218951D01*
X0187017Y0217353D02*
X0097600Y0217353D01*
X0097000Y0215754D02*
X0186000Y0215754D01*
X0186000Y0214156D02*
X0097000Y0214156D01*
X0097000Y0212557D02*
X0186000Y0212557D01*
X0186572Y0210959D02*
X0097000Y0210959D01*
X0063777Y0164602D02*
X0005000Y0164602D01*
X0027258Y0135829D02*
X0037473Y0135829D01*
X0037400Y0134230D02*
X0028857Y0134230D01*
X0030455Y0132632D02*
X0037400Y0132632D01*
X0038477Y0131033D02*
X0032054Y0131033D01*
X0005000Y0115048D02*
X0165561Y0115048D01*
X0163963Y0113450D02*
X0005000Y0113450D01*
X0005000Y0111851D02*
X0162380Y0111851D01*
X0161718Y0110253D02*
X0005000Y0110253D01*
X0005000Y0108654D02*
X0057319Y0108654D01*
X0052800Y0108333D02*
X0050977Y0108333D01*
X0048400Y0105756D01*
X0048400Y0103933D01*
X0048400Y0102111D01*
X0050977Y0099533D01*
X0052800Y0099533D01*
X0052800Y0103933D01*
X0052800Y0103933D01*
X0048400Y0103933D01*
X0052800Y0103933D01*
X0052800Y0103933D01*
X0052800Y0103933D01*
X0052800Y0108333D01*
X0052800Y0107056D02*
X0052800Y0107056D01*
X0052800Y0105457D02*
X0052800Y0105457D01*
X0052800Y0103859D02*
X0052800Y0103859D01*
X0052800Y0102260D02*
X0052800Y0102260D01*
X0052800Y0100662D02*
X0052800Y0100662D01*
X0055751Y0100662D02*
X0055877Y0100662D01*
X0057468Y0099063D02*
X0005000Y0099063D01*
X0005000Y0097465D02*
X0075915Y0097465D01*
X0077513Y0095866D02*
X0005000Y0095866D01*
X0005000Y0094268D02*
X0079112Y0094268D01*
X0080710Y0092669D02*
X0005000Y0092669D01*
X0005000Y0091071D02*
X0082309Y0091071D01*
X0083907Y0089472D02*
X0005000Y0089472D01*
X0005000Y0087874D02*
X0085506Y0087874D01*
X0087104Y0086275D02*
X0005000Y0086275D01*
X0005000Y0084677D02*
X0088703Y0084677D01*
X0090301Y0083078D02*
X0005000Y0083078D01*
X0005000Y0081479D02*
X0091900Y0081479D01*
X0093498Y0079881D02*
X0005000Y0079881D01*
X0005000Y0078282D02*
X0095097Y0078282D01*
X0096695Y0076684D02*
X0005000Y0076684D01*
X0005000Y0075085D02*
X0098294Y0075085D01*
X0104398Y0069733D02*
X0101000Y0066335D01*
X0101000Y0061531D01*
X0104398Y0058133D01*
X0109202Y0058133D01*
X0112600Y0061531D01*
X0112600Y0066335D01*
X0109202Y0069733D01*
X0104398Y0069733D01*
X0103356Y0068691D02*
X0005000Y0068691D01*
X0005000Y0067093D02*
X0101757Y0067093D01*
X0101000Y0065494D02*
X0005000Y0065494D01*
X0005000Y0063896D02*
X0020316Y0063896D01*
X0020547Y0064029D02*
X0016853Y0061896D01*
X0013837Y0058880D01*
X0011704Y0055186D01*
X0010600Y0051066D01*
X0010600Y0046800D01*
X0011704Y0042680D01*
X0013837Y0038986D01*
X0016853Y0035970D01*
X0020547Y0033837D01*
X0024667Y0032733D01*
X0028933Y0032733D01*
X0033053Y0033837D01*
X0036747Y0035970D01*
X0039763Y0038986D01*
X0041896Y0042680D01*
X0043000Y0046800D01*
X0043000Y0051066D01*
X0041896Y0055186D01*
X0039763Y0058880D01*
X0036747Y0061896D01*
X0033053Y0064029D01*
X0028933Y0065133D01*
X0024667Y0065133D01*
X0020547Y0064029D01*
X0017548Y0062297D02*
X0005000Y0062297D01*
X0005000Y0060699D02*
X0015656Y0060699D01*
X0014057Y0059100D02*
X0005000Y0059100D01*
X0005000Y0057502D02*
X0013041Y0057502D01*
X0012118Y0055903D02*
X0005000Y0055903D01*
X0005000Y0054305D02*
X0011468Y0054305D01*
X0011040Y0052706D02*
X0005000Y0052706D01*
X0005000Y0051108D02*
X0010611Y0051108D01*
X0010600Y0049509D02*
X0005000Y0049509D01*
X0005057Y0047911D02*
X0010600Y0047911D01*
X0010731Y0046312D02*
X0005178Y0046312D01*
X0005543Y0044714D02*
X0011159Y0044714D01*
X0011587Y0043115D02*
X0005908Y0043115D01*
X0006327Y0041517D02*
X0012376Y0041517D01*
X0013299Y0039918D02*
X0007097Y0039918D01*
X0007867Y0038320D02*
X0014503Y0038320D01*
X0016102Y0036721D02*
X0008831Y0036721D01*
X0010106Y0035123D02*
X0018320Y0035123D01*
X0021715Y0033524D02*
X0011380Y0033524D01*
X0013382Y0031926D02*
X0380218Y0031926D01*
X0382220Y0033524D02*
X0371885Y0033524D01*
X0373053Y0033837D02*
X0376747Y0035970D01*
X0379763Y0038986D01*
X0381896Y0042680D01*
X0383000Y0046800D01*
X0383000Y0051066D01*
X0381896Y0055186D01*
X0379763Y0058880D01*
X0376747Y0061896D01*
X0373053Y0064029D01*
X0368933Y0065133D01*
X0364667Y0065133D01*
X0360547Y0064029D01*
X0356853Y0061896D01*
X0353837Y0058880D01*
X0351704Y0055186D01*
X0350600Y0051066D01*
X0350600Y0046800D01*
X0351704Y0042680D01*
X0353837Y0038986D01*
X0356853Y0035970D01*
X0360547Y0033837D01*
X0364667Y0032733D01*
X0368933Y0032733D01*
X0373053Y0033837D01*
X0375280Y0035123D02*
X0383494Y0035123D01*
X0384769Y0036721D02*
X0377498Y0036721D01*
X0379097Y0038320D02*
X0385733Y0038320D01*
X0386503Y0039918D02*
X0380301Y0039918D01*
X0381224Y0041517D02*
X0387273Y0041517D01*
X0387692Y0043115D02*
X0382013Y0043115D01*
X0382441Y0044714D02*
X0388057Y0044714D01*
X0388422Y0046312D02*
X0382869Y0046312D01*
X0383000Y0047911D02*
X0388543Y0047911D01*
X0388600Y0049509D02*
X0383000Y0049509D01*
X0382989Y0051108D02*
X0388600Y0051108D01*
X0388600Y0052706D02*
X0382560Y0052706D01*
X0382132Y0054305D02*
X0388600Y0054305D01*
X0388600Y0055903D02*
X0381482Y0055903D01*
X0380559Y0057502D02*
X0388600Y0057502D01*
X0388600Y0059100D02*
X0379543Y0059100D01*
X0377944Y0060699D02*
X0388600Y0060699D01*
X0388600Y0062297D02*
X0376052Y0062297D01*
X0373284Y0063896D02*
X0388600Y0063896D01*
X0388600Y0065494D02*
X0292600Y0065494D01*
X0292600Y0066335D02*
X0289202Y0069733D01*
X0284398Y0069733D01*
X0281000Y0066335D01*
X0281000Y0061531D01*
X0284398Y0058133D01*
X0289202Y0058133D01*
X0292600Y0061531D01*
X0292600Y0066335D01*
X0291843Y0067093D02*
X0388600Y0067093D01*
X0388600Y0068691D02*
X0290244Y0068691D01*
X0283356Y0068691D02*
X0250244Y0068691D01*
X0249202Y0069733D02*
X0252600Y0066335D01*
X0252600Y0061531D01*
X0249202Y0058133D01*
X0244398Y0058133D01*
X0241000Y0061531D01*
X0241000Y0066335D01*
X0244398Y0069733D01*
X0249202Y0069733D01*
X0251843Y0067093D02*
X0281757Y0067093D01*
X0281000Y0065494D02*
X0252600Y0065494D01*
X0252600Y0063896D02*
X0281000Y0063896D01*
X0281000Y0062297D02*
X0252600Y0062297D01*
X0251768Y0060699D02*
X0281832Y0060699D01*
X0283430Y0059100D02*
X0250170Y0059100D01*
X0243430Y0059100D02*
X0206407Y0059100D01*
X0206317Y0058925D02*
X0206753Y0059780D01*
X0207050Y0060694D01*
X0207200Y0061642D01*
X0207200Y0062122D01*
X0196800Y0062122D01*
X0196800Y0056022D01*
X0201580Y0056022D01*
X0202528Y0056172D01*
X0203442Y0056469D01*
X0204297Y0056905D01*
X0205074Y0057469D01*
X0205753Y0058148D01*
X0206317Y0058925D01*
X0205106Y0057502D02*
X0353041Y0057502D01*
X0352118Y0055903D02*
X0041482Y0055903D01*
X0042132Y0054305D02*
X0351468Y0054305D01*
X0351040Y0052706D02*
X0042560Y0052706D01*
X0042989Y0051108D02*
X0350611Y0051108D01*
X0350600Y0049509D02*
X0043000Y0049509D01*
X0043000Y0047911D02*
X0350600Y0047911D01*
X0350731Y0046312D02*
X0042869Y0046312D01*
X0042441Y0044714D02*
X0351159Y0044714D01*
X0351587Y0043115D02*
X0042013Y0043115D01*
X0041224Y0041517D02*
X0352376Y0041517D01*
X0353299Y0039918D02*
X0040301Y0039918D01*
X0039097Y0038320D02*
X0354503Y0038320D01*
X0356102Y0036721D02*
X0037498Y0036721D01*
X0035280Y0035123D02*
X0358320Y0035123D01*
X0361715Y0033524D02*
X0031885Y0033524D01*
X0018827Y0028729D02*
X0374773Y0028729D01*
X0378092Y0030327D02*
X0015508Y0030327D01*
X0040559Y0057502D02*
X0188494Y0057502D01*
X0188526Y0057469D02*
X0189303Y0056905D01*
X0190158Y0056469D01*
X0191072Y0056172D01*
X0192020Y0056022D01*
X0196800Y0056022D01*
X0196800Y0062122D01*
X0196800Y0062122D01*
X0196800Y0062122D01*
X0186400Y0062122D01*
X0186400Y0061642D01*
X0186550Y0060694D01*
X0186847Y0059780D01*
X0187283Y0058925D01*
X0187847Y0058148D01*
X0188526Y0057469D01*
X0187193Y0059100D02*
X0163721Y0059100D01*
X0165920Y0060699D02*
X0186549Y0060699D01*
X0186400Y0062122D02*
X0196800Y0062122D01*
X0196800Y0062122D01*
X0207200Y0062122D01*
X0207200Y0062602D01*
X0207050Y0063550D01*
X0206753Y0064464D01*
X0206317Y0065319D01*
X0205753Y0066096D01*
X0205074Y0066775D01*
X0204297Y0067339D01*
X0203442Y0067775D01*
X0202528Y0068072D01*
X0201580Y0068222D01*
X0196800Y0068222D01*
X0196800Y0062122D01*
X0196800Y0062122D01*
X0196800Y0068222D01*
X0192020Y0068222D01*
X0191072Y0068072D01*
X0190158Y0067775D01*
X0189303Y0067339D01*
X0188526Y0066775D01*
X0187847Y0066096D01*
X0187283Y0065319D01*
X0186847Y0064464D01*
X0186550Y0063550D01*
X0186400Y0062602D01*
X0186400Y0062122D01*
X0186400Y0062297D02*
X0167518Y0062297D01*
X0169117Y0063896D02*
X0186662Y0063896D01*
X0187410Y0065494D02*
X0170715Y0065494D01*
X0171666Y0067093D02*
X0188964Y0067093D01*
X0196800Y0067093D02*
X0196800Y0067093D01*
X0196800Y0065494D02*
X0196800Y0065494D01*
X0196800Y0063896D02*
X0196800Y0063896D01*
X0196800Y0062297D02*
X0196800Y0062297D01*
X0196800Y0060699D02*
X0196800Y0060699D01*
X0196800Y0059100D02*
X0196800Y0059100D01*
X0196800Y0057502D02*
X0196800Y0057502D01*
X0207051Y0060699D02*
X0241832Y0060699D01*
X0241000Y0062297D02*
X0207200Y0062297D01*
X0206938Y0063896D02*
X0213615Y0063896D01*
X0213356Y0063980D02*
X0214269Y0063683D01*
X0215218Y0063533D01*
X0215698Y0063533D01*
X0216178Y0063533D01*
X0217126Y0063683D01*
X0218039Y0063980D01*
X0218895Y0064416D01*
X0219672Y0064980D01*
X0220350Y0065659D01*
X0220915Y0066436D01*
X0221351Y0067291D01*
X0221647Y0068205D01*
X0221798Y0069153D01*
X0221798Y0073933D01*
X0215698Y0073933D01*
X0215698Y0073933D01*
X0221798Y0073933D01*
X0221798Y0078713D01*
X0221647Y0079661D01*
X0221351Y0080575D01*
X0220915Y0081430D01*
X0220350Y0082207D01*
X0219672Y0082886D01*
X0218895Y0083450D01*
X0218039Y0083886D01*
X0217126Y0084183D01*
X0216178Y0084333D01*
X0215698Y0084333D01*
X0215698Y0073933D01*
X0215698Y0063533D01*
X0215698Y0073933D01*
X0215698Y0073933D01*
X0215698Y0073933D01*
X0215698Y0084333D01*
X0215218Y0084333D01*
X0214269Y0084183D01*
X0213356Y0083886D01*
X0212501Y0083450D01*
X0211724Y0082886D01*
X0211045Y0082207D01*
X0210480Y0081430D01*
X0210045Y0080575D01*
X0209748Y0079661D01*
X0209598Y0078713D01*
X0209598Y0073933D01*
X0209598Y0069153D01*
X0209748Y0068205D01*
X0210045Y0067291D01*
X0210480Y0066436D01*
X0211045Y0065659D01*
X0211724Y0064980D01*
X0212501Y0064416D01*
X0213356Y0063980D01*
X0215698Y0063896D02*
X0215698Y0063896D01*
X0215698Y0065494D02*
X0215698Y0065494D01*
X0215698Y0067093D02*
X0215698Y0067093D01*
X0215698Y0068691D02*
X0215698Y0068691D01*
X0215698Y0070290D02*
X0215698Y0070290D01*
X0215698Y0071888D02*
X0215698Y0071888D01*
X0215698Y0073487D02*
X0215698Y0073487D01*
X0215698Y0073933D02*
X0209598Y0073933D01*
X0215698Y0073933D01*
X0215698Y0073933D01*
X0215698Y0075085D02*
X0215698Y0075085D01*
X0215698Y0076684D02*
X0215698Y0076684D01*
X0215698Y0078282D02*
X0215698Y0078282D01*
X0215698Y0079881D02*
X0215698Y0079881D01*
X0215698Y0081479D02*
X0215698Y0081479D01*
X0215698Y0083078D02*
X0215698Y0083078D01*
X0219407Y0083078D02*
X0388600Y0083078D01*
X0388600Y0084677D02*
X0208600Y0084677D01*
X0208600Y0084252D02*
X0208600Y0087236D01*
X0207458Y0089992D01*
X0205348Y0092102D01*
X0202592Y0093244D01*
X0191008Y0093244D01*
X0188252Y0092102D01*
X0186142Y0089992D01*
X0185000Y0087236D01*
X0185000Y0084252D01*
X0186142Y0081496D01*
X0188252Y0079386D01*
X0191008Y0078244D01*
X0202592Y0078244D01*
X0205348Y0079386D01*
X0207458Y0081496D01*
X0208600Y0084252D01*
X0208114Y0083078D02*
X0211988Y0083078D01*
X0210516Y0081479D02*
X0207442Y0081479D01*
X0205843Y0079881D02*
X0209819Y0079881D01*
X0209598Y0078282D02*
X0202684Y0078282D01*
X0209598Y0076684D02*
X0172000Y0076684D01*
X0172000Y0078282D02*
X0190916Y0078282D01*
X0187757Y0079881D02*
X0172000Y0079881D01*
X0172000Y0081479D02*
X0186158Y0081479D01*
X0185486Y0083078D02*
X0172000Y0083078D01*
X0172000Y0084677D02*
X0185000Y0084677D01*
X0185000Y0086275D02*
X0172000Y0086275D01*
X0172000Y0087874D02*
X0185264Y0087874D01*
X0185926Y0089472D02*
X0172000Y0089472D01*
X0172000Y0091071D02*
X0187220Y0091071D01*
X0189620Y0092669D02*
X0172000Y0092669D01*
X0172000Y0094268D02*
X0388600Y0094268D01*
X0388600Y0095866D02*
X0172000Y0095866D01*
X0172000Y0097465D02*
X0388600Y0097465D01*
X0388600Y0099063D02*
X0336132Y0099063D01*
X0337723Y0100662D02*
X0337849Y0100662D01*
X0340800Y0100662D02*
X0340800Y0100662D01*
X0340800Y0102260D02*
X0340800Y0102260D01*
X0340800Y0103859D02*
X0340800Y0103859D01*
X0340800Y0105457D02*
X0340800Y0105457D01*
X0340800Y0107056D02*
X0340800Y0107056D01*
X0343900Y0107056D02*
X0388600Y0107056D01*
X0388600Y0108654D02*
X0336281Y0108654D01*
X0345200Y0105457D02*
X0388600Y0105457D01*
X0388600Y0103859D02*
X0345200Y0103859D01*
X0345200Y0102260D02*
X0388600Y0102260D01*
X0388600Y0100662D02*
X0343751Y0100662D01*
X0322834Y0110253D02*
X0388600Y0110253D01*
X0388600Y0111851D02*
X0321236Y0111851D01*
X0319637Y0113450D02*
X0388600Y0113450D01*
X0388600Y0115048D02*
X0318039Y0115048D01*
X0316440Y0116647D02*
X0388600Y0116647D01*
X0388600Y0118245D02*
X0314842Y0118245D01*
X0322834Y0123733D02*
X0324746Y0124525D01*
X0339746Y0139525D01*
X0341208Y0140988D01*
X0342000Y0142899D01*
X0342000Y0145931D01*
X0342600Y0146531D01*
X0342600Y0151335D01*
X0340202Y0153733D01*
X0349646Y0153733D01*
X0356572Y0146807D01*
X0356000Y0146235D01*
X0356000Y0141431D01*
X0359398Y0138033D01*
X0364202Y0138033D01*
X0367600Y0141431D01*
X0367600Y0146235D01*
X0367000Y0146835D01*
X0367000Y0149967D01*
X0366208Y0151879D01*
X0356208Y0161879D01*
X0354746Y0163341D01*
X0352834Y0164133D01*
X0330766Y0164133D01*
X0328854Y0163341D01*
X0319646Y0154133D01*
X0269802Y0154133D01*
X0269202Y0154733D01*
X0264398Y0154733D01*
X0261000Y0151335D01*
X0261000Y0146531D01*
X0264398Y0143133D01*
X0269202Y0143133D01*
X0269802Y0143733D01*
X0322834Y0143733D01*
X0324746Y0144525D01*
X0326208Y0145988D01*
X0331000Y0150779D01*
X0331000Y0146531D01*
X0331522Y0146009D01*
X0319646Y0134133D01*
X0292002Y0134133D01*
X0290554Y0134733D01*
X0283046Y0134733D01*
X0280915Y0133850D01*
X0279283Y0132219D01*
X0278400Y0130087D01*
X0278400Y0127779D01*
X0279283Y0125648D01*
X0280915Y0124016D01*
X0283046Y0123133D01*
X0290554Y0123133D01*
X0292002Y0123733D01*
X0322834Y0123733D01*
X0324860Y0124639D02*
X0357400Y0124639D01*
X0357400Y0124033D02*
X0361800Y0124033D01*
X0361800Y0119633D01*
X0363623Y0119633D01*
X0366200Y0122211D01*
X0366200Y0124033D01*
X0361800Y0124033D01*
X0361800Y0124033D01*
X0361800Y0119633D01*
X0359977Y0119633D01*
X0357400Y0122211D01*
X0357400Y0124033D01*
X0361800Y0124033D01*
X0361800Y0124033D01*
X0361800Y0124033D01*
X0366200Y0124033D01*
X0366200Y0125856D01*
X0363623Y0128433D01*
X0361800Y0128433D01*
X0361800Y0124033D01*
X0361800Y0124033D01*
X0361800Y0128433D01*
X0359977Y0128433D01*
X0357400Y0125856D01*
X0357400Y0124033D01*
X0357400Y0123041D02*
X0235046Y0123041D01*
X0233740Y0124639D02*
X0233448Y0124639D01*
X0232141Y0126238D02*
X0231849Y0126238D01*
X0230543Y0127836D02*
X0230251Y0127836D01*
X0228944Y0129435D02*
X0228652Y0129435D01*
X0227346Y0131033D02*
X0227054Y0131033D01*
X0225747Y0132632D02*
X0225455Y0132632D01*
X0224149Y0134230D02*
X0223857Y0134230D01*
X0222550Y0135829D02*
X0222258Y0135829D01*
X0220952Y0137427D02*
X0220660Y0137427D01*
X0227667Y0145420D02*
X0237400Y0145420D01*
X0237400Y0143821D02*
X0229266Y0143821D01*
X0230864Y0142223D02*
X0237400Y0142223D01*
X0238886Y0140624D02*
X0232463Y0140624D01*
X0234061Y0139026D02*
X0324539Y0139026D01*
X0326137Y0140624D02*
X0244714Y0140624D01*
X0246200Y0142223D02*
X0327736Y0142223D01*
X0329334Y0143821D02*
X0323048Y0143821D01*
X0325641Y0145420D02*
X0330933Y0145420D01*
X0331000Y0147018D02*
X0327239Y0147018D01*
X0328838Y0148617D02*
X0331000Y0148617D01*
X0331000Y0150215D02*
X0330436Y0150215D01*
X0323721Y0158208D02*
X0247000Y0158208D01*
X0247000Y0159807D02*
X0325320Y0159807D01*
X0326918Y0161405D02*
X0246405Y0161405D01*
X0245083Y0163004D02*
X0304522Y0163004D01*
X0302151Y0164602D02*
X0299469Y0164602D01*
X0296800Y0164602D02*
X0296800Y0164602D01*
X0296800Y0163983D02*
X0296800Y0168933D01*
X0296800Y0168933D01*
X0291850Y0168933D01*
X0291850Y0166883D01*
X0294750Y0163983D01*
X0296800Y0163983D01*
X0296800Y0166201D02*
X0296800Y0166201D01*
X0296800Y0167799D02*
X0296800Y0167799D01*
X0296800Y0168933D02*
X0296800Y0168933D01*
X0291850Y0168933D01*
X0291850Y0170983D01*
X0294750Y0173883D01*
X0296800Y0173883D01*
X0296800Y0168933D01*
X0296800Y0168933D01*
X0296800Y0169398D02*
X0296800Y0169398D01*
X0296800Y0170996D02*
X0296800Y0170996D01*
X0296800Y0172595D02*
X0296800Y0172595D01*
X0300139Y0172595D02*
X0301481Y0172595D01*
X0303080Y0174193D02*
X0220200Y0174193D01*
X0220123Y0172595D02*
X0293461Y0172595D01*
X0291863Y0170996D02*
X0219461Y0170996D01*
X0218067Y0169398D02*
X0291850Y0169398D01*
X0291850Y0167799D02*
X0240288Y0167799D01*
X0241886Y0166201D02*
X0292532Y0166201D01*
X0294131Y0164602D02*
X0243485Y0164602D01*
X0247326Y0156610D02*
X0322123Y0156610D01*
X0320524Y0155011D02*
X0247600Y0155011D01*
X0247600Y0153412D02*
X0263077Y0153412D01*
X0261478Y0151814D02*
X0247600Y0151814D01*
X0246285Y0150215D02*
X0261000Y0150215D01*
X0261000Y0148617D02*
X0244686Y0148617D01*
X0244937Y0147018D02*
X0261000Y0147018D01*
X0262111Y0145420D02*
X0246200Y0145420D01*
X0246200Y0143821D02*
X0263709Y0143821D01*
X0251767Y0134230D02*
X0281833Y0134230D01*
X0279696Y0132632D02*
X0253904Y0132632D01*
X0254808Y0131033D02*
X0278792Y0131033D01*
X0278400Y0129435D02*
X0255200Y0129435D01*
X0255200Y0127836D02*
X0278400Y0127836D01*
X0279039Y0126238D02*
X0254561Y0126238D01*
X0253309Y0124639D02*
X0280291Y0124639D01*
X0273758Y0118245D02*
X0239842Y0118245D01*
X0241440Y0116647D02*
X0272160Y0116647D01*
X0270561Y0115048D02*
X0243039Y0115048D01*
X0244637Y0113450D02*
X0268963Y0113450D01*
X0267364Y0111851D02*
X0246236Y0111851D01*
X0247834Y0110253D02*
X0265766Y0110253D01*
X0272481Y0102260D02*
X0281000Y0102260D01*
X0281000Y0103859D02*
X0274079Y0103859D01*
X0275678Y0105457D02*
X0281000Y0105457D01*
X0281720Y0107056D02*
X0277276Y0107056D01*
X0278875Y0108654D02*
X0283319Y0108654D01*
X0290281Y0108654D02*
X0309725Y0108654D01*
X0311323Y0107056D02*
X0291880Y0107056D01*
X0292600Y0105457D02*
X0312922Y0105457D01*
X0314521Y0103859D02*
X0292600Y0103859D01*
X0292600Y0102260D02*
X0316119Y0102260D01*
X0317718Y0100662D02*
X0291731Y0100662D01*
X0290132Y0099063D02*
X0319969Y0099063D01*
X0326459Y0126238D02*
X0357782Y0126238D01*
X0359381Y0127836D02*
X0328057Y0127836D01*
X0329656Y0129435D02*
X0388600Y0129435D01*
X0388600Y0131033D02*
X0355123Y0131033D01*
X0356200Y0132111D02*
X0356200Y0133933D01*
X0351800Y0133933D01*
X0351800Y0129533D01*
X0353623Y0129533D01*
X0356200Y0132111D01*
X0356200Y0132632D02*
X0388600Y0132632D01*
X0388600Y0134230D02*
X0356200Y0134230D01*
X0356200Y0133933D02*
X0356200Y0135756D01*
X0353623Y0138333D01*
X0351800Y0138333D01*
X0351800Y0133933D01*
X0351800Y0133933D01*
X0351800Y0129533D01*
X0349977Y0129533D01*
X0347400Y0132111D01*
X0347400Y0133933D01*
X0351800Y0133933D01*
X0351800Y0133933D01*
X0351800Y0133933D01*
X0347400Y0133933D01*
X0347400Y0135756D01*
X0349977Y0138333D01*
X0351800Y0138333D01*
X0351800Y0133933D01*
X0356200Y0133933D01*
X0356127Y0135829D02*
X0388600Y0135829D01*
X0388600Y0137427D02*
X0354528Y0137427D01*
X0351800Y0137427D02*
X0351800Y0137427D01*
X0351800Y0135829D02*
X0351800Y0135829D01*
X0351800Y0134230D02*
X0351800Y0134230D01*
X0351800Y0133933D02*
X0351800Y0133933D01*
X0351800Y0132632D02*
X0351800Y0132632D01*
X0351800Y0131033D02*
X0351800Y0131033D01*
X0348477Y0131033D02*
X0331254Y0131033D01*
X0332853Y0132632D02*
X0347400Y0132632D01*
X0347400Y0134230D02*
X0334451Y0134230D01*
X0336050Y0135829D02*
X0347473Y0135829D01*
X0349072Y0137427D02*
X0337648Y0137427D01*
X0339247Y0139026D02*
X0358405Y0139026D01*
X0356806Y0140624D02*
X0340845Y0140624D01*
X0341720Y0142223D02*
X0356000Y0142223D01*
X0356000Y0143821D02*
X0342000Y0143821D01*
X0342000Y0145420D02*
X0356000Y0145420D01*
X0356361Y0147018D02*
X0342600Y0147018D01*
X0342600Y0148617D02*
X0354762Y0148617D01*
X0353164Y0150215D02*
X0342600Y0150215D01*
X0342122Y0151814D02*
X0351565Y0151814D01*
X0349967Y0153412D02*
X0340523Y0153412D01*
X0328517Y0163004D02*
X0309078Y0163004D01*
X0310520Y0174193D02*
X0324706Y0174193D01*
X0326305Y0175792D02*
X0219908Y0175792D01*
X0219145Y0177390D02*
X0327903Y0177390D01*
X0329502Y0178989D02*
X0217619Y0178989D01*
X0219257Y0180587D02*
X0331100Y0180587D01*
X0331600Y0182186D02*
X0219954Y0182186D01*
X0220200Y0183784D02*
X0263746Y0183784D01*
X0262148Y0185383D02*
X0220077Y0185383D01*
X0219415Y0186981D02*
X0261000Y0186981D01*
X0261000Y0188580D02*
X0217956Y0188580D01*
X0218848Y0190178D02*
X0261000Y0190178D01*
X0261441Y0191777D02*
X0219785Y0191777D01*
X0220200Y0193375D02*
X0263040Y0193375D01*
X0290487Y0194974D02*
X0220200Y0194974D01*
X0219585Y0196572D02*
X0292085Y0196572D01*
X0293684Y0198171D02*
X0218365Y0198171D01*
X0205235Y0198171D02*
X0188365Y0198171D01*
X0189585Y0196572D02*
X0204015Y0196572D01*
X0203400Y0194974D02*
X0190200Y0194974D01*
X0190200Y0193375D02*
X0203400Y0193375D01*
X0203815Y0191777D02*
X0189785Y0191777D01*
X0188848Y0190178D02*
X0204752Y0190178D01*
X0205644Y0188580D02*
X0189170Y0188580D01*
X0191106Y0186981D02*
X0204185Y0186981D01*
X0203523Y0185383D02*
X0192704Y0185383D01*
X0194303Y0183784D02*
X0203400Y0183784D01*
X0203646Y0182186D02*
X0195901Y0182186D01*
X0196743Y0180587D02*
X0204343Y0180587D01*
X0205417Y0178989D02*
X0197000Y0178989D01*
X0197000Y0177390D02*
X0202903Y0177390D01*
X0201305Y0175792D02*
X0197000Y0175792D01*
X0197000Y0174193D02*
X0199706Y0174193D01*
X0198108Y0172595D02*
X0197000Y0172595D01*
X0197000Y0170996D02*
X0197026Y0170996D01*
X0218327Y0158208D02*
X0235171Y0158208D01*
X0236274Y0156610D02*
X0219569Y0156610D01*
X0220200Y0155011D02*
X0236000Y0155011D01*
X0236000Y0153412D02*
X0220200Y0153412D01*
X0219800Y0151814D02*
X0236000Y0151814D01*
X0237315Y0150215D02*
X0218885Y0150215D01*
X0224080Y0148617D02*
X0238914Y0148617D01*
X0238663Y0147018D02*
X0226069Y0147018D01*
X0235660Y0137427D02*
X0322940Y0137427D01*
X0321342Y0135829D02*
X0237258Y0135829D01*
X0238857Y0134230D02*
X0241833Y0134230D01*
X0241800Y0140624D02*
X0241800Y0140624D01*
X0241800Y0142223D02*
X0241800Y0142223D01*
X0241800Y0143821D02*
X0241800Y0143821D01*
X0236645Y0121442D02*
X0358168Y0121442D01*
X0359767Y0119844D02*
X0238243Y0119844D01*
X0241000Y0102260D02*
X0172000Y0102260D01*
X0172000Y0100662D02*
X0241869Y0100662D01*
X0243468Y0099063D02*
X0172000Y0099063D01*
X0161600Y0099063D02*
X0150132Y0099063D01*
X0149202Y0098133D02*
X0152600Y0101531D01*
X0152600Y0106335D01*
X0149202Y0109733D01*
X0144398Y0109733D01*
X0141000Y0106335D01*
X0141000Y0101531D01*
X0144398Y0098133D01*
X0149202Y0098133D01*
X0151731Y0100662D02*
X0161600Y0100662D01*
X0161600Y0102260D02*
X0152600Y0102260D01*
X0152600Y0103859D02*
X0161600Y0103859D01*
X0161600Y0105457D02*
X0152600Y0105457D01*
X0151880Y0107056D02*
X0161600Y0107056D01*
X0161600Y0108654D02*
X0150281Y0108654D01*
X0143319Y0108654D02*
X0110281Y0108654D01*
X0109202Y0109733D02*
X0104398Y0109733D01*
X0101000Y0106335D01*
X0101000Y0101531D01*
X0104398Y0098133D01*
X0109202Y0098133D01*
X0112600Y0101531D01*
X0112600Y0106335D01*
X0109202Y0109733D01*
X0111880Y0107056D02*
X0141720Y0107056D01*
X0141000Y0105457D02*
X0112600Y0105457D01*
X0112600Y0103859D02*
X0141000Y0103859D01*
X0141000Y0102260D02*
X0112600Y0102260D01*
X0111731Y0100662D02*
X0141869Y0100662D01*
X0143468Y0099063D02*
X0110132Y0099063D01*
X0103468Y0099063D02*
X0089024Y0099063D01*
X0090622Y0097465D02*
X0161600Y0097465D01*
X0161600Y0095866D02*
X0092221Y0095866D01*
X0093819Y0094268D02*
X0161600Y0094268D01*
X0161600Y0092669D02*
X0095418Y0092669D01*
X0097016Y0091071D02*
X0161600Y0091071D01*
X0161600Y0089472D02*
X0098615Y0089472D01*
X0100213Y0087874D02*
X0161600Y0087874D01*
X0161600Y0086275D02*
X0101812Y0086275D01*
X0103410Y0084677D02*
X0161600Y0084677D01*
X0161600Y0083078D02*
X0120009Y0083078D01*
X0121607Y0081479D02*
X0161600Y0081479D01*
X0161600Y0079881D02*
X0123206Y0079881D01*
X0124805Y0078282D02*
X0161600Y0078282D01*
X0161600Y0076684D02*
X0126403Y0076684D01*
X0128002Y0075085D02*
X0161600Y0075085D01*
X0161600Y0073487D02*
X0129600Y0073487D01*
X0131199Y0071888D02*
X0161600Y0071888D01*
X0160803Y0070290D02*
X0132797Y0070290D01*
X0126082Y0062297D02*
X0112600Y0062297D01*
X0112600Y0063896D02*
X0124483Y0063896D01*
X0122885Y0065494D02*
X0112600Y0065494D01*
X0111843Y0067093D02*
X0121286Y0067093D01*
X0119688Y0068691D02*
X0110244Y0068691D01*
X0114892Y0073487D02*
X0005000Y0073487D01*
X0005000Y0071888D02*
X0116491Y0071888D01*
X0118089Y0070290D02*
X0005000Y0070290D01*
X0033284Y0063896D02*
X0101000Y0063896D01*
X0101000Y0062297D02*
X0036052Y0062297D01*
X0037944Y0060699D02*
X0101832Y0060699D01*
X0103430Y0059100D02*
X0039543Y0059100D01*
X0049849Y0100662D02*
X0005000Y0100662D01*
X0005000Y0102260D02*
X0048400Y0102260D01*
X0048400Y0103859D02*
X0005000Y0103859D01*
X0005000Y0105457D02*
X0048400Y0105457D01*
X0049700Y0107056D02*
X0005000Y0107056D01*
X0070660Y0137427D02*
X0161600Y0137427D01*
X0161342Y0135829D02*
X0072258Y0135829D01*
X0073857Y0134230D02*
X0101833Y0134230D01*
X0103319Y0108654D02*
X0078990Y0108654D01*
X0081031Y0107056D02*
X0101720Y0107056D01*
X0101000Y0105457D02*
X0082630Y0105457D01*
X0084228Y0103859D02*
X0101000Y0103859D01*
X0101000Y0102260D02*
X0085827Y0102260D01*
X0087425Y0100662D02*
X0101869Y0100662D01*
X0111768Y0060699D02*
X0127680Y0060699D01*
X0129879Y0059100D02*
X0110170Y0059100D01*
X0172000Y0068691D02*
X0209671Y0068691D01*
X0209598Y0070290D02*
X0172000Y0070290D01*
X0172000Y0071888D02*
X0209598Y0071888D01*
X0209598Y0073487D02*
X0172000Y0073487D01*
X0172000Y0075085D02*
X0209598Y0075085D01*
X0210146Y0067093D02*
X0204636Y0067093D01*
X0206190Y0065494D02*
X0211210Y0065494D01*
X0217780Y0063896D02*
X0241000Y0063896D01*
X0241000Y0065494D02*
X0220186Y0065494D01*
X0221250Y0067093D02*
X0241757Y0067093D01*
X0243356Y0068691D02*
X0221725Y0068691D01*
X0221798Y0070290D02*
X0388600Y0070290D01*
X0388600Y0071888D02*
X0221798Y0071888D01*
X0221798Y0073487D02*
X0388600Y0073487D01*
X0388600Y0075085D02*
X0221798Y0075085D01*
X0221798Y0076684D02*
X0388600Y0076684D01*
X0388600Y0078282D02*
X0221798Y0078282D01*
X0221576Y0079881D02*
X0388600Y0079881D01*
X0388600Y0081479D02*
X0220879Y0081479D01*
X0208600Y0086275D02*
X0388600Y0086275D01*
X0388600Y0087874D02*
X0208336Y0087874D01*
X0207674Y0089472D02*
X0388600Y0089472D01*
X0388600Y0091071D02*
X0206380Y0091071D01*
X0203980Y0092669D02*
X0388600Y0092669D01*
X0388600Y0119844D02*
X0363833Y0119844D01*
X0361800Y0119844D02*
X0361800Y0119844D01*
X0361800Y0121442D02*
X0361800Y0121442D01*
X0361800Y0123041D02*
X0361800Y0123041D01*
X0361800Y0124639D02*
X0361800Y0124639D01*
X0361800Y0126238D02*
X0361800Y0126238D01*
X0361800Y0127836D02*
X0361800Y0127836D01*
X0364219Y0127836D02*
X0388600Y0127836D01*
X0388600Y0126238D02*
X0365818Y0126238D01*
X0366200Y0124639D02*
X0388600Y0124639D01*
X0388600Y0123041D02*
X0366200Y0123041D01*
X0365432Y0121442D02*
X0388600Y0121442D01*
X0388600Y0139026D02*
X0365195Y0139026D01*
X0366794Y0140624D02*
X0388600Y0140624D01*
X0388600Y0142223D02*
X0367600Y0142223D01*
X0367600Y0143821D02*
X0388600Y0143821D01*
X0388600Y0145420D02*
X0367600Y0145420D01*
X0367000Y0147018D02*
X0388600Y0147018D01*
X0388600Y0148617D02*
X0367000Y0148617D01*
X0366897Y0150215D02*
X0388600Y0150215D01*
X0388600Y0151814D02*
X0366235Y0151814D01*
X0364674Y0153412D02*
X0388600Y0153412D01*
X0388600Y0155011D02*
X0363076Y0155011D01*
X0361477Y0156610D02*
X0388600Y0156610D01*
X0388600Y0158208D02*
X0359879Y0158208D01*
X0358280Y0159807D02*
X0388600Y0159807D01*
X0388600Y0161405D02*
X0356682Y0161405D01*
X0355083Y0163004D02*
X0388600Y0163004D01*
X0388600Y0164602D02*
X0329823Y0164602D01*
X0331421Y0166201D02*
X0388600Y0166201D01*
X0388600Y0167799D02*
X0333020Y0167799D01*
X0334618Y0169398D02*
X0388600Y0169398D01*
X0388600Y0170996D02*
X0336217Y0170996D01*
X0337815Y0172595D02*
X0388600Y0172595D01*
X0388600Y0174193D02*
X0339414Y0174193D01*
X0341012Y0175792D02*
X0388600Y0175792D01*
X0388600Y0177390D02*
X0341789Y0177390D01*
X0342000Y0178989D02*
X0388600Y0178989D01*
X0388600Y0180587D02*
X0342000Y0180587D01*
X0342000Y0182186D02*
X0388600Y0182186D01*
X0388600Y0183784D02*
X0342000Y0183784D01*
X0342000Y0185383D02*
X0388600Y0185383D01*
X0388600Y0186981D02*
X0342600Y0186981D01*
X0342600Y0188580D02*
X0388600Y0188580D01*
X0388600Y0190178D02*
X0342600Y0190178D01*
X0342159Y0191777D02*
X0388600Y0191777D01*
X0388600Y0193375D02*
X0342000Y0193375D01*
X0342000Y0194974D02*
X0388600Y0194974D01*
X0388600Y0196572D02*
X0342000Y0196572D01*
X0342000Y0198171D02*
X0388600Y0198171D01*
X0388600Y0199769D02*
X0342000Y0199769D01*
X0342000Y0201368D02*
X0388600Y0201368D01*
X0388600Y0202966D02*
X0342000Y0202966D01*
X0342000Y0204565D02*
X0388600Y0204565D01*
X0388600Y0206163D02*
X0341505Y0206163D01*
X0340325Y0207762D02*
X0388600Y0207762D01*
X0388600Y0209360D02*
X0338727Y0209360D01*
X0337128Y0210959D02*
X0388600Y0210959D01*
X0388600Y0212557D02*
X0335530Y0212557D01*
X0333931Y0214156D02*
X0388600Y0214156D01*
X0388600Y0215754D02*
X0332333Y0215754D01*
X0330734Y0217353D02*
X0388600Y0217353D01*
X0388600Y0218951D02*
X0329136Y0218951D01*
X0327537Y0220550D02*
X0388600Y0220550D01*
X0388600Y0222148D02*
X0325938Y0222148D01*
X0324340Y0223747D02*
X0388600Y0223747D01*
X0388600Y0225345D02*
X0322741Y0225345D01*
X0321143Y0226944D02*
X0388600Y0226944D01*
X0388600Y0228543D02*
X0319544Y0228543D01*
X0317946Y0230141D02*
X0388600Y0230141D01*
X0388600Y0231740D02*
X0316347Y0231740D01*
X0314749Y0233338D02*
X0388600Y0233338D01*
X0331600Y0201368D02*
X0307000Y0201368D01*
X0307000Y0202966D02*
X0330413Y0202966D01*
X0328814Y0204565D02*
X0307000Y0204565D01*
X0307000Y0206163D02*
X0327216Y0206163D01*
X0325617Y0207762D02*
X0307000Y0207762D01*
X0307000Y0209360D02*
X0324019Y0209360D01*
X0322420Y0210959D02*
X0307000Y0210959D01*
X0307000Y0212557D02*
X0320822Y0212557D01*
X0319223Y0214156D02*
X0307000Y0214156D01*
X0307000Y0215754D02*
X0317625Y0215754D01*
X0316026Y0217353D02*
X0307600Y0217353D01*
X0307600Y0218951D02*
X0314428Y0218951D01*
X0312829Y0220550D02*
X0307600Y0220550D01*
X0306787Y0222148D02*
X0311231Y0222148D01*
X0307000Y0199769D02*
X0331600Y0199769D01*
X0331600Y0198171D02*
X0307000Y0198171D01*
X0306451Y0196572D02*
X0331600Y0196572D01*
X0331600Y0194974D02*
X0305195Y0194974D01*
X0303596Y0193375D02*
X0331600Y0193375D01*
X0331441Y0191777D02*
X0301998Y0191777D01*
X0300399Y0190178D02*
X0331000Y0190178D01*
X0331000Y0188580D02*
X0298801Y0188580D01*
X0297202Y0186981D02*
X0331000Y0186981D01*
X0331600Y0185383D02*
X0295604Y0185383D01*
X0292958Y0183784D02*
X0331600Y0183784D01*
X0319743Y0134230D02*
X0291767Y0134230D01*
X0281869Y0100662D02*
X0270882Y0100662D01*
X0268631Y0099063D02*
X0283468Y0099063D01*
X0292600Y0063896D02*
X0360316Y0063896D01*
X0357548Y0062297D02*
X0292600Y0062297D01*
X0291768Y0060699D02*
X0355656Y0060699D01*
X0354057Y0059100D02*
X0290170Y0059100D01*
X0159743Y0134230D02*
X0151767Y0134230D01*
X0151800Y0140624D02*
X0151800Y0140624D01*
X0151800Y0142223D02*
X0151800Y0142223D01*
X0151800Y0143821D02*
X0151800Y0143821D01*
X0369526Y0282892D02*
X0388600Y0282892D01*
X0388600Y0284490D02*
X0374185Y0284490D01*
X0376866Y0286089D02*
X0388600Y0286089D01*
X0388600Y0287687D02*
X0378465Y0287687D01*
X0379936Y0289286D02*
X0388600Y0289286D01*
X0388600Y0290884D02*
X0380859Y0290884D01*
X0381782Y0292483D02*
X0388600Y0292483D01*
X0388600Y0294081D02*
X0382271Y0294081D01*
X0382700Y0295680D02*
X0388600Y0295680D01*
X0388600Y0297279D02*
X0383000Y0297279D01*
X0383000Y0298877D02*
X0388600Y0298877D01*
X0388513Y0300476D02*
X0383000Y0300476D01*
X0382730Y0302074D02*
X0388303Y0302074D01*
X0387938Y0303673D02*
X0382302Y0303673D01*
X0381847Y0305271D02*
X0387573Y0305271D01*
X0387022Y0306870D02*
X0380924Y0306870D01*
X0380001Y0308468D02*
X0386252Y0308468D01*
X0385482Y0310067D02*
X0378577Y0310067D01*
X0376978Y0311665D02*
X0384354Y0311665D01*
X0385259Y0310531D02*
X0385259Y0310531D01*
X0383080Y0313264D02*
X0374379Y0313264D01*
M02*
